<svg xmlns="http://www.w3.org/2000/svg" viewBox="0 0 27.85 22.82"><defs><style>.cls-1{fill:#231f20;}</style></defs><g id="Layer_2" data-name="Layer 2"><g id="Layer_4" data-name="Layer 4"><path class="cls-1" d="M14.62,22.12a3.54,3.54,0,0,1-.49-2.25V16.23h-.4v2.4a10,10,0,0,1-.25,3,2.07,2.07,0,0,1-.74.86,1.71,1.71,0,0,1-.91.31c-.17,0-.26-.06-.26-.18a.47.47,0,0,1,.16-.31,1.14,1.14,0,0,0,.39-.71,21.7,21.7,0,0,0,.1-2.86V16.37l-.07.05a.59.59,0,0,0-.17.18,1.72,1.72,0,0,0-.22.9v3.38a1.12,1.12,0,0,1-.69,1,2.58,2.58,0,0,1-1.13.37c-.43,0-.64-.07-.64-.19s.13-.29.4-.45c.46-.35.69-.68.69-1V18.05l-.38.06c-.27,0-.6,0-1,0a2.79,2.79,0,0,1-2.95-2,3.48,3.48,0,0,0-1.47-1.72A.48.48,0,0,1,4.35,14q0-.21.6-.21c.63,0,1.25.45,1.85,1.36A3.61,3.61,0,0,0,8,16.29a4.54,4.54,0,0,0,1,.13,3.23,3.23,0,0,0,1.49-.31,2.42,2.42,0,0,1,1-1.7c-3-.33-4.91-1.34-5.81-3.05a17.4,17.4,0,0,0-2.82.27,16.39,16.39,0,0,0-2.5.58,1.21,1.21,0,0,0-.29.1c-.07,0-.1,0-.1-.1a.25.25,0,0,1,0-.07s.14-.07.37-.12a5.59,5.59,0,0,0,.71-.21,19.87,19.87,0,0,1,4.53-.66l-.21-.51H5a22.22,22.22,0,0,0-4.88.48l0,0c-.07,0-.1,0-.1-.11S0,11,.07,11a22.21,22.21,0,0,1,5.31-.51,9.68,9.68,0,0,1-.43-3A5,5,0,0,1,5.34,5.3a8.23,8.23,0,0,1,1-1.5l.08,0a6.31,6.31,0,0,1-.24-1.64A4,4,0,0,1,6.42.52l.2-.46H7a6.93,6.93,0,0,1,3.36,1.45,11.3,11.3,0,0,1,3.5-.42A13.18,13.18,0,0,1,17,1.4,7.24,7.24,0,0,1,20.42,0h.29a2.62,2.62,0,0,1,.35,1.09,3.85,3.85,0,0,1,.07.82A11.22,11.22,0,0,1,21,3.49a2.27,2.27,0,0,0,.22.28,5.81,5.81,0,0,1,1.42,4,15.63,15.63,0,0,1-.35,2.68h.77a17.64,17.64,0,0,1,4.75.51s0,0,0,.07,0,.11-.1.11v0L27.3,11a20.43,20.43,0,0,0-4.26-.4h-.79l-.19.51h.21a24.11,24.11,0,0,1,5.45.95c.06,0,.09,0,.09.11l-.14.07a24.69,24.69,0,0,0-5.4-.92H22c-.88,1.85-2.78,2.86-5.72,3.05a2,2,0,0,1,1,1.14,7.6,7.6,0,0,1,.25,2.29,22.18,22.18,0,0,1,0,2.22v.58a1.46,1.46,0,0,0,.82,1.06c.2.16.31.28.31.33s-.2.16-.55.16a3.12,3.12,0,0,1-.82-.1,1.38,1.38,0,0,1-1.1-1.33l-.06-3q0-1.35-.42-1.35v4.51A2,2,0,0,0,16,22.16a.66.66,0,0,1,.24.42.21.21,0,0,1-.24.24A2.1,2.1,0,0,1,14.62,22.12ZM4.32,15.63a1.67,1.67,0,0,1,.09-.55l.15-.46a1.72,1.72,0,0,0,.07.46l.11.52a.16.16,0,0,1-.18.18Q4.32,15.78,4.32,15.63ZM5.41,14.1c0-.08-.08-.13-.24-.13S5,14,5,14.1s.08.16.22.16S5.41,14.2,5.41,14.1Zm.65.4c0-.13-.08-.19-.23-.19s-.21.06-.21.19.07.12.21.12S6.06,14.58,6.06,14.5Zm.39.48c0-.12-.06-.17-.18-.17S6,14.86,6,15s.08.1.24.1S6.45,15,6.45,15Zm.4.55c0-.11-.08-.16-.23-.16s-.24.05-.24.16.08.12.24.12S6.85,15.61,6.85,15.53Zm.39.49c0-.08-.07-.13-.21-.13s-.23,0-.23.13.08.17.23.17S7.24,16.13,7.24,16ZM16,13.73c3.1-.19,4.64-1.44,4.64-3.74a3.67,3.67,0,0,0-.81-2.27,3.36,3.36,0,0,0-2.8-1.06l-.42.06c-.71.07-1.56.11-2.56.11s-2.05,0-2.88-.11l-.52-.06A3.64,3.64,0,0,0,7.75,7.9,3.2,3.2,0,0,0,7,9.84q0,3.57,5.07,3.89c.63,0,1.28,0,1.94,0S15.37,13.75,16,13.73ZM7.81,16.47c0-.08-.07-.12-.22-.12s-.24,0-.24.12.08.13.24.13S7.81,16.56,7.81,16.47Zm.76.3c0-.11-.07-.17-.21-.17s-.22.06-.22.17.08.15.22.15S8.57,16.87,8.57,16.77Zm.75-5.44a2.13,2.13,0,0,1-.41-1.39A2.4,2.4,0,0,1,9.32,8.5a1.16,1.16,0,0,1,1-.6,1.19,1.19,0,0,1,.87.48,2.41,2.41,0,0,1,.5,1.56,2.13,2.13,0,0,1-.5,1.49,1.1,1.1,0,0,1-.87.43A1.19,1.19,0,0,1,9.32,11.33Zm0,5.44c0-.11-.06-.17-.18-.17s-.24.06-.24.17.08.15.24.15S9.33,16.87,9.33,16.77Zm.79-.14c0-.07-.07-.1-.21-.1s-.18,0-.18.1.06.15.18.15S10.12,16.73,10.12,16.63Zm3-3.95a.39.39,0,0,1-.12-.24s0-.08.12-.08.07,0,.07.12.06.17.19.27a1.06,1.06,0,0,0,.47.17.6.6,0,0,0,.41-.16.43.43,0,0,0,.17-.28c0-.08,0-.12.08-.12a.11.11,0,0,1,.1.08.55.55,0,0,1-.22.43.8.8,0,0,1-.54.2A.77.77,0,0,1,13.16,12.68Zm.47-.83a.43.43,0,0,1-.08-.2.31.31,0,0,1,0-.17l.08-.1s.08-.05.18-.05.34.11.34.32a.36.36,0,0,1-.34.38A.47.47,0,0,1,13.63,11.85Zm3.09-.52a2.19,2.19,0,0,1-.4-1.39,2.47,2.47,0,0,1,.4-1.44,1.14,1.14,0,0,1,.94-.6,1.17,1.17,0,0,1,1,.6,2.54,2.54,0,0,1,.4,1.44,2.25,2.25,0,0,1-.4,1.39,1.21,1.21,0,0,1-1,.53A1.17,1.17,0,0,1,16.72,11.33Z"/></g></g></svg>