<svg xmlns="http://www.w3.org/2000/svg" viewBox="0 0 29.14 26.49"><defs><style>.cls-1{fill:#1c75bc;}</style></defs><g id="Layer_2" data-name="Layer 2"><g id="Layer_4" data-name="Layer 4"><path class="cls-1" d="M15.73,10.55v-.06a.05.05,0,0,0-.06.06Z"/><path class="cls-1" d="M25.42,0H3.72A3.73,3.73,0,0,0,0,3.72v19a3.73,3.73,0,0,0,3.72,3.73h21.7a3.73,3.73,0,0,0,3.72-3.73v-19A3.73,3.73,0,0,0,25.42,0Zm-16,20.9H5.38V8.76H9.44ZM9.09,6.47a2.36,2.36,0,0,1-1.67.6,2.27,2.27,0,0,1-1.66-.6A2,2,0,0,1,5.16,5a1.93,1.93,0,0,1,.64-1.5,2.44,2.44,0,0,1,1.68-.57,2.21,2.21,0,0,1,1.57.57A2.25,2.25,0,0,1,9.74,5,1.91,1.91,0,0,1,9.09,6.47ZM24,20.9h-4V14.43a3.87,3.87,0,0,0-.47-2,1.63,1.63,0,0,0-1.53-.79,2,2,0,0,0-1.37.46,3.31,3.31,0,0,0-.75,1,1.08,1.08,0,0,0-.09.46V20.9h-4V8.76h4v1.73a7,7,0,0,1,1.2-1.33,3.65,3.65,0,0,1,2.43-.68A4.46,4.46,0,0,1,22.68,9.8,5.72,5.72,0,0,1,24,14Z"/></g></g></svg>