<svg xmlns="http://www.w3.org/2000/svg" viewBox="0 0 165.09 218.42"><defs><style>.cls-1{fill:#b1c0c9;}.cls-2{fill:#606161;}</style></defs><g id="Layer_2" data-name="Layer 2"><g id="Layer_1-2" data-name="Layer 1"><path class="cls-1" d="M162.28,193.4c-3.08-1.86-15.08,2.07-18.09,4-5.47,1.17-11.59,1.33-16.75,4.38-1.18,1.75-3.39.55-4.7,1.69-4.22.78-8.35-4.5-13.14-3.29-2.33.73-6.68-.77-8,1.33.1,1.12-1.14.85-1.73,1.45-.42.44-.69.26-1-.12-1.35-3-3.19-6.39-4-9.43,1.14-.56,2.43,2.83,3.06,1.12.2-.56.54-.58,1-.34,3.51,2.31,9.53-2.27,12.69-3.94,12.57-4.23,14.42-18.54,20.43-28.74,1.26-6.24,2.85-12.24,4.18-18.5,1.13-7-4.26-7.7-8.2-2.26-2.33,2-1.57,5.34-3.37,7.63-2.91,2.79-1.35,7.83-4.93,9.93-1.29.91-1.27,1.51.15,2.27,10,5.26,5.68,19.62-5.34,19.56-10.68,3.09-24.63.28-33.67,6.42,1.23,4.64-.45,6,4.21,8.43,1.36,1.47,7.74,3,4.75,5.4a2.74,2.74,0,0,0-.73,1.84c-2.08-1.52-3.9-4-6.31-4.29-.56.46-.91.25-1.15-.31-1.85-2.81-.61-9.56-3.73-10.53-2.6.26-3.51,3.12-5.59,3.77-3.24-.73-6,2.85-9,2.62,4.92-6.48,16.47-7.84,23.49-12,.37-1,1.47-.63,2.26-.59,10.1-.83,20.45-1.54,30.34-3.74-1.3-1.05-3-.38-4.07-1.65,15,1.74,8.21-16.92-3.08-15.22-8.61.69-17.14,1.11-25.24,4.37-8,1.51-16.08.37-24.08.53.06-.62,1.27-.75,1.55-1.52-2.15-1.34-4.89-.57-7.27-.46,2.65-3-1.38-.94-3-1.62-3.06-.7-6.24,3.72-8.95,2.88-1.5-2.22-6.93.28-9.65,0a6.21,6.21,0,0,1-4.83-.53c-4-.48-6.86,4.23-10.62,5,.64-1.73,2.83-2.2,3.27-3.56C-7.65,167.82,1.71,142.46.25,198c2.86,5.81,12.55,2.7,17.86,5.11,5.21,1.84,11.12.29,16,2.33,2.28,1,4.85,1.16,7.26,1.79,1.19,1.28,2.45,0,3.76.65,0,.56-1.16.23-1,.85,7.42-.36,13.91,4.48,21,5.95,4.78.88,9.2,4.39,14.31,3.61,3,.57,5.42-1.13,8.23-1.7.69-.25,1.31-.39,1.8.34,2.66.62,5.39-1.72,8.11-.46,7,1.76,14.45,0,21.3-.5,2.19,1.4,4.87.46,7-.66C130.9,210,176.73,202.33,162.28,193.4Zm-75-4.71-2.38-.89a2.43,2.43,0,0,1,2.49.58ZM9.15,172.18c-1.11-.17-2.3,0-3.2-.77a4.62,4.62,0,0,1,4.28-1.06,1.57,1.57,0,0,0,2.06.21,1.57,1.57,0,0,1,1.73-.18C13.08,171.8,10.8,172,9.15,172.18Zm28.43,28.17c-.84.16-1,.39-.62,1.14.39,1.29-3.7,1.49-4.58,1.21C31.22,201.43,32,199.22,34,200c1,.3,1.36.08,2-.7,1.59-2.14,4.31-1.54,6.77-2.12C47.11,198.72,39.15,200.3,37.58,200.35Zm54-10.19a1,1,0,0,1,1.23.87C92.08,191.15,91.81,190.78,91.61,190.16Z"/><path class="cls-1" d="M72.36,163.34c1.8-1.64,1.65-4.76,2.92-6.83,1-1.89,2.21-3.68,1.9-5.91,0-3.51-.92-7.22.76-10.47.6-4.67-1.8-9.46-1.15-14.42-.19-4.44-7-4.95-7.64-.38-.91,4.39-.38,8.76.19,13-1-.13-2.39-1.52-2.72.19-.52,3.71-1.14,7.39-1.6,11.11a44.89,44.89,0,0,0-4.07,9.8C62.46,162.12,69.18,163,72.36,163.34Z"/><path class="cls-1" d="M91.43,158.22c.65,1.41-1.15,4.24,1.55,3.32,3.89-3,12.4.52,10.92-6.17h.16c.86-7.34-.84-10.41-6.19-15.24-2.58-2.63-3.29-10.25-8.27-9-6.45,5,1.48,10.6,3.09,15.74C91,150.06,90.77,154.36,91.43,158.22Z"/><path class="cls-1" d="M21,161.25c-1.28.63-2.58,1.2-3.92,1.73,2.5,1.94,6.25-.63,9.17-.59,2.24-1.84,6,.16,7.66-2.18-.93-1-2.66,0-3.73-1-.79-.94-1.8,1.33-2.28,0-1.57-1.72-4.71-3.4-7-1.79-1.14.55-2.59.37-3.39,1.51-1,1.28-2.8.12-3.74,1.45C15.71,161.77,19.22,159.89,21,161.25Zm2.79,0-2,.12C22.49,160.48,23.21,160.41,23.76,161.23Z"/><path class="cls-1" d="M45.6,158.77c-3.62.27-5.75-3.16-9.5-2.67-1.89-.12.28,2.27-.68,3.2C33.33,162.37,53.86,160.77,45.6,158.77Z"/><path class="cls-1" d="M12.6,159.57c0-1.55-2.21-.53-3.19-.53C10.24,160.56,12,162,12.6,159.57Z"/><path class="cls-1" d="M2.34,154.78c-.36-.73-2.49-1.8-1.94-.3C1,154.75,1.69,155.36,2.34,154.78Z"/><path class="cls-1" d="M8.61,158.48l-1-.86-.56.48C7.59,158.34,8.07,159.06,8.61,158.48Z"/><path class="cls-1" d="M11.29,161.15c-.55.55-.61,1,0,1.24C12,162,12.06,161.77,11.29,161.15Z"/><path class="cls-1" d="M31,156.46c-.31-.59-.71-.79-1.24-.6C29.35,156.6,30.47,156.94,31,156.46Z"/><path class="cls-2" d="M88.51,93.08c-1.16-2-4.3.16-6,.62-2.84.6-6.22,4.35-8.12,1.83-2-2.71.93-6.62,2.07-9.91,2.08-6.2,18.21-5.69,18.59-11.88-2.28-4.47-9.08-.39-12.91-.31-5.52-2.8-7.91,2.7-11.84,4.11-5.18,1.85-9.82,4-4.39,10.4,1,1.12.44,2.63,0,4-1.61,5.12-1.85,10.91-8.52,13-4.89,1.21-6.65,10,.57,8.28,3.63,0,2,2.54,1.66,4.11-.57,5-10.4,38.67-5.74,38.86.6,0,1.39-.91,1.63-1.55,4.32-13.65,8.1-27.51,11.82-41.31,1.5-5.78,4.19-10,10-12a50.59,50.59,0,0,0,8.06-4.19C87,96.17,89.64,95.47,88.51,93.08Z"/><path class="cls-2" d="M61.33,27.13c2.59-2.07,5.06-1.26,3.76,2.34-2.77,9.41-3.82,19.88-10.78,27.34-3.73,4.21,3.31,6,1.7,10.09-1.29,4.07-3.85,20.52,0,22.19,2.35.28,2.15-2.7,2.5-4.44,3.25-12,1.88-26.17,12.25-34.91,7.86-7.43,35.83-35.82,27.93-46.41-11.63-11-34.86,7.86-42.39,17.44-2.16,2.57-5.87,6-2.71,9.26C56.17,32.61,58.77,28.35,61.33,27.13Zm13.91-6.71c.82-3,3.47-4.08,6.1-5.05,1.25-.47,2.73-1.44,3.79-.14s-.15,2.59-.88,3.6c-3.86,5.48-6.34,12.08-12.58,15.61C71.4,29.41,74,25.08,75.24,20.42Z"/><path class="cls-2" d="M104.47,85.2c-.77-1.46-1.9-3.2-3.71-1.48-8,7.55-14.57,15.94-14.55,27.67-.74,7.39,9,10.63,13.27,4.67C107.37,108,108.64,95.43,104.47,85.2ZM97,106.73c-.25.35-.91.46-1.37.68-2.41-2.62,2.87-9.26,3.53-12.56.59-2.42,2.86-2.57,3,.29C102.29,99.82,99.4,103.17,97,106.73Z"/><path class="cls-2" d="M81.36,56.7c-.07,4.88.09,9.87,5.41,11.85,13.47,3.36,21-24.19,21-34.24.31-7.57-3.47-9.69-9.69-5.52C88.18,35.41,82.73,44.91,81.36,56.7Zm18.5-15.26c.12,3.21-2.56,13.62-6.38,13C94.14,49.39,95.58,44.71,99.86,41.44Z"/><path class="cls-2" d="M125.65,65.18c3.19-7.66-5.44-10.85-7.27-2.46-4.79,16.26-7.67,33.35-11.5,49.64,0,1.65-.29,3.37,1.24,3.9,2.29.84,2.67-1.3,3.11-2.76C116.15,97.45,121.46,81.44,125.65,65.18Z"/><path class="cls-2" d="M131,81.62c-.05-.79.86-2.82-1.42-3.4-4.87-.77-6.79,14.36-9.89,18-3.37,5.27.46,23.44,8.37,16.41,2-1.7,5.1-3.47,0-5.59C124.31,105.75,130.79,86.73,131,81.62Z"/><path class="cls-2" d="M111,59.06c4.86,1.3,5-5,6.19-8.08,3-8.06,6.47-15.88,13.68-21.17,1.55-1.15,3.8-1.86,2.54-4.31-1.5-2.91-3.86-2.34-6.38-1.21-1.59.72-3.15,3.55-4.94,1.61-6.1-6.69-6.69.51-7.88,3.35C112.65,33,105.45,58.34,111,59.06Z"/><path class="cls-2" d="M131.28,73.15c4.29,0,4.39-7.08,0-6.8C126.92,66.22,126.84,73.23,131.28,73.15Z"/><path class="cls-2" d="M148.78,73.83c-10,2.23-19.23,15.76-17.64,25.83,1.37,8.88,9.3,12.34,16.41,7C158.59,100.36,165.51,73,148.78,73.83Zm2.48,13c-.27,4.35-2.65,8.15-6.67,11-8.7,5.14-2.94-10.73-.86-13.84,1.08-2,1.46-5.57,4.83-4.29C151,80.65,151.37,83.54,151.26,86.81Z"/><path class="cls-2" d="M162.14,26.45c-1.33-2.6-4.61-.41-6.67,0-8,2.66-2.61-6.49-2-10.18.55-2.76,3-6.52-.69-8-3.42-1.41-4.72,2.85-6.58,5-6.09,8-5.3,20-17,23.92-2.68.86-3.29,5.85.19,6.24,6.12.71,5.24,4,4.64,7.25-2.4,8.74,7.27,22.77,13.56,11.26,2.15-7.24-8.82,2.57-5.08-8.81C146.32,24,160,34.86,162.14,26.45Z"/></g></g></svg>