<svg xmlns="http://www.w3.org/2000/svg" viewBox="0 0 86.84 28.65"><defs><style>.cls-1,.cls-2{fill:none;stroke-miterlimit:10;stroke-width:3.6px;}.cls-1{stroke:#666766;}.cls-2{stroke:#0d71ba;}.cls-3{fill:#333;}</style></defs><g id="Layer_2" data-name="Layer 2"><g id="Layer_1-2" data-name="Layer 1"><path class="cls-1" d="M1.85,14.42v.32H6.38a6.43,6.43,0,0,1,4.38-6.4A5.86,5.86,0,0,1,13,8.05H23.53V3.18H12.46Q6.32,3.18,3,9.41A11.45,11.45,0,0,0,1.85,14.42Z" transform="translate(0 -1.33)"/><path class="cls-2" d="M23.48,13.32V13H18.94a6.43,6.43,0,0,1-4.37,6.4,5.92,5.92,0,0,1-2.27.29H1.8v4.87H12.87q6.12,0,9.47-6.23A11.29,11.29,0,0,0,23.48,13.32Z" transform="translate(0 -1.33)"/><path class="cls-3" d="M36.08,1.33a5.82,5.82,0,0,0-2.32.54,8.31,8.31,0,0,0-2.26,1.8A5.79,5.79,0,0,0,28.78,1.9l-.27.33a5.43,5.43,0,0,1,1.18,1.21,3.21,3.21,0,0,1,.47,1.14,12.35,12.35,0,0,1,.12,2.11V18.6c0,1.2,0,1.87-.05,2a3.08,3.08,0,0,1-.36,1,2,2,0,0,1-.73.72v.37a8.59,8.59,0,0,1,2,.78,17.66,17.66,0,0,1,2.26,1.75l3.34-2.53-.41-.61-.74.61-1.9-1.42V6.46a6.57,6.57,0,0,1,.54-3,4.32,4.32,0,0,1,1.86-1.67V1.33Z" transform="translate(0 -1.33)"/><path class="cls-3" d="M45.14,1.33a6.5,6.5,0,0,0-1.8.48A18.34,18.34,0,0,0,40.9,3.37,4.22,4.22,0,0,0,40,2.61a14.53,14.53,0,0,0-1.74-.84l-.3.41A4,4,0,0,1,39.4,3.76a7,7,0,0,1,.39,2.73v9.67a21.53,21.53,0,0,1-.29,4.56,2.15,2.15,0,0,1-.9,1.17v.3a23.15,23.15,0,0,1,4.19,1.25,12.6,12.6,0,0,1,2.83,1.8,11.8,11.8,0,0,1,2-1.47A24.46,24.46,0,0,1,51,22.19V12.13a5.82,5.82,0,0,0-.52-2.68,6,6,0,0,0-2-2l-5.3,4.1V5.7a5.26,5.26,0,0,1,.41-2.43,4.49,4.49,0,0,1,1.69-1.5l-.12-.44Zm2.37,21-4.35-1.72V12.36l3-2.28a3.33,3.33,0,0,1,1.14,1.11A4.55,4.55,0,0,1,47.51,13v9.39Z" transform="translate(0 -1.33)"/><path class="cls-3" d="M64.22,7.46l-5.11,4.1V11a3.48,3.48,0,0,0-.37-1.77A7.43,7.43,0,0,0,56.9,7.46l-3.55,2.93.41.52c.45-.43.78-.65,1-.65s.4.14.57.43a5.54,5.54,0,0,1,.37,2.45v8.51l-1.26,1.2,3,2.39,2.94-2.39-1.25-1.2V12.4L62,10.11l1.47,1.56V20.8a6.31,6.31,0,0,0,.39,2.59,5.88,5.88,0,0,0,1.79,1.85l3.58-2.93-.41-.52a3.11,3.11,0,0,1-1.11.65.59.59,0,0,1-.48-.35,3,3,0,0,1-.36-1.64v-8a5,5,0,0,1,.34-2A6.57,6.57,0,0,1,68.6,8.84l-.47-.45L66.5,10l-2.28-2.5Z" transform="translate(0 -1.33)"/><path class="cls-3" d="M78.54,7.46a18.46,18.46,0,0,1-6.07,2.43V22l4,2.83-4,4.61.24.57a19.79,19.79,0,0,1,5.09-.78,10.35,10.35,0,0,1,1.94.19,14.12,14.12,0,0,1,2.14.59,18.54,18.54,0,0,0,4.05-2.27,2.16,2.16,0,0,0,.76-1.53,5.71,5.71,0,0,0-1.45-2.66,6.67,6.67,0,0,1-1.19-2,9.51,9.51,0,0,1-.21-2.48V11.49l3,.59V8.32L83.73,9.89,78.54,7.46Zm-.2,15.15-2.46-1.79V9.89l4.55,1.57v8.66l-2.09,2.49ZM75.42,27l5-5.73a7.4,7.4,0,0,0,1,2.83,18.18,18.18,0,0,0,3.06,3.4l-.69.43a11.73,11.73,0,0,0-2.48-1,9.72,9.72,0,0,0-2.43-.32,23.49,23.49,0,0,0-3.5.35Z" transform="translate(0 -1.33)"/></g></g></svg>