<svg xmlns="http://www.w3.org/2000/svg" viewBox="0 0 115.11 25.06"><defs><style>.cls-1{font-size:18.12px;}.cls-1,.cls-7{fill:#323233;font-family:HelveticaNeueLTStd-Md, Helvetica Neue LT Std;font-weight:500;}.cls-2{letter-spacing:0.02em;}.cls-3{fill:#8e9091;}.cls-4{fill:#39b54a;}.cls-5{fill:#f9ed32;}.cls-6{fill:#dfc269;}.cls-7{font-size:3.62px;letter-spacing:0.2em;}</style></defs><g id="Layer_2" data-name="Layer 2"><g id="Layer_1-2" data-name="Layer 1"><text class="cls-1" transform="translate(0 15.04)">tiga</text><text class="cls-1" transform="translate(63.77 15.04)">wa<tspan class="cls-2" x="24.17" y="0">r</tspan><tspan x="30.87" y="0">na</tspan></text><path class="cls-3" d="M54.91,16.06a2.14,2.14,0,0,1-2.14,2.14H43.42a2.14,2.14,0,0,1-2.14-2.14V13.85h-.66v2.21a2.8,2.8,0,0,0,2.8,2.8h9.35a2.8,2.8,0,0,0,2.8-2.8V13.85h-.66Z"/><path class="cls-4" d="M39.77,13.19h6.14v.19a.47.47,0,0,0,.47.47h3.43a.47.47,0,0,0,.47-.47v-.19h5.83c.17,0,.31-.24.31-.54v-.06c0-.3-.14-.54-.31-.54h-16c-.18,0-.32.24-.32.54s.14.54.32.54m9.67.31a.11.11,0,0,1-.11.11H46.49a.1.1,0,0,1-.1-.11v-.09a.09.09,0,0,1,.1-.1h3.16a.1.1,0,0,1,.11.1Z"/><path class="cls-3" d="M53.75,8.78A1.78,1.78,0,0,1,52,10.56H44.18A1.78,1.78,0,0,1,42.4,8.78V6.94h-.55V8.78a2.33,2.33,0,0,0,2.33,2.33H52A2.33,2.33,0,0,0,54.3,8.78V6.94h-.55Z"/><path class="cls-5" d="M54.74,5.44H41.4c-.14,0-.26.2-.26.45s.12.45.26.45h-.26v0h5.11v.15a.4.4,0,0,0,.39.4H49.5a.4.4,0,0,0,.39-.4V6.39h4.85c.14,0,.26-.2.26-.45V5.89C55,5.64,54.88,5.44,54.74,5.44ZM49.45,6.59a.1.1,0,0,1-.09.1H46.74a.1.1,0,0,1-.09-.1V6.53a.09.09,0,0,1,.09-.09h2.62a.09.09,0,0,1,.09.09Z"/><path class="cls-3" d="M52.4,2.73A1.36,1.36,0,0,1,51,4.09H45.1a1.36,1.36,0,0,1-1.36-1.36V1.32h-.42V2.73A1.78,1.78,0,0,0,45.1,4.5H51a1.78,1.78,0,0,0,1.78-1.77V1.32H52.4Z"/><path class="cls-6" d="M53.16.18H43c-.11,0-.19.15-.19.34s.08.34.19.34h-.19v0h3.89V1a.31.31,0,0,0,.3.3h2.18a.31.31,0,0,0,.3-.3V.9h3.7c.11,0,.2-.15.2-.34v0C53.36.33,53.27.18,53.16.18Zm-4,.88a.07.07,0,0,1-.06.07h-2A.08.08,0,0,1,47,1.06V1a.08.08,0,0,1,.07-.07h2a.07.07,0,0,1,.06.07Z"/><path class="cls-4" d="M41,12H55.22a1.2,1.2,0,0,1,1.2,1.2v0a0,0,0,0,1,0,0H39.77a0,0,0,0,1,0,0v0A1.2,1.2,0,0,1,41,12Z"/><path class="cls-5" d="M42.14,5.44H54a1,1,0,0,1,1,1v0a0,0,0,0,1,0,0H41.14a0,0,0,0,1,0,0v0A1,1,0,0,1,42.14,5.44Z"/><path class="cls-6" d="M43.54.18H52.6a.76.76,0,0,1,.76.76v0a0,0,0,0,1,0,0H42.79a0,0,0,0,1,0,0v0A.76.76,0,0,1,43.54.18Z"/><text class="cls-7" transform="translate(40.66 24.26)">plastik</text></g></g></svg>