<svg xmlns="http://www.w3.org/2000/svg" viewBox="0 0 103.16 47.3"><defs><style>.cls-1{fill:#03a550;}.cls-2{fill:#fff;}.cls-3{fill:#601c23;}.cls-4{fill:#fbc3ad;}.cls-5{fill:#c2b59b;}.cls-6{fill:#046938;}.cls-7{fill:#be202e;}.cls-8,.cls-9{fill:#fcee1f;}.cls-9{stroke:#fcee1f;stroke-miterlimit:10;}.cls-10{opacity:0.43;}.cls-11{fill:#231f20;}</style></defs><g id="Layer_2" data-name="Layer 2"><g id="Isolation_Mode" data-name="Isolation Mode"><path class="cls-1" d="M14.28,28.24a3.65,3.65,0,0,0,3.65-3.62V21.11H13.46C4.27,21.11,0,27.59,0,33.13A12.91,12.91,0,0,0,13.24,45.61h1.1a3.74,3.74,0,0,0,2.55-.94,2.92,2.92,0,0,0,1-2.23,4,4,0,0,0-.51-2,8.3,8.3,0,0,1-1.18-4.07,6,6,0,0,1,1.69-4.25H13.07a4.28,4.28,0,0,0-4.53,4,3.72,3.72,0,0,0,.65,2.09,5.5,5.5,0,0,0,2.24,1.87,11.46,11.46,0,0,1,3.14,2,1.05,1.05,0,0,1,.31.68c0,.73-1,1.38-2.6,1.5h-.2c-2.63,0-7.78-3.57-7.78-8.43A8.08,8.08,0,0,1,5.85,31.3C7.81,28.44,11.8,28.44,14.28,28.24Z"/><path class="cls-1" d="M38.38,37.8s0,0,0,0c-.91-1.84-3.12-3.9-6.51-5.43a14,14,0,0,1-4.72-2.94A10.89,10.89,0,0,0,32,30.67a4.64,4.64,0,0,0,3.85-1.61,4.1,4.1,0,0,0,.59-1c0-.16-.08-.32-.11-.48a18.52,18.52,0,0,1-5.09-5.38c-.2-.32-.38-.65-.55-1H19.88c0,5.17,2.35,11.9,2.47,12.7a15.21,15.21,0,0,1,.19,2.48,17.24,17.24,0,0,1-2.66,9.11h7.25a7.75,7.75,0,0,0,1.44-4.64,10.88,10.88,0,0,0-2.18-6.25c-2.66-3.79-4.72-8.4-4.72-11.79v-.2c.62,2.72,3.31,6,4.52,7.27.85.82,6.56,5.35,6.68,9.73v.25A9.17,9.17,0,0,1,31,45.52H38.5a9.77,9.77,0,0,0,.79-3.87A8.46,8.46,0,0,0,38.38,37.8ZM22.63,22.07h4.58a3.84,3.84,0,0,1,3.91,3.65v.09a2.78,2.78,0,0,1-1.9,2.63,3,3,0,0,1-1,.17,3.33,3.33,0,0,1-2-.71C24.1,26.32,22.91,23.12,22.63,22.07Z"/><path class="cls-1" d="M66,21.23v2.1a14.49,14.49,0,0,0,1.77-2.1ZM77.7,22.81a15.12,15.12,0,0,0-6.36-1.58h0l-.12.22A17.54,17.54,0,0,1,67.58,26a9.06,9.06,0,0,1-.07.91,4.67,4.67,0,0,0,2,.7c2.12.2,5.68.37,7.55,2.66A8.87,8.87,0,0,1,79,35.88a9,9,0,0,1-.4,2.77c-1.41,4.64-6.5,5.88-7.66,6.05a2.86,2.86,0,0,1-.54,0,2.55,2.55,0,0,1-1.9-.68,2,2,0,0,1-.36-1.21,2.82,2.82,0,0,1,.5-1.62,13.28,13.28,0,0,1,3.71-2.74A5.4,5.4,0,0,0,74.82,34c0-2.17-1.53-4.27-5.69-4.27H67.29a10.38,10.38,0,0,1-.36,6.93,11.58,11.58,0,0,0-1,4.25,4.54,4.54,0,0,0,.06.9c.17,1.16.48,3.14,2.83,3.74a5,5,0,0,0,1.27.14h.4c8.2,0,12.7-7.39,12.7-12.45C83.22,28.86,81.92,25.27,77.7,22.81Z"/><path class="cls-1" d="M100.78,33.93c.12-.71,2.38-5.86,2.38-10.75a15.16,15.16,0,0,0-.14-1.95h-2.26a10.75,10.75,0,0,1-2.89,6.47A3.86,3.86,0,0,1,95.18,29a2,2,0,0,1-.93-.2,3.45,3.45,0,0,1-2-3.17,8.74,8.74,0,0,1,1.59-4.35H86A13.75,13.75,0,0,0,85.43,25c0,.31,0,.65,0,1a6.47,6.47,0,0,0,8.43,5.66c.34-.09.91-.31.91-.31,3.9-2.13,6.3-6.17,6.67-8,0,2.55-1.89,7.64-5,11.34-2.32,2.75-3,5-3,6.74a6,6,0,0,0,1.13,3.5h-.28c-1.7,0-4.3-.71-4.3-3.73a8.09,8.09,0,0,1,.06-.85,6.64,6.64,0,0,1,4.52-5.4,22.1,22.1,0,0,0-5.09-2.55,3.72,3.72,0,0,0-.9-.14c-2.18,0-3.6,2.43-3.94,4.7a7.52,7.52,0,0,0-.11,1.3c0,5.29,5.54,7.32,9.67,7.32H103a17.36,17.36,0,0,1-2.46-8.91A14.82,14.82,0,0,1,100.78,33.93Z"/><path class="cls-1" d="M32.75,7.29a6.18,6.18,0,0,1-1.21,2.29A15.22,15.22,0,0,1,32.75,7.29Z"/><path class="cls-1" d="M70.39,9.29a6.26,6.26,0,0,1-1.1-2.06A13.64,13.64,0,0,1,70.39,9.29Z"/><path class="cls-1" d="M70,14.42a11.86,11.86,0,0,1-2.18,6.81A14.49,14.49,0,0,1,66,23.33a16.59,16.59,0,0,1-1.46,1.29v1.11c0,3.12-2.33,5.83-5.75,7.14a.34.34,0,0,1,0,.1,7.41,7.41,0,0,1-.18,1.57l-.32.09a12.47,12.47,0,0,1-1.52.36h0a14.51,14.51,0,0,1-2.1.22h-.46l-4.73,0a14.76,14.76,0,0,1-1.77-.1h0c-.44-.06-.88-.13-1.31-.22a13.1,13.1,0,0,1-2.78-.9l-.23-.11a6.9,6.9,0,0,1,0-1.7c-2.56-1.44-4.23-3.75-4.24-6.36-4.34-2.65-7.12-6.73-7.12-11.31,0-.23,0-.46,0-.69C32.53,6.27,40.73.16,50.65,0h.41A22.29,22.29,0,0,1,64,3.88h.52v.39C67.85,6.87,70,10.45,70,14.42Z"/><path class="cls-2" d="M32.85,4.65A17.35,17.35,0,0,0,31,7.19a.68.68,0,0,1,.38.21c.64.74-1.15,3-1,3.1s.57-.29,1.09-.92a6.18,6.18,0,0,0,1.21-2.29A4.84,4.84,0,0,0,33,6,6.58,6.58,0,0,0,32.85,4.65Zm40,7.78-.16.22c-.92,1.31-1.42,3.82-.34,4.59a1.74,1.74,0,0,0,.34.16,14.25,14.25,0,0,0,.31-3A14.42,14.42,0,0,0,72.84,12.43ZM70.59,7.22a.68.68,0,0,1,.33-.2,16.29,16.29,0,0,0-1.79-2.49,6.48,6.48,0,0,0-.07,1.31,5.12,5.12,0,0,0,.23,1.39,6.26,6.26,0,0,0,1.1,2.06h0c.57.7,1.12,1.08,1.2,1S70,8,70.59,7.22ZM58.82,32.87a10.62,10.62,0,0,1-1.28.41,12.79,12.79,0,0,1-3.19.43h-.11l-4.67,0h-.06c-.28,0-.57,0-.84,0a12.17,12.17,0,0,1-2.6-.42,11.21,11.21,0,0,1-2.66-1.07,6.9,6.9,0,0,0,0,1.7A6.44,6.44,0,0,0,44,35.77h0c.26.1.52.19.79.27a15.63,15.63,0,0,0,1.7.42h0a15.86,15.86,0,0,0,3,.28h4.74a17.2,17.2,0,0,0,3.31-.35l.47-.11,0-.28h0a7.52,7.52,0,0,0,.54-1.46A7.41,7.41,0,0,0,58.83,33,.34.34,0,0,0,58.82,32.87Zm-29.44-20-.21-.27c-.05.36-.09.73-.11,1.1a14.41,14.41,0,0,0,.31,3.93,1,1,0,0,0,.39-.18C30.84,16.65,30.31,14.15,29.38,12.84Z"/><polygon class="cls-3" points="58.58 33.28 58.34 34.63 58.08 35.99 58.03 36.27 56.91 42.32 56.9 42.37 56.9 42.37 56.9 42.38 56.83 42.76 45.27 42.76 45.15 42.11 43.98 35.78 43.98 35.77 43.65 34.02 43.52 33.28 58.58 33.28"/><path class="cls-1" d="M33,6a4.84,4.84,0,0,1-.2,1.29,6.18,6.18,0,0,1-1.21,2.29c-.52.63-1,1-1.09.92s1.61-2.36,1-3.1A.68.68,0,0,0,31,7.19,4.34,4.34,0,0,0,28,8.35a2.93,2.93,0,0,0-1.16,2c0,1,.7,2,1.09,2,.17,0,.19-.26.4-.31s.65.26.87.53l.21.27c.93,1.31,1.46,3.81.38,4.58a1,1,0,0,1-.39.18,2.39,2.39,0,0,1-1,0c-3-.42-4.58-4.23-4.78-4.7a8.29,8.29,0,0,1-.73-3.54c0-1,.29-4.39,3-6.13C27.64,2.15,30.56,1.56,32,3a3,3,0,0,1,.82,1.61A6.58,6.58,0,0,1,33,6Z"/><path class="cls-1" d="M78.43,12.67c-.19.47-1.78,4.29-4.74,4.74a2.46,2.46,0,0,1-1,0,1.74,1.74,0,0,1-.34-.16c-1.08-.77-.58-3.28.34-4.59l.16-.22h0c.22-.27.6-.67.92-.59s.23.28.4.31c.39.06,1.11-1,1.07-2a2.88,2.88,0,0,0-1.18-2A4.25,4.25,0,0,0,70.92,7a.68.68,0,0,0-.33.2c-.63.75,1.18,3,1,3.1s-.63-.33-1.2-1h0a6.26,6.26,0,0,1-1.1-2.06,5.12,5.12,0,0,1-.23-1.39,6.48,6.48,0,0,1,.07-1.31,3.12,3.12,0,0,1,.81-1.66c1.47-1.49,4.38-.93,6.11.15,2.75,1.72,3,5.09,3.09,6.1A8.43,8.43,0,0,1,78.43,12.67Z"/><circle class="cls-4" cx="43.01" cy="16.19" r="5.98"/><circle class="cls-4" cx="59.85" cy="16.12" r="5.98"/><path class="cls-4" d="M51.31,12.4a11.51,11.51,0,0,1-4.87-1,6.65,6.65,0,0,1-3.09-2.57,3.84,3.84,0,0,1-.57-1.92v.52h.31V7.35a4.25,4.25,0,0,0,1.49,3.11,8.66,8.66,0,0,0,3.92,1.93,12.37,12.37,0,0,0,5.14.08,9.27,9.27,0,0,0,4.1-1.82,4.47,4.47,0,0,0,1.74-3c0-.18,0-.36,0-.55v.3h.31v-.3s0-.23,0-.09v.14l0,.22a3,3,0,0,1-.09.43,4,4,0,0,1-.33.83,5.17,5.17,0,0,1-1.16,1.47,9,9,0,0,1-4,2,11.88,11.88,0,0,1-2.91.35V13a11.65,11.65,0,0,0,5-1.1,6.55,6.55,0,0,0,3-2.74,3.82,3.82,0,0,0,.35-1,5.33,5.33,0,0,0,.09-1.13v-.3h-.31v.3s0-.23,0-.14V7a.49.49,0,0,1,0,.12,1.64,1.64,0,0,1,0,.22,3,3,0,0,1-.09.41,4,4,0,0,1-.31.77,5.08,5.08,0,0,1-1.13,1.4,8.76,8.76,0,0,1-3.84,1.88,12.52,12.52,0,0,1-5,.14A9.45,9.45,0,0,1,45,10.23a4.62,4.62,0,0,1-1.9-2.88,3,3,0,0,1,0-.43V6.83h-.31s0,.47,0,.51a4.53,4.53,0,0,0,1.54,3.28,9,9,0,0,0,4,2,13,13,0,0,0,3,.34S51.32,12.4,51.31,12.4Z"/><path class="cls-4" d="M60.34,9.47a6.52,6.52,0,0,0-6.14,4.08,6.12,6.12,0,0,0-.33,2.17,2.91,2.91,0,0,0,0,.3h.23v-.31c0,.32,0,0,0-.06a1.79,1.79,0,0,1,0-.23,3.11,3.11,0,0,1,.07-.44,5.23,5.23,0,0,1,1.11-2.3,6.32,6.32,0,0,1,2.92-1.95,6.77,6.77,0,0,1,6.89,1.64,5.24,5.24,0,0,1,1.48,3.5V16h.24s0-.47,0-.52A5.71,5.71,0,0,0,65.7,12a6.55,6.55,0,0,0-3.08-2.17,6.76,6.76,0,0,0-2.28-.36v.6a6.55,6.55,0,0,1,6.08,3.78,5.39,5.39,0,0,1,.44,2v-.51h-.24v.09a5.34,5.34,0,0,0-1.15-3.3,6.19,6.19,0,0,0-3-2,6.73,6.73,0,0,0-7,1.84,5.36,5.36,0,0,0-1,1.69,5.77,5.77,0,0,0-.32,2.06v-.3h-.23v.31c0,.31,0,0,0-.08a1.94,1.94,0,0,1,0-.24c0-.16,0-.32.07-.47a5.11,5.11,0,0,1,.25-.87,5.92,5.92,0,0,1,.9-1.56,6.5,6.5,0,0,1,3-2.07,6.9,6.9,0,0,1,2.2-.36S60.35,9.47,60.34,9.47Z"/><path class="cls-4" d="M42.25,10.15a6.57,6.57,0,0,1,6.08,3.78,5.19,5.19,0,0,1,.43,2v-.51h-.23v.09a5.34,5.34,0,0,0-1.15-3.3,6.24,6.24,0,0,0-3-2,6.73,6.73,0,0,0-7,1.84,5.47,5.47,0,0,0-1,1.69A5.76,5.76,0,0,0,36,15.79v-.3h-.24v.3c0,.32,0,0,0-.07s0-.16,0-.25,0-.31.08-.46a5.11,5.11,0,0,1,.25-.87A5.89,5.89,0,0,1,37,12.58a6.52,6.52,0,0,1,3-2.07,6.85,6.85,0,0,1,2.2-.36v-.6a6.51,6.51,0,0,0-6.15,4.08,6.33,6.33,0,0,0-.32,2.16v.31H36v-.31c0,.32,0,0,0-.06s0-.15,0-.23,0-.3.07-.44a5.54,5.54,0,0,1,.24-.82,5.27,5.27,0,0,1,.88-1.48,6.29,6.29,0,0,1,2.91-1.95A6.76,6.76,0,0,1,47,12.45,5.24,5.24,0,0,1,48.52,16V16h.23s0-.47,0-.52a5.71,5.71,0,0,0-1.17-3.44,6.52,6.52,0,0,0-3.07-2.17,6.84,6.84,0,0,0-2.28-.36S42.24,10.15,42.25,10.15Z"/><path class="cls-4" d="M51.06,19.58c-4.69,0-8.52-2.48-8.54-5.57h.32c0,2.92,3.7,5.28,8.22,5.26s8.19-2.41,8.18-5.33h.31C59.56,17,55.76,19.56,51.06,19.58Z"/><path class="cls-4" d="M51.33,16.14c-4.7,0-8.53-2.48-8.54-5.57h.31c0,2.92,3.7,5.28,8.23,5.26s8.19-2.42,8.17-5.34h.32C59.83,13.59,56,16.12,51.33,16.14Z"/><path class="cls-4" d="M51.33,17.7c-4.69,0-8.52-2.48-8.53-5.57h.31c0,2.92,3.7,5.28,8.22,5.26s8.19-2.42,8.18-5.34h.31C59.84,15.15,56,17.68,51.33,17.7Z"/><path class="cls-4" d="M50.3,28.35a29.46,29.46,0,0,1,.41,4.6.25.25,0,0,0,.49,0,29.93,29.93,0,0,0-.44-4.73.24.24,0,1,0-.46.13Z"/><path class="cls-5" d="M49,16.15A6,6,0,0,0,37,16.2Z"/><path class="cls-6" d="M44.49,16.14a2,2,0,0,0,4.08,0Z"/><path class="cls-6" d="M61,16.07a2,2,0,0,0,4.08,0Z"/><path class="cls-5" d="M65.82,16.15a6,6,0,0,0-11.93.05Z"/><rect class="cls-6" x="56.2" y="15.69" width="6.33" height="0.12" transform="translate(-0.07 0.26) rotate(-0.25)"/><rect class="cls-6" x="62.97" y="15.67" width="2.65" height="0.12" transform="translate(-0.07 0.28) rotate(-0.25)"/><rect class="cls-6" x="39.04" y="15.76" width="6.33" height="0.12" transform="translate(-0.07 0.19) rotate(-0.25)"/><rect class="cls-6" x="45.81" y="15.74" width="2.65" height="0.12" transform="translate(-0.07 0.21) rotate(-0.25)"/><path class="cls-2" d="M57.58,36.58V37.8a.3.3,0,0,1-.3.3h-.74c0,.15,0,.32,0,.47h0a.59.59,0,0,1,.18.44v.83a1.09,1.09,0,0,1-.18.55v0h0c0,.2,0,.39.07.59h-11c0-.24.06-.49.08-.74a1,1,0,0,1-.09-.39V39a.56.56,0,0,1,.11-.32c0-.21,0-.42,0-.62h-.75a.29.29,0,0,1-.3-.3V36.59a1,1,0,0,1,.45-.83,3.3,3.3,0,0,0-.19-.43h0a8.32,8.32,0,0,0,2.64-.89h8a8.19,8.19,0,0,0,1.9.72h0a5.39,5.39,0,0,0-.29.59A1,1,0,0,1,57.58,36.58Z"/><path class="cls-7" d="M56.91,42.38a15.24,15.24,0,0,1-5.41,1,15.08,15.08,0,0,1-6.12-1.29A9.4,9.4,0,0,0,45.61,41c0-.24.06-.49.08-.74a.93.93,0,0,0,.84.57,1,1,0,0,0,.93-1,.93.93,0,1,0,1.85,0,.92.92,0,1,0,1.84,0,.93.93,0,1,0,1.86,0,.93.93,0,1,0,1.85,0,1,1,0,0,0,.92,1,.91.91,0,0,0,.74-.41h0c0,.2,0,.39.07.59a8.17,8.17,0,0,0,.17.86,1,1,0,0,0,0,.17l.09.33A0,0,0,0,1,56.91,42.38Z"/><path class="cls-7" d="M57.42,35.17a5.39,5.39,0,0,0-.29.59,1,1,0,0,0-.38-.14h-.1a.91.91,0,0,0-.65.28,1,1,0,0,0-.27.69,1,1,0,0,0-1-1,1.1,1.1,0,0,0-.72.28,1,1,0,0,0-.29.69,1.32,1.32,0,0,0-1.29-1.28,1.27,1.27,0,0,0-.92.41,1.34,1.34,0,0,0-.38,1v1a.41.41,0,0,0,.41.41h1.79a.4.4,0,0,0,.39-.4.41.41,0,0,0,.42.4h1.19a.4.4,0,0,0,.42-.35.34.34,0,0,0,.32.35h.49c0,.15,0,.32,0,.47h0a.66.66,0,0,0-.43-.18h-.62a.63.63,0,0,0-.61.63.63.63,0,0,0-.63-.63h-.6A.63.63,0,0,0,53,39a.63.63,0,0,0-.63-.63h-.6a.63.63,0,0,0-.63.63.63.63,0,0,0-.61-.63h-.61a.63.63,0,0,0-.62.63.64.64,0,0,0-.63-.63h-.6a.63.63,0,0,0-.62.63.63.63,0,0,0-.63-.63h-.6a.59.59,0,0,0-.53.32c0-.22,0-.42,0-.62h.48a.33.33,0,0,0,.33-.35.39.39,0,0,0,.41.35h1.2a.4.4,0,0,0,.41-.4.4.4,0,0,0,.41.4h1.77a.4.4,0,0,0,.4-.41v-1a1.3,1.3,0,0,0-.37-1,1.23,1.23,0,0,0-.91-.41,1.33,1.33,0,0,0-1.3,1.28.93.93,0,0,0-.29-.69,1.07,1.07,0,0,0-.71-.28,1,1,0,0,0-1,1,1,1,0,0,0-.28-.69.91.91,0,0,0-.66-.28,1.1,1.1,0,0,0-.36.07s-.06.06-.11.07a2.76,2.76,0,0,0-.2-.43,8.32,8.32,0,0,0,2.64-.89,8.82,8.82,0,0,0,4-4.39,8.79,8.79,0,0,0,4,4.39,8.19,8.19,0,0,0,1.9.72Z"/><path class="cls-4" d="M58.83,33a7.41,7.41,0,0,1-.18,1.57A7.52,7.52,0,0,1,58.11,36h0a5.74,5.74,0,0,0-.9-.34,10.65,10.65,0,0,0-2.48-.44h0c-1.36-.1-2.77,0-4.17,0-1,0-1.89,0-2.79,0h0a10.58,10.58,0,0,0-2.81.3h0a7,7,0,0,0-.94.33h0a6.44,6.44,0,0,1-.54-1.86,6.9,6.9,0,0,1,0-1.7,7.87,7.87,0,0,1,.74-2.53,6,6,0,0,1,1.46-1.91h0l.28-.23,0-.07h0s0-.06,0-.08a2.85,2.85,0,0,1-.11-.39,2.56,2.56,0,0,1,0-.27h0a4.63,4.63,0,0,1-.05-.82,2.69,2.69,0,0,1,1.31-2.37,2.45,2.45,0,0,1,.78-.29l.27,0h.48a4.2,4.2,0,0,1,1.76.55,4.35,4.35,0,0,1,.57.38,5,5,0,0,1,.56-.38,5,5,0,0,1,1.16-.47l.09,0,.08,0a2.91,2.91,0,0,1,.4-.05h.28a2.63,2.63,0,0,1,1.29.32,2.26,2.26,0,0,1,.65.53h0A3,3,0,0,1,56,26.13a4.48,4.48,0,0,1-.1.81.24.24,0,0,1,0,.08,1.33,1.33,0,0,1,0,.19l0,.1c.19.14.37.27.54.42h0l.25.22.1.1h0a6.8,6.8,0,0,1,2.15,4.82A.34.34,0,0,1,58.83,33Z"/><path class="cls-6" d="M48.39,26.28a1.46,1.46,0,0,1,1.5.72,2.72,2.72,0,0,0-.07-.93c-.28-1.07-1.13-1.77-1.9-1.57A1.8,1.8,0,0,0,47,26.8a2.5,2.5,0,0,0,.39.84A1.46,1.46,0,0,1,48.39,26.28Z"/><path class="cls-6" d="M53.44,26.41a1.46,1.46,0,0,0-1.5.73,2.49,2.49,0,0,1,.07-.93c.26-1.07,1.11-1.78,1.88-1.58s1.17,1.21.9,2.28a2.54,2.54,0,0,1-.38.85A1.45,1.45,0,0,0,53.44,26.41Z"/><path class="cls-8" d="M48,23.2a3.88,3.88,0,0,0-1.09-2.47,4,4,0,0,0-1.47-1h0a3.89,3.89,0,0,0-1.23-.23h-.1a3.89,3.89,0,0,0-2.06.58h0a3.93,3.93,0,0,0-1.43,1.54,3.68,3.68,0,0,0-.15.35h0a5,5,0,0,0-.2.69,4.9,4.9,0,0,0-.07.67v.07a4.91,4.91,0,0,0,0,.55,3.64,3.64,0,0,0,.16.67A3.94,3.94,0,0,0,45.73,27,4,4,0,0,0,47,26.11a3.86,3.86,0,0,0,.89-1.58A3.81,3.81,0,0,0,48,23.45,2.18,2.18,0,0,0,48,23.2Zm-1,2.43a3.8,3.8,0,0,1-1.32,1.1l-.18.07,0,0a3.62,3.62,0,0,1-1.44.27l-.35,0h-.13a3.61,3.61,0,0,1-2.08-1l0,0a3.64,3.64,0,0,1,2.66-6.17,3.51,3.51,0,0,1,1.42.3,3.61,3.61,0,0,1,2.19,3.13v.22a3.55,3.55,0,0,1-.23,1.28A3.64,3.64,0,0,1,47,25.63Z"/><path class="cls-9" d="M61.3,21.92a4.59,4.59,0,0,0-4.31-3,4.5,4.5,0,0,0-2.13.52,4.58,4.58,0,0,0-2.42,3.49H48.62a4.59,4.59,0,0,0-4.84-4A4.66,4.66,0,0,0,40,21.36a4.46,4.46,0,0,0-.52,1.95A4.6,4.6,0,0,0,44.08,28a4.56,4.56,0,0,0,1.53-.27h0a4.47,4.47,0,0,0,1.46-.86h0a4.56,4.56,0,0,0,1.46-2.39,4,4,0,0,0,.11-.78h3.77A4.85,4.85,0,0,0,52.67,25a4.54,4.54,0,0,0,.81,1.4,4.44,4.44,0,0,0,.77.73l.37.25h0a4.5,4.5,0,0,0,2.05.65h.53a4.61,4.61,0,0,0,4.37-4.45A4.46,4.46,0,0,0,61.3,21.92ZM48.38,23.46a4.17,4.17,0,0,1-.12,1A4.23,4.23,0,0,1,47,26.62a4.12,4.12,0,0,1-1.16.77,4.44,4.44,0,0,1-1.79.37,4.27,4.27,0,0,1-4.11-3.07,4.13,4.13,0,0,1-.14-.63,6,6,0,0,1,0-.61v-.07a4,4,0,0,1,.05-.6,4.13,4.13,0,0,1,.42-1.3,4.31,4.31,0,0,1,8.14,1.71A2.44,2.44,0,0,1,48.38,23.46Zm7-4,.08,0,.09,0h0l.15,0,.11,0a3.86,3.86,0,0,1,.49-.1l.12,0h.13l.25,0h.51l.19,0,.14,0,.21,0,.08,0,.08,0,.14,0,.13,0,.18.06.2.08.09,0A4.24,4.24,0,0,1,61,22h0a4.15,4.15,0,0,1,.26,1.5A4.27,4.27,0,0,1,57,27.78a4.62,4.62,0,0,1-.65-.05h0a4.39,4.39,0,0,1-1.6-.58,4.3,4.3,0,0,1-1.83-2.31,4.41,4.41,0,0,1-.21-1.37v-.24a4.1,4.1,0,0,1,.06-.49,3.3,3.3,0,0,1,.15-.62,3.71,3.71,0,0,1,.22-.55A4.22,4.22,0,0,1,55,19.63l.18-.09Z"/><path class="cls-8" d="M60.63,22A3.88,3.88,0,0,0,57,19.56a4,4,0,0,0-1.74.39,3.9,3.9,0,0,0-1.75,1.68,4.66,4.66,0,0,0-.26.61,4.15,4.15,0,0,0-.14.61c0,.11,0,.22,0,.33a2.71,2.71,0,0,0,0,.29v.07a4.1,4.1,0,0,0,.18,1.12,4,4,0,0,0,1.58,2.09,4.19,4.19,0,0,0,1,.46,4.08,4.08,0,0,0,1.16.18,3.91,3.91,0,0,0,3.93-3.91A3.84,3.84,0,0,0,60.63,22Zm-2.75,5h0a3.18,3.18,0,0,1-.92.11,3.49,3.49,0,0,1-1.08-.17,3.29,3.29,0,0,1-1-.5,3.65,3.65,0,0,1-1.53-3,2.64,2.64,0,0,1,0-.29,3.63,3.63,0,0,1,2.09-3h0A3.82,3.82,0,0,1,57,19.83a3.62,3.62,0,0,1,2.45,1,3.69,3.69,0,0,1,.89,1.27,3.9,3.9,0,0,1,.27,1.42A3.62,3.62,0,0,1,57.88,27Z"/><path class="cls-6" d="M50.75,27.84c0,.18,0,.37.07.55v.55q0,.55,0,1.11c0,.36,0,.73,0,1.1v.55c0,.19,0,.37-.08.55,0-.18,0-.37,0-.55v-.55c0-.37,0-.74,0-1.1V28.39A5.11,5.11,0,0,1,50.75,27.84Z"/><g class="cls-10"><circle class="cls-11" cx="44.07" cy="23.45" r="4.4"/></g><g class="cls-10"><circle class="cls-11" cx="56.99" cy="23.57" r="4.4"/></g><path class="cls-8" d="M41.43,22.6l3.8-.41-.08.61-3.74.4,0,.68L45,23.5l-.06.67-3.26.35c.11,1.23,1.8,2.21,3.72,1.41a.4.4,0,0,1,.56.32h0a.4.4,0,0,1-.19.39,3.79,3.79,0,0,1-5.27-2l-.84,0a2.15,2.15,0,0,1,0-.61c.18-.05.46-.07.64-.11l-.07-.6h-.67l.08-.58.61-.11a3.37,3.37,0,0,1,2.35-2.85,4.38,4.38,0,0,1,2.63-.19.41.41,0,0,1,.29.43v0a.39.39,0,0,1-.5.34,3,3,0,0,0-2.67.44A2.08,2.08,0,0,0,41.43,22.6Z"/><path class="cls-8" d="M54.77,21.92l3.74.81-.27.55-3.67-.79-.18.65,3.53.77-.27.62-3.2-.7c-.29,1.21,1,2.67,3.08,2.51a.4.4,0,0,1,.43.49h0a.41.41,0,0,1-.31.32,3.79,3.79,0,0,1-4.37-3.55l-.81-.23c.1-.2,0-.48.11-.66.19,0,.51.15.7.17l.12-.59-.64-.21.26-.52.62.09a3.36,3.36,0,0,1,3.12-2,4.36,4.36,0,0,1,2.56.65.39.39,0,0,1,.13.49v0a.4.4,0,0,1-.59.17,3.08,3.08,0,0,0-2.67-.43A2.18,2.18,0,0,0,54.77,21.92Z"/><path class="cls-4" d="M45.38,42a1.22,1.22,0,0,0-.67,1.87,7.77,7.77,0,0,0,12.67.27,1.23,1.23,0,0,0-.59-1.89A19.35,19.35,0,0,0,45.38,42Z"/><path class="cls-6" d="M56.54,38.11c0,.15,0,.32,0,.47h0c0-.15,0-.32,0-.46Z"/><path class="cls-6" d="M56.6,41a8.17,8.17,0,0,0,.17.86A6.23,6.23,0,0,1,56.6,41v0a5,5,0,0,1-.07-.56h0C56.55,40.62,56.57,40.81,56.6,41Z"/><path class="cls-6" d="M56.81,42l.09.33h0C56.86,42.26,56.84,42.15,56.81,42Z"/></g></g></svg>