<svg xmlns="http://www.w3.org/2000/svg" viewBox="0 0 84.95 73.84"><defs><style>.cls-1{fill:#057755;}.cls-2{fill:#062b26;}.cls-3{fill:#f5f6f6;}.cls-4{fill:#f5d7a0;}.cls-5{fill:#191919;}.cls-6{fill:#a27e2d;}.cls-7,.cls-8{fill:#fff;}.cls-8{font-size:12.06px;font-family:JerseyM54, Jersey M54;letter-spacing:0.2em;}</style></defs><g id="Layer_2" data-name="Layer 2"><g id="Isolation_Mode" data-name="Isolation Mode"><path class="cls-1" d="M41.37,2.26c-17.66,0-32,15.14-32,33.83s14.31,33.83,32,33.83,32-15.15,32-33.83S59,2.26,41.37,2.26Zm0,65.56c-16.48,0-29.88-14.23-29.88-31.73S24.89,4.35,41.37,4.35,71.25,18.59,71.25,36.09,57.84,67.82,41.37,67.82Z"/><path class="cls-2" d="M41.37,4.35c-16.48,0-29.88,14.24-29.88,31.74s13.4,31.73,29.88,31.73S71.25,53.59,71.25,36.09,57.84,4.35,41.37,4.35Zm0,59.28c-14.18,0-25.71-12.36-25.71-27.54S27.19,8.55,41.37,8.55s25.7,12.35,25.7,27.54S55.54,63.63,41.37,63.63Z"/><ellipse class="cls-2" cx="41.37" cy="36.14" rx="26.37" ry="28.48"/><path class="cls-1" d="M22.4,21a2.48,2.48,0,0,1-.09-.68A4.79,4.79,0,0,1,22.87,18c0-.33,0-.67,0-1a29,29,0,0,0-7,23.19l1.94-1.38a26.27,26.27,0,0,1-.14-2.68A26.58,26.58,0,0,1,22.4,21Z"/><path class="cls-1" d="M53.71,12c0,.65,0,1.3-.06,1.93.06.16.13.33.2.49A25.11,25.11,0,0,1,65.07,35.15a7.9,7.9,0,0,1,2,1v0A27.88,27.88,0,0,0,53.71,12Z"/><path class="cls-3" d="M57.09,46.3a2.08,2.08,0,0,0,.45-1.15,9.45,9.45,0,0,0-.62-4.54c-.82-1.88-.24-3.89-.71-5.79.68,1.43.56,3,.75,4.53a.45.45,0,0,0,.35-.39,9.89,9.89,0,0,0-.2-4.19,25.86,25.86,0,0,0-1.85-4.21h0c-.18-.07-.37-.13-.2-.37-.3.09-.3-.17-.39-.34s-.3-.13-.13-.29.2,0,.27.1l.36.35.62-.17c.24-.87-.4-1.49-.78-2.3.7.1.95.85,1.6.71A3.72,3.72,0,0,0,53,25.54a6,6,0,0,1-1.84,0,2.71,2.71,0,0,0-2.6.73,1.78,1.78,0,0,1-2.06.27,4.83,4.83,0,0,0-2.18-.21c-1.89,0-3.66.92-5.57.7a1.16,1.16,0,0,0-1.07.61,14.51,14.51,0,0,1-1.82,2.09,2.41,2.41,0,0,1-2.76.42c-1-.44-1.93-1-1.93-2.3a6.54,6.54,0,0,0-.59-2.49A6.36,6.36,0,0,1,30,20.9a.88.88,0,0,0-.31-1,2.54,2.54,0,0,1-.81-2,1.92,1.92,0,0,0-.7-1.63c-.51-.45-1.05-.85-1.6-1.29a10.11,10.11,0,0,1-2.13,2.62,2.71,2.71,0,0,0-.86,2.67,4.75,4.75,0,0,1,0,1.55c-.1,1.16-.56,2.34,0,3.49A1.15,1.15,0,0,0,24.44,24a2.79,2.79,0,0,1,.43-2.26,6.93,6.93,0,0,0,1.21-2.23c.13-.3.13-.91.59-.78s.52.71.42,1.19A2.39,2.39,0,0,1,26.47,21a8.8,8.8,0,0,0-1.06,1.59c-.26.49-.46,1.23,0,1.42a1.62,1.62,0,0,0,1.95-.4c.44-.56.94-1.08,1.46-1.67a1.13,1.13,0,0,1-.06,1c-1.37,1.45-.51,2.83.08,4.23.15.37.3.73.67.82s.09-.57.6-.59a6.7,6.7,0,0,0,.95,2.6,1.44,1.44,0,0,1,.21.88c-.4,1.42.55,2.82,0,4.24a.42.42,0,0,0,.3.52c.33.1.29-.24.36-.41a3,3,0,0,1,.93-1.4,2.52,2.52,0,0,1-.42,1.89,4.93,4.93,0,0,0-.56,3.38c0,.19,0,.47.27.53s.32-.13.45-.26a6.18,6.18,0,0,0,1.82-3.15A9,9,0,0,1,35,34.39a1.92,1.92,0,0,1,1.58-1.27,5.74,5.74,0,0,0-1.52,3.72,4.06,4.06,0,0,1-.86,2.31,3.49,3.49,0,0,0-1,3.05c0,.16-.18.35.06.48s.26-.18.4-.24.13-.35.4-.32c.2,1-.14,2.08.17,3.08.59,2,.77,2.22,1.57,2.48a20.07,20.07,0,0,1-.8-2.94,5.53,5.53,0,0,1,.45-3,2.75,2.75,0,0,1,.28,1.53,14.81,14.81,0,0,0,.79,5A9.13,9.13,0,0,1,37,52.6a5.14,5.14,0,0,0,1.4,4.25,1.16,1.16,0,0,0,1.09.33c.47-.08.27-.56.26-.85,0-.71-.13-1.41-.19-2.11a2.74,2.74,0,0,1,.53-2.41c.19,1.61.43,3.09.51,4.57a4.39,4.39,0,0,0,.69,2,.57.57,0,0,0,.7.31c.33-.1.18-.42.17-.64,0-.84-.07-1.68-.11-2.6a.64.64,0,0,1,.54.67c0,1.35.41,2.64.58,4,0,.17-.06.43.19.46s.36-.22.35-.45c-.13-2.21,1-4.1,1.54-6.14.05-.18,0-.46.37-.46.07,2.23-1.52,4.2-1.05,6.53h0a2,2,0,0,0,.37,1.59,3.18,3.18,0,0,0,1.92.46,10.79,10.79,0,0,0,2.34-.14c.69-.13,1.22-1.59,1.16-2.5a4,4,0,0,0-.13-1,7.23,7.23,0,0,0-.72-1.89A9.84,9.84,0,0,1,48.75,55,3.61,3.61,0,0,1,49,52.17c.67,3.36.92,4,2,4.7-.82-3.34,1.11-6.3.66-9.67a2.74,2.74,0,0,1,.88,2.06,11.7,11.7,0,0,1-.45,3.28c-.39,1.51,0,3-.11,4.55a3.14,3.14,0,0,0,1-2.67,6.12,6.12,0,0,1,.14-1.28c.05-.31.1-.66.59-.73,0,.85,0,1.65,0,2.45,0,.17-.1.39.11.5s.41,0,.59-.16a1.94,1.94,0,0,0,.82-2.48,3.43,3.43,0,0,1-.32-2.45A6.24,6.24,0,0,0,56,52.53c.32.57.63.44.81-.08a6.16,6.16,0,0,0-.22-5,12.51,12.51,0,0,0-1.46-2.35c-1.13-1.3-.78-2.74-.59-4.19,0-.18.09-.36.46-.27C54.32,43,56.25,44.35,57.09,46.3ZM37.84,44.48a.24.24,0,0,1-.31.24c-.19,0-.21-.21-.21-.36a5,5,0,0,1,.81-2.94C38.3,42.48,37.7,43.44,37.84,44.48ZM39,36.22a.24.24,0,0,1-.31.25.24.24,0,0,1-.17-.28,4.82,4.82,0,0,1,1.24-3.53C39.78,34,39.06,35,39,36.22Zm4.27,3.06a12.76,12.76,0,0,1-.6,3.06c-.34,1.13-.72,2.29,0,3.44.06.09.12.26,0,.32a.53.53,0,0,1-.35,0,1.2,1.2,0,0,1-.83-1.46,12.37,12.37,0,0,1,.43-2.06,21.5,21.5,0,0,0,.89-4c0-.21-.06-.51.24-.51s.27.3.28.51S43.23,39,43.23,39.28Zm4.39,8c-.6-1.37-.72-2.78-1.21-4.1C47.42,43.33,48.21,45.89,47.62,47.25Zm-.28-11.37c-1.56.47-3-.4-3.89-2.1a26.55,26.55,0,0,1-1-3c-.1-.29-.11-.62-.49-.76-.41.45-.18,1.13-.56,1.59a2,2,0,0,1,.94-2.93A14.9,14.9,0,0,1,46,28.17,5.73,5.73,0,0,0,49.7,27.1a4.28,4.28,0,0,1,.89-.49c.47-.21.65,0,.55.47a1.94,1.94,0,0,1-.49.87c-1.15,1.24-1,3.09.72,3.56.4.1.45.43.23.76A8,8,0,0,1,47.34,35.88Zm3.89-.25c-.07-.14-.18-.46.17-.47s.33.3.33.47a13.27,13.27,0,0,1-.14,1.4c0,.15-.16.23-.26.16s-.09-.45-.16-.81C51.13,36.22,51.41,36,51.23,35.63Zm1.3,4.15c-.17.2-.41.06-.59-.05a1.82,1.82,0,0,1-.65-2.23,3.28,3.28,0,0,0,1,1.77C52.46,39.4,52.73,39.53,52.53,39.78Z"/><path class="cls-3" d="M54.3,29.29l-.12.06s0,.06.06.06a.52.52,0,0,0,.13-.06Z"/><path class="cls-4" d="M50.79,16.36a.61.61,0,0,1-.53-.05,2.51,2.51,0,0,0-1.8-.21,6.87,6.87,0,0,1-1.2,0c-.49-.06-.62-.37-.37-.79a1.54,1.54,0,0,1,.65-.64c1.44-.7,2.86-1.52,4.57-1,.22.07.59.19.64-.27a8.44,8.44,0,0,0,0-3.84c-1.3-3.63-4-6.07-7.15-8.07C43.4.17,41,.09,38.48,0c-3.95-.13-6.74,1.69-9.06,4.61a14.59,14.59,0,0,0-3,7.2c-.22,1.47-.06,2,1.32,2.62a3.18,3.18,0,0,1,1.71,2.3c.28,1,.25,2.05.94,2.83a1.44,1.44,0,0,1,.37,1.61A3,3,0,0,0,31,23.9a13,13,0,0,1,.67,2.68,8.79,8.79,0,0,0,.41,1.7,2.05,2.05,0,0,0,2.85,1,9.84,9.84,0,0,0,2.33-1.9,3.1,3.1,0,0,1,3.28-1.35c.82.16,1.08-.18,1.11-.95a1.53,1.53,0,0,1,1.49-1.56c0,.24-.14.29-.25.37a1.21,1.21,0,0,0-.36,1.5c.21.55.77.43,1.22.4s1.19-.34,1.64-.16a3.69,3.69,0,0,0,4.14-.76c.68-.59.91-.85.18-1.49a5,5,0,0,0-1.35-.81,4.53,4.53,0,0,1-1.54-1,1.91,1.91,0,0,1,.49-3.06c-.53,1.85-.25,2.45,1.43,3.33.57.3,1.13.63,1.69,1a1,1,0,0,1,.57,1c-.2,1.12.37,1.22,1.24,1a1.49,1.49,0,0,1,.55-.07c.8.08,1-.38,1-1.05a12.81,12.81,0,0,0-1.15-6.1C52.34,16.74,52,15.87,50.79,16.36ZM43.7,10.45a4.4,4.4,0,0,0,4.48-.38l.08,0c.48-.14,1.16-.72,1.38-.31s-.65.38-1,.67c-1.63,1.48-3.48,1.4-5.36.6a4.78,4.78,0,0,0-4,.21A4.49,4.49,0,0,1,43.7,10.45ZM39,20.84a.37.37,0,0,1-.57,0,.53.53,0,0,1,.05-.67,1.75,1.75,0,0,1,2.79.31A2.24,2.24,0,0,0,39,20.84ZM44.74,16c-.25.57-3.32,2.8-3.93,2.75a.75.75,0,0,1-.5-.19c-.58-.77-1-.64-1.65,0s-1,.56-1.49-.52c-.4.16-.79.34-1.19.49-1.14.43-1.32.32-1.44-.92L34,17.7c-.8.16-1.25-.34-1-1.11a2.41,2.41,0,0,1,1-1.28c1.8-1,3.65-1.63,5.75-.92,1.42.48,2.85,1.16,4.41.52.21-.09.39,0,.43.19S44.89,15.64,44.74,16ZM45,13.06a10.32,10.32,0,0,0-4.85-.26A3.48,3.48,0,0,1,43,12.09a10.9,10.9,0,0,1,1.28.15c1.47.3,2.87.37,4.09-.73a.78.78,0,0,1,.73-.28A3.38,3.38,0,0,1,45,13.06Zm3.46,6.29c.53-1.46.71-1.51,2.55-.67A10,10,0,0,0,48.43,19.35Z"/><path class="cls-1" d="M38.13,58.29c-1.31-3.6-2.54-7.22-4.1-10.72a98.74,98.74,0,0,0-5.34-10.82c-.42-.71-.41-1.14.3-1.57.26-.16.72-.37.55-.74s-.61-.16-.94-.1a4.77,4.77,0,0,0-.7.23c-1.35.47-2.7,1-4.07,1.39a13,13,0,0,0-5.21,2.89C17,40.4,14.8,41,13.1,42.65a1.11,1.11,0,0,0,0-.19,5.26,5.26,0,0,1-.58.45l-.58.39a27,27,0,0,0,.84,3.59,38.16,38.16,0,0,0,2.62,6.26A30.68,30.68,0,0,0,19,58.27a.94.94,0,0,0,.18.17,20.23,20.23,0,0,1-1.86-2.85,1.68,1.68,0,0,1-.26-.27,33.46,33.46,0,0,1-4.47-9.73,1.07,1.07,0,0,1,.28-1.17A1.41,1.41,0,0,1,14,43.66c.2-.09.45-.17.77-.28a3,3,0,0,1,3.88,1.33,8.07,8.07,0,0,1,.7,2c.38,1.64.69,3.31,1,5,.34.55-.15,1.29.44,1.78a7.9,7.9,0,0,0,.08-5.93c-.44-1.15-.76-2.35-1.09-3.54-.09-.33-.23-.87.2-1s.27.43.37.68c0,.08.12.14.17.22a51.66,51.66,0,0,1,3,6,98.44,98.44,0,0,1,3.67,9.55,3.14,3.14,0,0,0,.94,1.32c.39.37.68.05,1-.07s.26-.44.17-.69c-.41-1.24-.84-2.48-1.26-3.72-.72-2.17-.93-2.09,1.27-2.65.28-.08.76,0,.55-.6s-.3-.81-.9-.58a6,6,0,0,1-1.17.28.51.51,0,0,1-.63-.41.48.48,0,0,1,.32-.59,6.25,6.25,0,0,1,.6-.24c1.07-.34,1.05-.34.55-1.34a.54.54,0,0,0-.79-.33,6.44,6.44,0,0,1-1.17.28.48.48,0,0,1-.62-.4.53.53,0,0,1,.37-.65c.3-.11.6-.16.89-.27s.71-.14.46-.67-.35-.62-.83-.43-1.23.41-1.85.61c-.37.12-.79.21-.95-.24-.45-1.19-.85-2.4-1.24-3.62a.52.52,0,0,1,.36-.66.54.54,0,0,1,.75.33,3.62,3.62,0,0,1,.25,1c.26,1.74.78,2.08,2.15,1.56.48-.18.55-.35.34-.79-.5-1-1-2-1.44-3.06-.18-.37-.24-.65.26-.85s.92,0,.95.37c.1,1,.8,1.76,1.15,2.66.47,1.22.53,1.2,1.76.57L29.1,43.4c-.06-.63-.52-1.11-.7-1.69-.09-.29-.17-.59.12-.74a.6.6,0,0,1,.87.23,3.94,3.94,0,0,1,.39.61l1,2.19c.95,2.12.95,2.12-1.29,2.88L29.3,47c-.31.11-.67.17-.44.68s.4.58.85.39.76-.25,1.15-.37a.54.54,0,0,1,.75.34.57.57,0,0,1-.37.74,4.52,4.52,0,0,1-.62.21c-1.06.35-1,.38-.58,1.39.28.58.73.3,1.11.38s1.26-.35,1.4.28-.69.7-1.18.85-.59.42-.2.84a.93.93,0,0,0,1,.25c.42-.11.84-.2,1.25-.33a.76.76,0,0,1,1.08.55q.9,2.4,1.84,4.78c.16.39.19.74-.24.94s-.69,0-.84-.45c-.29-.74-.57-1.49-.87-2.23s-.43-1.51-1.45-.7c-.3.24-.86.13-.6.85s.61.57,1.06.39.68-.12.85.25a.56.56,0,0,1-.38.82c-1.12.13-.74.76-.53,1.36a3.52,3.52,0,0,1,.18.71.53.53,0,0,1-.39.65.54.54,0,0,1-.67-.35,8,8,0,0,1-.4-1.13c-.13-.45-.35-.7-.87-.56-.35.09-.7.06-.81-.38s.17-.63.52-.72.49-.24.35-.59-.15-.64-.61-.49a.57.57,0,0,1-.77-.32.56.56,0,0,1,.28-.78c.28-.13.36-.29.06-.44s-.72.11-1.05.23-.08.44,0,.65c.22.71.51,1.39.7,2.1.34,1.27.55,2.56,1.89,3.3,1.07.58,1.2,1.74,1.37,2.81a1.68,1.68,0,0,0,1,1.43,20.4,20.4,0,0,1,.65-3.13,2.57,2.57,0,0,1,2.45-2.07c.5,0,1,.06,1.52.09C38.49,59.51,38.34,58.88,38.13,58.29Z"/><path class="cls-1" d="M72.2,41.18a4,4,0,0,1-.55-.45c-1-1-2.55-1.25-3.35-2.46a5,5,0,0,0-2.49-2,37.81,37.81,0,0,0-7-1.45c-.34-.05-.76,0-.88.35s.28.43.49.58a5.11,5.11,0,0,1,2.26,5A51.07,51.07,0,0,1,60,46.42c-.62,2.66-1.21,5.34-1.89,8-.09.32-.47.75.13.88s1.2.22,1.32-.47c.21-1.15.77-2.17,1-3.3.35-1.65.39-1.65,2.06-1.23.29.08.56.12.63-.27s.22-.63-.31-.67a1.27,1.27,0,0,1-.59-.17c-.3-.22-.8-.38-.63-.88s.56-.3.93-.2c.73.2,1.17-.21,1.07-.91s-.63-.38-.94-.58-.89-.1-.71-.64.6-.44,1-.32l.36.09c.27.1.51.1.55-.24s.17-.57-.25-.68-1-.27-1.5-.44c-.25-.09-.59-.14-.62-.48A11.91,11.91,0,0,1,62,40.44c.05-.24.26-.31.51-.28a.4.4,0,0,1,.35.46q0,.6-.09,1.2c-.2,1.53-.19,1.54,1.35,2a23.3,23.3,0,0,0,.64-3.31c.07-.35.17-.6.57-.56s.33.35.37.63c.16.89-.36,1.65-.46,2.49-.14,1.11,0,1.32,1,1.35A3.16,3.16,0,0,0,66.51,43c-.08-.38.16-.49.45-.15.06-.28.12-.54.17-.82s.17-.71.61-.64.42.4.37.73c-.13,1-.27,2-.42,3-.08.52-.36.75-.91.58s-.84-.25-1.26-.35c-.24-.06-.5-.13-.55.26s-.12.56.26.68l.71.21c.39.11.87.22.66.77s-.62.32-.95.18c-.86-.38-1.05,0-1.11.79s.44.7.85.85.78.23.66.72-.55.34-.92.26-.72-.53-.95.19.3.69.67.85a2.25,2.25,0,0,0,.44.14c.94.19,1.22.73.89,1.61a3.25,3.25,0,0,0-.12.54c0,.24-.24.51,0,.69s.52,0,.79-.09.37-.44.46-.72c.56-1.95.62-4,1-6a29.14,29.14,0,0,0,.47-6c0-.71.14-.91.8-.47a21.06,21.06,0,0,1,3,2.51,1,1,0,0,1,.22,1,28.7,28.7,0,0,1-1,3.55,40.06,40.06,0,0,1-2.32,5.15c1.5,0,1.68,0,1.78-.59a6.09,6.09,0,0,1,.55-1.34,31.81,31.81,0,0,0,2.42-7.61A9.89,9.89,0,0,1,72.2,41.18Z"/><path class="cls-4" d="M30,32c-.2-.12-.43-.21-.64-.34s-.41-.21-.41-.32c0-1.15-.76-1.34-1.67-1.4-.22,0-.43-.15-.38-.42a.34.34,0,0,1,.49-.27c.42.16.63.13.62-.39,0-.31.25-.4.52-.38s.33.3.31.54-.1.37-.09.55a2.48,2.48,0,0,0,1,1.6c.13.11.34.12.4,0A1.85,1.85,0,0,0,30,29.47a3.32,3.32,0,0,0-.82-1.21,4.06,4.06,0,0,1-1.35-1.59c-.14-.26-.3-.63-.69-.42s-.73.52-.58,1a2.13,2.13,0,0,0,.37.63c.18.27.53.53.13.85s-.67.08-.95-.2c-.75-.76-.53-1.8.57-2.65.22-.17.51-.3.41-.64s-.39-.45-.72-.48a2.28,2.28,0,0,0-1.42.3,2.69,2.69,0,0,0-1.25,2.72,3.43,3.43,0,0,0,2.43,3.43,7.16,7.16,0,0,1,3.06,1.94c.22.27.4.65.79.66a.52.52,0,0,0,.45-.51C30.39,32.87,30.55,32.34,30,32Z"/><path class="cls-3" d="M53.63,15.58c.15-.86-.33-1.08-1-1.13a7.37,7.37,0,0,1-.82-.13c-1.66-.31-3,.59-4.38,1.22,1.32.12,2.57-.2,3.89,0,.75.11,1.25.14,1.56.85a3.4,3.4,0,0,0,.42.71c.11.15.21.45.47.31a.54.54,0,0,0,.2-.58C53.86,16.39,53.54,16,53.63,15.58Z"/><path class="cls-1" d="M64.84,53.81c.13.53,0,.81-.53.72s-1,0-1-.7c0-.29.06-.71.5-.55S64.79,53.21,64.84,53.81Z"/><path class="cls-1" d="M61.81,52.51c.18.11.37.21.55.34s.13.43.07.66-.27.29-.5.2a.79.79,0,0,0-.69.15l-.2-.09a3.81,3.81,0,0,1,.4-1.63C61.47,52.35,61.54,52.53,61.81,52.51Z"/><path class="cls-1" d="M61.81,52.51c-.27,0-.34-.16-.37-.37.24-1,.24-1,1.28-.55C62.47,52,61.65,51.76,61.81,52.51Z"/><path class="cls-1" d="M66.51,43a3.16,3.16,0,0,1-.23,1.47c.28.2.49.22.53-.2L67,42.81C66.67,42.47,66.43,42.58,66.51,43Z"/><path class="cls-1" d="M20.37,51.71c.34.55-.15,1.29.44,1.78l-.32,1.39h-.12Z"/><path class="cls-1" d="M61,53.77l.2.09c-.15.58.18.84.72,1-.09.08-.13.14-.18.14-.35,0-.86.31-1,0S60.83,54.15,61,53.77Z"/><path class="cls-1" d="M29.49,45.57,29.1,43.4c.26.54.51,1.1.78,1.64S29.84,45.55,29.49,45.57Z"/><path class="cls-1" d="M33.52,54.15l-1.75.45-.05-.23a3.25,3.25,0,0,1,1.75-.46Z"/><path class="cls-5" d="M42,30c-.41.45-.18,1.13-.56,1.59a2,2,0,0,1,.94-2.93A14.9,14.9,0,0,1,46,28.17,5.73,5.73,0,0,0,49.7,27.1a4.28,4.28,0,0,1,.89-.49c.47-.21.65,0,.55.47a1.94,1.94,0,0,1-.49.87c-1.15,1.24-1,3.09.72,3.56.4.1.45.43.23.76a8,8,0,0,1-4.26,3.61c-1.56.47-3-.4-3.89-2.1a26.55,26.55,0,0,1-1-3C42.38,30.51,42.37,30.18,42,30Zm3.67,3.55c.75.2,1.47-.16,2.23-.12a1.49,1.49,0,0,0,1.65-1.38c.05-.26.11-.61-.19-.73s-.75-.21-.92.15c-.27.61-.73.54-1.23.52S46,32,45.34,32c-.37,0-.88-.15-1.06.34a1.07,1.07,0,0,0,.35,1.16c-.16.45.25.55.49.6S45.64,33.94,45.66,33.59Z"/><path class="cls-5" d="M43.23,39.28a12.76,12.76,0,0,1-.6,3.06c-.34,1.13-.72,2.29,0,3.44.06.09.12.26,0,.32a.53.53,0,0,1-.35,0,1.2,1.2,0,0,1-.83-1.46,12.37,12.37,0,0,1,.43-2.06,21.5,21.5,0,0,0,.89-4c0-.21-.06-.51.24-.51s.27.3.28.51S43.23,39,43.23,39.28Z"/><path class="cls-5" d="M47.62,47.25c-.6-1.37-.72-2.78-1.21-4.1C47.42,43.32,48.21,45.89,47.62,47.25Z"/><path class="cls-5" d="M39.72,32.66C39.78,34,39.06,35,39,36.22a.24.24,0,0,1-.31.25.24.24,0,0,1-.17-.28A4.82,4.82,0,0,1,39.72,32.66Z"/><path class="cls-5" d="M38.13,41.42c.17,1.06-.43,2-.29,3.06a.24.24,0,0,1-.31.24c-.19,0-.21-.21-.21-.36A5,5,0,0,1,38.13,41.42Z"/><path class="cls-5" d="M51.29,37.5a3.28,3.28,0,0,0,1,1.77c.15.13.42.26.22.51s-.41.06-.59-.05A1.82,1.82,0,0,1,51.29,37.5Z"/><path class="cls-5" d="M51.17,36.38c0-.16.24-.43.06-.75-.07-.14-.18-.46.17-.47s.33.3.33.47a13.27,13.27,0,0,1-.14,1.4c0,.15-.16.23-.26.16S51.24,36.74,51.17,36.38Z"/><path class="cls-5" d="M54.3,29.29l.07.06a.52.52,0,0,1-.13.06s0,0-.06-.06Z"/><path class="cls-5" d="M37.17,18c-.4.17-.79.35-1.19.5-1.14.43-1.32.32-1.44-.92L34,17.7c-.8.16-1.25-.34-1-1.11a2.41,2.41,0,0,1,1-1.28c1.8-1,3.65-1.63,5.75-.92,1.42.48,2.85,1.16,4.41.52.21-.09.39,0,.43.19s.22.54.07.88c-.25.57-3.32,2.8-3.93,2.75a.75.75,0,0,1-.5-.19c-.58-.77-1-.64-1.65,0S37.62,19.12,37.17,18Zm-2.05.12a5.33,5.33,0,0,0,2-.88c.46-.29.78-.2.87.39,0,.16-.07.37.17.45.34-.28.65-.57,1-.83a.66.66,0,0,1,1,.2c.44.94,1,.53,1.45.12a6,6,0,0,1,1.84-1.2,1.21,1.21,0,0,0,.81-.71,11.73,11.73,0,0,1-3.75-.52,7,7,0,0,0-5.63.59,1.62,1.62,0,0,0-1.12,1.29C34.57,17,35.27,17.08,35.12,18.15Z"/><path class="cls-5" d="M40.12,12.8A3.48,3.48,0,0,1,43,12.09a10.9,10.9,0,0,1,1.28.15c1.47.3,2.87.37,4.09-.73a.78.78,0,0,1,.73-.28A3.38,3.38,0,0,1,45,13.06,10.32,10.32,0,0,0,40.12,12.8Z"/><path class="cls-5" d="M39.3,11.2a4.49,4.49,0,0,1,4.4-.75,4.4,4.4,0,0,0,4.48-.38l.08,0c.48-.14,1.16-.72,1.38-.31s-.65.38-1,.67c-1.63,1.48-3.48,1.4-5.36.6A4.78,4.78,0,0,0,39.3,11.2Z"/><path class="cls-5" d="M41.25,20.49a2.23,2.23,0,0,0-2.27.35.37.37,0,0,1-.57,0,.53.53,0,0,1,.05-.67A1.75,1.75,0,0,1,41.25,20.49Z"/><path class="cls-5" d="M51,18.68a10,10,0,0,0-2.55.67C49,17.89,49.14,17.84,51,18.68Z"/><path class="cls-4" d="M44.63,33.53a1.07,1.07,0,0,1-.35-1.16c.18-.49.69-.31,1.06-.34q.93,0,1.86,0c.5,0,1,.09,1.23-.52.17-.36.62-.27.92-.15s.24.47.19.73a1.49,1.49,0,0,1-1.65,1.38c-.76,0-1.48.32-2.23.13C45.33,33.42,45,33.54,44.63,33.53Z"/><path class="cls-5" d="M44.63,33.53c.35,0,.7-.11,1,.07,0,.34-.22.59-.54.53S44.47,34,44.63,33.53Z"/><path class="cls-3" d="M35.12,18.15c.15-1.07-.55-1.15-1.35-1.1a1.62,1.62,0,0,1,1.12-1.29,7,7,0,0,1,5.63-.59,11.73,11.73,0,0,0,3.75.52,1.21,1.21,0,0,1-.81.71,6,6,0,0,0-1.84,1.2c-.44.41-1,.82-1.45-.12a.66.66,0,0,0-1-.2c-.34.26-.65.55-1,.83-.24-.08-.15-.29-.17-.45-.09-.59-.41-.68-.87-.39A5.33,5.33,0,0,1,35.12,18.15Z"/><rect class="cls-6" x="30.28" y="19.17" width="24.39" height="84.95" rx="8.3" transform="translate(104.12 19.17) rotate(90)"/><rect class="cls-7" x="31.19" y="20.08" width="22.57" height="83.13" rx="7.68" transform="translate(104.12 19.17) rotate(90)"/><rect class="cls-2" x="1.82" y="51.27" width="81.31" height="20.74" rx="7.06"/><text class="cls-8" transform="translate(11.01 65.19)">HAHAHIHI</text></g></g></svg>