<svg xmlns="http://www.w3.org/2000/svg" viewBox="0 0 78.06 78.06"><defs><style>.cls-1{fill:#046937;}.cls-2,.cls-3{fill:none;stroke:#046937;stroke-miterlimit:10;stroke-width:0.26px;}.cls-3{stroke-dasharray:1.06 1.06;}.cls-4{fill:#fff;}</style></defs><g id="Layer_2" data-name="Layer 2"><g id="Layer_1-2" data-name="Layer 1"><path class="cls-1" d="M66.55,52.94l-.18-.1-.16-.12.8-1.65c.25-.55.43-1.14.65-1.71l.42-1.14c.12-.39.21-.79.31-1.18A24.18,24.18,0,0,0,69,44.66,27.52,27.52,0,0,0,69.39,41l.19,0a.74.74,0,0,1,.21,0,3,3,0,0,1,2.11,1.06,3.27,3.27,0,0,1,.68,2.42A2.94,2.94,0,0,1,74.46,46a3.85,3.85,0,0,1,.21,2.74,4.12,4.12,0,0,1-.59,1.33,3.9,3.9,0,0,1-1,.91,2.84,2.84,0,0,1-2.36.36,3.11,3.11,0,0,1-1.83,1.73A2.9,2.9,0,0,1,66.55,52.94Zm.27-.4a2.55,2.55,0,0,0,2.06,0,2.63,2.63,0,0,0,.91-.62,3.14,3.14,0,0,0,.59-1l.09-.25.22.09a2.43,2.43,0,0,0,2.11-.22,3.31,3.31,0,0,0,.9-.78,3.61,3.61,0,0,0,.52-1.16,3.4,3.4,0,0,0-.21-2.4A2.48,2.48,0,0,0,72.28,45l-.24,0,0-.26a2.93,2.93,0,0,0-.45-2.15,2.53,2.53,0,0,0-1.79-1,10.87,10.87,0,0,1-.18,1.61l-.24,1.6A2.29,2.29,0,0,1,71,45.8a2.72,2.72,0,0,1,.23,2A2.42,2.42,0,0,1,70,49.41a2.37,2.37,0,0,1-1.9.15l-.55,1.52Z"/><path class="cls-1" d="M55.91,64.85a1.62,1.62,0,0,1-.1-.18l-.08-.18c.53-.3,1-.71,1.49-1.06s1-.71,1.44-1.13l1.81-1.64c.56-.58,1.1-1.2,1.65-1.8a14.17,14.17,0,0,0,1.14-1.42c.36-.49.74-1,1.09-1.47l.18.08a.59.59,0,0,1,.17.1,3.09,3.09,0,0,1,.67,4.41c1.22,1.13,1.1,3.22-.32,4.73s-3.58,1.52-4.73.26A3.07,3.07,0,0,1,55.91,64.85Zm.45-.19a2.68,2.68,0,0,0,3.87.38,1.56,1.56,0,0,0,.2-.16l.15.18c.94,1.17,2.8,1.12,4.14-.11s1.29-3.2.13-4.14l-.18-.15.18-.19a2.71,2.71,0,0,0-.36-3.89c-.67.85-1.25,1.77-2,2.56a2.52,2.52,0,1,1-3.58,3.55C58.11,63.39,57.21,64,56.36,64.66Z"/><path class="cls-1" d="M66.69,62.39a6.79,6.79,0,0,0,.18-.78.4.4,0,0,1,.08-.2l1.14-1.52a13.8,13.8,0,0,0,1.06-1.56,1.21,1.21,0,0,1-.78-.19,1.17,1.17,0,0,1-.35-.35c-.58,1-1.33,1.85-2,2.78l0-.68a.25.25,0,0,1,.06-.17,23,23,0,0,0,1.67-2.37A1.73,1.73,0,0,1,68,55.94a1.93,1.93,0,0,1,1.15-.84l1.27-2.62a.33.33,0,0,1,.11-.13l.55-.39c-.4,1.07-1,2.07-1.44,3.1a1.28,1.28,0,0,1,.47.14,1.35,1.35,0,0,1,.57.59c.53-1.14,1.15-2.25,1.58-3.43a.57.57,0,0,1,.12-.18l.6-.53a40,40,0,0,1-2.15,4.77,1.86,1.86,0,0,1-.29,1,1.83,1.83,0,0,1-.76.73l-.69,1.11-.78,1C67.76,61,67.28,61.74,66.69,62.39Zm2.93-4.83a1.1,1.1,0,0,0,.42-.41,1.06,1.06,0,0,0,.18-.57.83.83,0,0,0-.42-.8.78.78,0,0,0-.5-.1,1.15,1.15,0,0,0-.72.37l-.12.17-.09.19a1.08,1.08,0,0,0,0,.79.89.89,0,0,0,.33.39A.86.86,0,0,0,69.62,57.56Z"/><path class="cls-1" d="M56.08,68.55l.18-.09a1,1,0,0,1,.79,0,.84.84,0,0,1,.39.33.86.86,0,0,1,0,.91,1.15,1.15,0,0,1-.42.43l.28.48a1.92,1.92,0,0,0,.73-.77,18.33,18.33,0,0,0,2.18-1.45c.69-.52,1.41-1,2.07-1.58-.25.07-.52.11-.79.16a.41.41,0,0,0-.19.08l-1.52,1.13c-.25.19-.5.38-.76.56l-.81.49a1.28,1.28,0,0,0-.19-.78,1.26,1.26,0,0,0-.34-.35l.73-.45.68-.51,1.37-1-.68.06a.34.34,0,0,0-.17,0,20.66,20.66,0,0,1-2.38,1.66,1.71,1.71,0,0,0-1.4.18Z"/><path class="cls-1" d="M75.21,40a1.89,1.89,0,0,0,.32-1H75a1.19,1.19,0,0,1-.17.57.9.9,0,0,1-.8.48.79.79,0,0,1-.47-.17,1,1,0,0,1-.39-.67,1.48,1.48,0,0,1,0-.21h-.55a1.66,1.66,0,0,0,.51,1.31L73,41.78l0,.73-.1.71a.37.37,0,0,0,0,.18l.29.61c.07-.57.19-1.13.23-1.7l.09-1.7a1,1,0,0,0,.47.11,1.21,1.21,0,0,0,.78-.22l-.1,1.89c0,.62-.17,1.24-.25,1.87a.55.55,0,0,0,0,.22l.26.76.38-2.59Z"/><path class="cls-1" d="M54.12,65.17l1.69-1c.54-.37,1-.78,1.59-1.17l.79-.59.73-.66,1.47-1.33,1.33-1.47.66-.73L63,57.4c.39-.54.8-1,1.17-1.59l1-1.69a13.87,13.87,0,0,0,.92-1.75c.28-.59.6-1.17.84-1.78a31.7,31.7,0,0,0,1.25-3.75,31.14,31.14,0,0,0,1-7.81H70a32.35,32.35,0,0,1-1.09,8,31.38,31.38,0,0,1-1.27,3.84c-.26.62-.58,1.22-.86,1.83a15.33,15.33,0,0,1-1,1.79l-1,1.73c-.39.56-.81,1.09-1.21,1.63l-.6.81c-.22.26-.46.5-.68.76l-1.36,1.5-1.5,1.36c-.26.22-.5.46-.76.68l-.81.6c-.54.4-1.07.82-1.63,1.21l-1.73,1Z"/><path class="cls-1" d="M51.44,60.55l1.4-.84c.44-.31.86-.66,1.3-1l.66-.48c.21-.17.4-.37.6-.55l1.21-1.09L57.7,55.4c.18-.2.38-.39.55-.6l.48-.66c.32-.44.67-.86,1-1.3l.84-1.4A10.86,10.86,0,0,0,61.31,50c.22-.49.49-1,.69-1.47a25.83,25.83,0,0,0,1-3.08A26.16,26.16,0,0,0,63.9,39h.76a27.37,27.37,0,0,1-.9,6.63,29.41,29.41,0,0,1-1,3.17c-.21.52-.49,1-.72,1.52a11,11,0,0,1-.78,1.48l-.87,1.43c-.32.46-.67.9-1,1.35l-.5.67c-.18.22-.38.42-.56.62l-1.13,1.25L55.9,58.28c-.2.18-.4.38-.62.56l-.67.5c-.45.33-.89.68-1.35,1l-1.43.87Z"/><path class="cls-1" d="M53.52,64.13l1.62-1c.52-.36,1-.76,1.53-1.13l.76-.57c.24-.2.47-.42.7-.64l1.41-1.27,1.27-1.41c.22-.23.44-.46.64-.7l.57-.76c.37-.52.77-1,1.13-1.53l1-1.62A12.82,12.82,0,0,0,65,51.84c.26-.57.57-1.13.81-1.71A33,33,0,0,0,67,46.53,30.6,30.6,0,0,0,68,39h.23a30.61,30.61,0,0,1-1,7.56A29.66,29.66,0,0,1,66,50.22c-.24.59-.54,1.15-.81,1.73a12.35,12.35,0,0,1-.9,1.68l-1,1.64c-.36.52-.76,1-1.14,1.54l-.57.77c-.2.24-.43.47-.64.71L59.71,59.7,58.29,61c-.24.21-.47.44-.71.64l-.77.57c-.52.38-1,.78-1.54,1.14l-1.64,1Z"/><path class="cls-1" d="M58.15,72.14l2.14-1.3c.69-.47,1.35-1,2-1.48l1-.76c.32-.26.63-.55.94-.83l1.85-1.68,1.68-1.85c.28-.31.57-.62.83-.94l.76-1c.49-.67,1-1.33,1.48-2l1.3-2.14a18,18,0,0,0,1.18-2.21c.35-.75.74-1.49,1.06-2.27A40.05,40.05,0,0,0,77.29,39h.77A40.48,40.48,0,0,1,76.7,49.12,40,40,0,0,1,75.08,54c-.32.78-.71,1.54-1.08,2.31a17.32,17.32,0,0,1-1.2,2.25l-1.33,2.18c-.48.7-1,1.38-1.51,2.06l-.77,1c-.27.32-.56.63-.84.95l-1.72,1.88-1.89,1.73c-.32.28-.63.57-.95.84l-1,.77c-.68.51-1.35,1-2.06,1.51L58.53,72.8Z"/><line class="cls-2" x1="66.41" y1="39.03" x2="66.38" y2="39.5"/><path class="cls-3" d="M66.33,40.46a26.54,26.54,0,0,1-3.79,12.41,27,27,0,0,1-9.1,9.24"/><line class="cls-2" x1="53.03" y1="62.35" x2="52.63" y2="62.6"/><path class="cls-1" d="M40.74,69.8a.67.67,0,0,1,0-.2l0-.2A24.73,24.73,0,0,0,44.4,69a17.76,17.76,0,0,0,2.38-.53l1.18-.3c.39-.12.76-.28,1.15-.41l1.71-.63,1.65-.79.12.16a1.62,1.62,0,0,1,.1.18A2.9,2.9,0,0,1,52.81,69a3.35,3.35,0,0,1-.65,1.08,3.48,3.48,0,0,1-1.09.73,2.9,2.9,0,0,1-.38,2.37,3.46,3.46,0,0,1-.93,1,4.46,4.46,0,0,1-1.33.59,3.27,3.27,0,0,1-4.23-2.14A3,3,0,0,1,40.74,69.8Zm.48,0a2.56,2.56,0,0,0,1,1.81,2.82,2.82,0,0,0,2.14.47l.26,0,0,.23a2.5,2.5,0,0,0,1.25,1.74,3.17,3.17,0,0,0,2.39.24,2.77,2.77,0,0,0,2.19-3.51l-.08-.22.24-.09a2.62,2.62,0,0,0,1.63-3.54c-.49.23-1,.5-1.47.68l-1.52.56a2.39,2.39,0,0,1-1.79,3.09,2.64,2.64,0,0,1-2-.23,2.36,2.36,0,0,1-1.08-1.58A24.83,24.83,0,0,1,41.22,69.85Z"/><path class="cls-1" d="M25.11,66.55a1.74,1.74,0,0,1,.11-.18l.11-.16L27,67c.56.25,1.14.43,1.71.65l1.15.42c.38.12.79.21,1.18.31a24,24,0,0,0,2.37.56,27.67,27.67,0,0,0,3.63.44l0,.19a1.47,1.47,0,0,1,0,.21A3,3,0,0,1,36,71.9a3.26,3.26,0,0,1-2.41.68A3,3,0,0,1,32,74.46a3.84,3.84,0,0,1-2.74.21A4.07,4.07,0,0,1,28,74.08a3.73,3.73,0,0,1-.91-1,2.84,2.84,0,0,1-.37-2.36A3.08,3.08,0,0,1,25,68.88,2.83,2.83,0,0,1,25.11,66.55Zm.4.27a2.55,2.55,0,0,0,0,2.06,2.75,2.75,0,0,0,.61.91,3.31,3.31,0,0,0,1,.59l.24.09-.08.22a2.46,2.46,0,0,0,.21,2.11,3.35,3.35,0,0,0,.79.9,3.51,3.51,0,0,0,1.16.52A3.37,3.37,0,0,0,31.82,74a2.5,2.5,0,0,0,1.26-1.73l0-.24.26,0a3,3,0,0,0,2.15-.45,2.52,2.52,0,0,0,1-1.79,10.73,10.73,0,0,1-1.6-.18l-1.6-.24A2.3,2.3,0,0,1,32.25,71a2.71,2.71,0,0,1-2,.23A2.4,2.4,0,0,1,28.65,70a2.38,2.38,0,0,1-.16-1.9L27,67.53Z"/><path class="cls-1" d="M32.63,74.66l.77-.26a.55.55,0,0,1,.22,0c.62.09,1.25.2,1.87.27l1.89.1a1.21,1.21,0,0,1-.22-.78,1.13,1.13,0,0,1,.12-.47l-1.71-.09-1.69-.25.61-.28a.25.25,0,0,1,.17,0,23.46,23.46,0,0,0,2.89.24,1.66,1.66,0,0,1,1.31-.51,1.74,1.74,0,0,1,1.3.53c1-.07,1.94,0,2.9-.21a.27.27,0,0,1,.17,0l.61.28a24.14,24.14,0,0,1-3.4.31,1,1,0,0,1,.11.47,1.27,1.27,0,0,1-.22.78,28.07,28.07,0,0,0,3.76-.33.38.38,0,0,1,.21,0l.76.26c-.86.12-1.72.28-2.59.36l-2.61.14a1.81,1.81,0,0,1-1,.31,2,2,0,0,1-1-.33c-.87,0-1.74-.08-2.61-.15Zm5.65.14a1.19,1.19,0,0,0,.57.17,1,1,0,0,0,.58-.16.89.89,0,0,0,.48-.79.71.71,0,0,0-.17-.47,1,1,0,0,0-.68-.39l-.2,0a.74.74,0,0,0-.21,0,1,1,0,0,0-.68.39.82.82,0,0,0-.17.47A.9.9,0,0,0,38.28,74.8Z"/><path class="cls-1" d="M22,68.55l.17.12a1.12,1.12,0,0,1,.37.72.8.8,0,0,1-.09.5.83.83,0,0,1-.8.42,1.14,1.14,0,0,1-.57-.17l-.27.48a1.8,1.8,0,0,0,1,.28A39.24,39.24,0,0,0,26.58,73l-.54-.6a.52.52,0,0,0-.17-.12,13.37,13.37,0,0,1-1.74-.74l-1.71-.83a1.24,1.24,0,0,0,.59-.56,1.34,1.34,0,0,0,.14-.47l1.54.74a11.45,11.45,0,0,0,1.57.68l-.4-.54a.28.28,0,0,0-.13-.11L23.1,69.21a1.88,1.88,0,0,0-.84-1.14Z"/><path class="cls-1" d="M56.26,70.9a1.76,1.76,0,0,0,1-.28L57,70.14a1.07,1.07,0,0,1-.56.17.86.86,0,0,1-.81-.43.83.83,0,0,1-.08-.49,1.08,1.08,0,0,1,.37-.72l.16-.12-.27-.48a2,2,0,0,0-.86,1.14l-2.61,1.26a.3.3,0,0,0-.14.11l-.39.54a12.83,12.83,0,0,0,1.57-.68l1.54-.74a1.16,1.16,0,0,0,.14.47,1.26,1.26,0,0,0,.58.56l-1.7.83a14,14,0,0,1-1.74.74.57.57,0,0,0-.18.12l-.54.6A40.08,40.08,0,0,0,56.26,70.9Z"/><path class="cls-1" d="M23.94,65.17a14.46,14.46,0,0,0,1.74.92c.6.28,1.18.6,1.79.84a29.95,29.95,0,0,0,19.37,1.25,31.7,31.7,0,0,0,3.75-1.25c.61-.24,1.19-.56,1.78-.84a13.87,13.87,0,0,0,1.75-.92l.38.66a15.33,15.33,0,0,1-1.79,1c-.61.28-1.21.6-1.83.86A31.38,31.38,0,0,1,47,68.91,32.35,32.35,0,0,1,39,70a32.22,32.22,0,0,1-8-1.09,30.29,30.29,0,0,1-3.84-1.27c-.63-.26-1.22-.58-1.84-.86a14.44,14.44,0,0,1-1.78-1Z"/><path class="cls-1" d="M26.61,60.55a11,11,0,0,0,1.44.76c.49.22,1,.49,1.47.69a25.25,25.25,0,0,0,3.08,1A26.16,26.16,0,0,0,39,63.9,26.16,26.16,0,0,0,45.46,63a25.83,25.83,0,0,0,3.08-1c.5-.2,1-.47,1.47-.69a10.86,10.86,0,0,0,1.43-.76l.39.66a11,11,0,0,1-1.48.78c-.51.23-1,.51-1.52.72A27.17,27.17,0,0,1,39,64.66a27.33,27.33,0,0,1-9.81-1.95c-.51-.21-1-.49-1.51-.72a9.93,9.93,0,0,1-1.48-.78Z"/><path class="cls-1" d="M24.54,64.13a13.37,13.37,0,0,0,1.67.89c.58.26,1.13.57,1.72.81A32.27,32.27,0,0,0,31.53,67,30.47,30.47,0,0,0,39,68a30.6,30.6,0,0,0,7.5-1,33,33,0,0,0,3.6-1.19c.58-.24,1.14-.55,1.71-.81a12.82,12.82,0,0,0,1.68-.89l.11.2a12.35,12.35,0,0,1-1.68.9c-.58.27-1.14.57-1.73.81a29.66,29.66,0,0,1-3.63,1.2,30.61,30.61,0,0,1-7.56,1,30.48,30.48,0,0,1-7.56-1A29.1,29.1,0,0,1,27.84,66c-.59-.24-1.15-.54-1.73-.81a11.89,11.89,0,0,1-1.69-.9Z"/><path class="cls-1" d="M19.9,72.14a19.56,19.56,0,0,0,2.21,1.18c.76.35,1.5.74,2.27,1.06A40.21,40.21,0,0,0,29.14,76,39.34,39.34,0,0,0,39,77.29a40.05,40.05,0,0,0,14.64-2.91c.78-.32,1.52-.71,2.27-1.06a18,18,0,0,0,2.21-1.18l.38.66A17.32,17.32,0,0,1,56.28,74c-.77.37-1.53.76-2.32,1.08a39.27,39.27,0,0,1-4.84,1.62A40.54,40.54,0,0,1,39,78.06,40.48,40.48,0,0,1,28.94,76.7a40,40,0,0,1-4.85-1.62c-.79-.32-1.54-.71-2.31-1.08a18.12,18.12,0,0,1-2.26-1.2Z"/><line class="cls-2" x1="52.7" y1="62.73" x2="52.3" y2="62.97"/><path class="cls-3" d="M51.45,63.4a27.52,27.52,0,0,1-12.66,2.92,28.09,28.09,0,0,1-12.55-3.24"/><line class="cls-2" x1="25.83" y1="62.84" x2="25.43" y2="62.6"/><path class="cls-1" d="M13.21,55.91a1,1,0,0,1,.18-.1l.18-.08c.3.53.71,1,1.06,1.49s.7,1,1.12,1.44l1.64,1.81c.59.57,1.21,1.1,1.8,1.65a15.53,15.53,0,0,0,1.43,1.14c.49.36,1,.74,1.47,1.09l-.08.18a.59.59,0,0,1-.1.17,3.09,3.09,0,0,1-4.41.67c-1.14,1.22-3.22,1.1-4.73-.32s-1.53-3.58-.26-4.73A3.07,3.07,0,0,1,13.21,55.91Zm.19.45A2.68,2.68,0,0,0,13,60.23a1.56,1.56,0,0,0,.16.2l-.18.15c-1.17.94-1.13,2.8.1,4.14s3.2,1.29,4.14.13l.16-.18.19.18a2.7,2.7,0,0,0,3.88-.36c-.84-.67-1.76-1.25-2.55-2a2.52,2.52,0,1,1-3.56-3.58C14.67,58.11,14.06,57.21,13.4,56.36Z"/><path class="cls-1" d="M8.25,40.74a.74.74,0,0,1,.21,0l.19,0a26.16,26.16,0,0,0,.41,3.64,19.34,19.34,0,0,0,.54,2.37L9.9,48c.11.39.27.76.41,1.15l.62,1.71.79,1.65-.16.12a1,1,0,0,1-.17.1A2.92,2.92,0,0,1,9,52.81,3.46,3.46,0,0,1,8,52.16a3.85,3.85,0,0,1-.73-1.09,2.91,2.91,0,0,1-2.37-.38,3.46,3.46,0,0,1-1-.93,4.71,4.71,0,0,1-.58-1.33A3.27,3.27,0,0,1,5.43,44.2,3,3,0,0,1,8.25,40.74Zm-.05.48a2.6,2.6,0,0,0-1.81,1,2.86,2.86,0,0,0-.46,2.14l0,.25-.24,0A2.52,2.52,0,0,0,4,45.92a3.22,3.22,0,0,0-.24,2.39A2.77,2.77,0,0,0,7.26,50.5l.23-.08.09.24a2.61,2.61,0,0,0,3.53,1.63c-.22-.49-.49-1-.68-1.47L9.88,49.3a2.39,2.39,0,0,1-3.1-1.79,2.64,2.64,0,0,1,.24-2,2.34,2.34,0,0,1,1.57-1.08A25,25,0,0,1,8.2,41.22Z"/><path class="cls-1" d="M5,51.3l.59.54a.41.41,0,0,1,.12.18l.33.89.4.86.82,1.7a1.33,1.33,0,0,1,.57-.58,1.14,1.14,0,0,1,.47-.13l-.74-1.55-.37-.77-.29-.8.54.39a.38.38,0,0,1,.11.14c.39.88.82,1.75,1.24,2.62a2,2,0,0,1,1.13.86,1.71,1.71,0,0,1,.18,1.4c.26.41.49.84.77,1.23l.87,1.17a.23.23,0,0,1,.06.16l.05.69a28.25,28.25,0,0,1-2-2.8,1.29,1.29,0,0,1-.36.34,1.26,1.26,0,0,1-.78.19,29,29,0,0,0,2.17,3.09.5.5,0,0,1,.08.2c0,.26.09.54.15.8a38.21,38.21,0,0,1-3-4.27,1.94,1.94,0,0,1-.77-.74,1.6,1.6,0,0,1-.26-1A36.4,36.4,0,0,1,5,51.3Zm2.68,5a1.1,1.1,0,0,0,.17.56,1.13,1.13,0,0,0,.42.42.87.87,0,0,0,.92,0,.74.74,0,0,0,.32-.38,1.05,1.05,0,0,0,0-.8l-.09-.18a1.09,1.09,0,0,0-.13-.17,1.19,1.19,0,0,0-.7-.38.76.76,0,0,0-.49.09A.84.84,0,0,0,7.66,56.28Z"/><path class="cls-1" d="M4.91,39v.2a1.06,1.06,0,0,1-.4.68.78.78,0,0,1-.47.18.92.92,0,0,1-.79-.49A1.16,1.16,0,0,1,3.08,39H2.52a2,2,0,0,0,.33,1L3,42.65c.12.86.26,1.73.39,2.59l.26-.77a.49.49,0,0,0,0-.21c-.09-.62-.22-1.24-.26-1.87l-.1-1.89a1.33,1.33,0,0,0,.79.23,1.31,1.31,0,0,0,.47-.12l.09,1.71c0,.57.15,1.13.23,1.69l.28-.62a.23.23,0,0,0,0-.16l-.11-.72,0-.73L5,40.33A1.69,1.69,0,0,0,5.47,39Z"/><path class="cls-1" d="M20.05,69.85a2,2,0,0,0,.73.77l.28-.48a1.17,1.17,0,0,1-.41-.42.87.87,0,0,1,0-.92.84.84,0,0,1,.39-.33,1.07,1.07,0,0,1,.79,0l.18.09.28-.48a1.73,1.73,0,0,0-1.41-.18,24.15,24.15,0,0,1-2.38-1.66.44.44,0,0,0-.16-.06l-.69,0,1.37,1,.69.51.73.45a1.14,1.14,0,0,0-.34.35,1.23,1.23,0,0,0-.19.79l-.81-.5c-.26-.17-.51-.37-.76-.56l-1.52-1.13a.61.61,0,0,0-.2-.09,6.88,6.88,0,0,1-.79-.15c.67.55,1.38,1.05,2.08,1.58.35.26.69.54,1.06.77Z"/><path class="cls-1" d="M8.82,39a31.61,31.61,0,0,0,1.06,7.81,33.58,33.58,0,0,0,1.24,3.75c.25.61.57,1.19.84,1.78a12.74,12.74,0,0,0,.93,1.75l1,1.69c.38.54.79,1,1.18,1.59l.59.79c.21.25.44.49.66.73l1.33,1.47,1.46,1.33.74.66.79.59c.53.39,1.05.8,1.59,1.17l1.69,1-.38.66-1.74-1c-.55-.39-1.08-.81-1.62-1.21l-.82-.6-.75-.68-1.5-1.36-1.36-1.5c-.23-.26-.46-.5-.68-.76l-.61-.81c-.4-.54-.82-1.07-1.2-1.63l-1-1.73a14,14,0,0,1-1-1.79c-.29-.61-.61-1.21-.86-1.83A33.24,33.24,0,0,1,9.14,47a32.34,32.34,0,0,1-1.08-8Z"/><path class="cls-1" d="M14.16,39A26.16,26.16,0,0,0,15,45.46a25.78,25.78,0,0,0,1,3.08c.21.5.47,1,.7,1.47a9.79,9.79,0,0,0,.76,1.43l.84,1.4c.31.44.65.86,1,1.3l.48.66c.18.21.37.4.55.6l1.09,1.21,1.21,1.09c.21.18.4.38.61.55l.65.48c.44.32.86.67,1.31,1l1.39.84-.38.66-1.44-.87c-.45-.32-.89-.67-1.34-1l-.68-.5-.62-.56L20.9,57.15,19.78,55.9c-.19-.2-.38-.4-.57-.62l-.49-.67c-.33-.45-.68-.89-1-1.35l-.87-1.43a11.09,11.09,0,0,1-.79-1.48c-.23-.51-.5-1-.71-1.52a27.36,27.36,0,0,1-1-3.17A26.89,26.89,0,0,1,13.4,39Z"/><path class="cls-1" d="M10,39a30.13,30.13,0,0,0,1,7.5,31,31,0,0,0,1.19,3.6c.24.58.54,1.14.81,1.71a11.72,11.72,0,0,0,.89,1.68l1,1.62c.36.52.76,1,1.13,1.53l.57.76c.2.24.42.47.63.7l1.28,1.41,1.4,1.27c.24.22.47.44.71.64l.76.57c.51.37,1,.77,1.53,1.13l1.62,1-.12.2-1.63-1c-.53-.36-1-.76-1.54-1.14l-.77-.57c-.24-.2-.47-.43-.71-.64L18.35,59.7l-1.28-1.41c-.22-.24-.44-.47-.65-.71l-.57-.77c-.37-.52-.77-1-1.13-1.54l-1-1.64A13.49,13.49,0,0,1,12.83,52c-.27-.58-.58-1.14-.82-1.73a31.47,31.47,0,0,1-1.2-3.63,30.6,30.6,0,0,1-1-7.56Z"/><path class="cls-1" d="M.76,39A39.66,39.66,0,0,0,3.68,53.67c.31.78.7,1.52,1.06,2.27a19.39,19.39,0,0,0,1.17,2.21l1.31,2.14c.47.69,1,1.35,1.48,2l.75,1c.27.32.56.63.83.94L12,66.09l1.85,1.68c.31.28.61.57.93.83l1,.76c.67.49,1.33,1,2,1.48l2.13,1.3-.38.66-2.18-1.33c-.7-.48-1.37-1-2.06-1.51l-1-.77c-.33-.27-.64-.56-1-.84l-1.88-1.73L9.71,64.74l-.85-.95-.77-1c-.5-.68-1-1.36-1.51-2.06L5.25,58.53a20.16,20.16,0,0,1-1.2-2.25C3.69,55.51,3.3,54.75,3,54A41.07,41.07,0,0,1,0,39Z"/><line class="cls-2" x1="25.35" y1="62.73" x2="24.95" y2="62.48"/><path class="cls-3" d="M24.13,62a27.67,27.67,0,0,1-8.86-9.52A27,27,0,0,1,11.84,40"/><line class="cls-2" x1="11.82" y1="39.5" x2="11.79" y2="39.03"/><path class="cls-1" d="M11.51,25.11l.17.11.16.12L11.05,27c-.25.56-.43,1.15-.65,1.71L10,29.84c-.13.39-.21.79-.32,1.18-.17.79-.45,1.56-.55,2.37A27.67,27.67,0,0,0,8.67,37l-.2,0h-.2A3,3,0,0,1,6.15,36a3.26,3.26,0,0,1-.67-2.41A2.9,2.9,0,0,1,3.6,32a3.87,3.87,0,0,1-.22-2.73A4,4,0,0,1,4,28a3.9,3.9,0,0,1,1-.91,2.8,2.8,0,0,1,2.36-.36A3.11,3.11,0,0,1,9.17,25,2.9,2.9,0,0,1,11.51,25.11Zm-.28.4a2.52,2.52,0,0,0-2.05,0,2.75,2.75,0,0,0-.91.61,3.11,3.11,0,0,0-.59,1l-.09.24-.22-.08a2.46,2.46,0,0,0-2.11.21,3.35,3.35,0,0,0-.9.79,3.51,3.51,0,0,0-.52,1.16A3.37,3.37,0,0,0,4,31.82a2.53,2.53,0,0,0,1.74,1.26l.23,0,0,.26a3,3,0,0,0,.45,2.15,2.56,2.56,0,0,0,1.8,1A9.55,9.55,0,0,1,8.39,35l.25-1.6a2.32,2.32,0,0,1-1.56-1.1,2.71,2.71,0,0,1-.22-2,2.4,2.4,0,0,1,1.22-1.6A2.35,2.35,0,0,1,10,28.49L10.53,27Z"/><path class="cls-1" d="M22.15,13.21a1,1,0,0,1,.1.18l.08.17c-.53.31-1,.72-1.49,1.07s-1,.7-1.45,1.12l-1.8,1.64c-.57.59-1.1,1.21-1.65,1.8a12.76,12.76,0,0,0-1.14,1.43c-.37.49-.74,1-1.09,1.47L13.53,22a.81.81,0,0,1-.18-.1,3.1,3.1,0,0,1-.66-4.42c-1.22-1.13-1.1-3.21.32-4.72s3.58-1.53,4.73-.26A3.07,3.07,0,0,1,22.15,13.21Zm-.45.19A2.69,2.69,0,0,0,17.83,13a1.66,1.66,0,0,0-.21.16L17.47,13c-.93-1.17-2.8-1.13-4.13.1a2.83,2.83,0,0,0-.14,4.14l.18.16-.17.19a2.68,2.68,0,0,0,.36,3.88c.66-.84,1.25-1.76,2-2.55a2.52,2.52,0,1,1,3.57-3.56C20,14.67,20.84,14.06,21.7,13.4Z"/><path class="cls-1" d="M11.36,15.66c-.06.26-.13.52-.17.79a.4.4,0,0,1-.09.2L10,18.16A13.89,13.89,0,0,0,8.9,19.72a1.25,1.25,0,0,1,.78.2,1.46,1.46,0,0,1,.36.34c.58-1,1.33-1.85,2-2.77l0,.68a.36.36,0,0,1-.07.17,24.53,24.53,0,0,0-1.66,2.37,1.7,1.7,0,0,1-.19,1.41A1.82,1.82,0,0,1,8.92,23L7.66,25.58a.34.34,0,0,1-.12.12L7,26.1C7.39,25,8,24,8.43,23A1.22,1.22,0,0,1,8,22.86a1.28,1.28,0,0,1-.57-.6c-.53,1.15-1.15,2.25-1.59,3.44a.34.34,0,0,1-.11.17l-.6.54a38.46,38.46,0,0,1,2.15-4.77,1.84,1.84,0,0,1,.28-1,1.92,1.92,0,0,1,.77-.73L9,18.78l.78-1.05C10.3,17,10.78,16.31,11.36,15.66ZM8.43,20.49a1.21,1.21,0,0,0-.42.42,1.14,1.14,0,0,0-.17.57.83.83,0,0,0,.41.8.8.8,0,0,0,.5.09A1.06,1.06,0,0,0,9.47,22a.66.66,0,0,0,.12-.17,1,1,0,0,0,.1-.18,1.07,1.07,0,0,0,0-.79.77.77,0,0,0-.32-.39A.87.87,0,0,0,8.43,20.49Z"/><path class="cls-1" d="M22,9.5l-.18.1a1.1,1.1,0,0,1-.8,0,.74.74,0,0,1-.38-.32.87.87,0,0,1,0-.92,1.21,1.21,0,0,1,.42-.42l-.28-.48a1.87,1.87,0,0,0-.72.76,20.12,20.12,0,0,0-2.18,1.45c-.69.53-1.41,1-2.08,1.59.25-.07.53-.11.8-.16a.52.52,0,0,0,.19-.08L18.3,9.86c.26-.18.51-.38.77-.55l.8-.5a1.19,1.19,0,0,0,.2.78,1.29,1.29,0,0,0,.34.36l-.73.45-.69.51-1.37,1,.69,0a.23.23,0,0,0,.16-.06,21.6,21.6,0,0,1,2.39-1.65,1.71,1.71,0,0,0,1.4-.18Z"/><path class="cls-1" d="M2.85,38a2,2,0,0,0-.33,1h.56a1.19,1.19,0,0,1,.17-.57A.9.9,0,0,1,4,38a.78.78,0,0,1,.47.18,1,1,0,0,1,.4.67,1.47,1.47,0,0,1,0,.21h.56A1.71,1.71,0,0,0,5,37.72L5,36.27l0-.72.11-.72a.25.25,0,0,0,0-.17l-.28-.61c-.08.56-.19,1.12-.23,1.69l-.09,1.71a1.25,1.25,0,0,0-1.26.11l.1-1.89c0-.63.17-1.25.25-1.87a.41.41,0,0,0,0-.22l-.26-.77L3,35.4Z"/><path class="cls-1" d="M23.94,12.89l-1.69,1c-.54.38-1.06.79-1.59,1.18l-.79.59c-.25.21-.49.44-.74.66l-1.46,1.33-1.33,1.46c-.22.25-.45.49-.66.74l-.59.79c-.39.53-.8,1.05-1.18,1.59l-1,1.69A13.23,13.23,0,0,0,12,25.68c-.27.6-.59,1.18-.84,1.79a32.92,32.92,0,0,0-1.24,3.75A31.61,31.61,0,0,0,8.82,39H8.06a32.37,32.37,0,0,1,2.36-11.85c.25-.63.57-1.22.86-1.84a13.2,13.2,0,0,1,1-1.78l1-1.73c.38-.56.8-1.09,1.2-1.63l.61-.82.68-.75,1.36-1.5,1.5-1.36.75-.68.82-.61c.54-.4,1.07-.82,1.62-1.2l1.74-1Z"/><path class="cls-1" d="M26.61,17.51l-1.39.84c-.45.31-.87.65-1.31,1l-.65.48-.61.55-1.21,1.09-1.09,1.21c-.18.21-.37.4-.55.61l-.48.65c-.32.44-.66.86-1,1.31l-.84,1.39a9.9,9.9,0,0,0-.76,1.44c-.23.49-.49,1-.7,1.46A26.95,26.95,0,0,0,14.16,39H13.4a26.83,26.83,0,0,1,.9-6.63,27.52,27.52,0,0,1,1-3.18c.21-.51.48-1,.71-1.51a10,10,0,0,1,.79-1.48l.87-1.43c.32-.46.67-.9,1-1.35l.49-.68.57-.62L20.9,20.9l1.25-1.12.62-.57.68-.49c.45-.33.89-.68,1.34-1l1.44-.87Z"/><path class="cls-1" d="M24.54,13.93l-1.62,1c-.52.36-1,.76-1.53,1.13l-.76.57c-.24.2-.47.42-.71.63l-1.4,1.28-1.28,1.4c-.21.24-.43.47-.63.71l-.57.76c-.37.51-.77,1-1.13,1.53l-1,1.62A12.17,12.17,0,0,0,13,26.21c-.27.58-.57,1.13-.81,1.72A30.34,30.34,0,0,0,11,31.53,30,30,0,0,0,10,39H9.79a30.47,30.47,0,0,1,1-7.56A30.84,30.84,0,0,1,12,27.84c.24-.59.55-1.15.82-1.73a12.94,12.94,0,0,1,.89-1.69l1-1.63c.36-.53.76-1,1.13-1.54l.57-.77c.21-.24.43-.47.65-.71l1.28-1.42,1.42-1.28.71-.65.77-.57c.51-.37,1-.77,1.54-1.13l1.63-1Z"/><path class="cls-1" d="M19.9,5.91,17.77,7.22c-.69.47-1.35,1-2,1.48l-1,.75c-.32.27-.62.56-.93.83L12,12l-1.69,1.85c-.27.31-.56.61-.83.93l-.75,1c-.5.67-1,1.33-1.48,2L5.91,19.9a21.23,21.23,0,0,0-1.17,2.21c-.36.76-.75,1.5-1.06,2.27a40.73,40.73,0,0,0-1.59,4.75A39.94,39.94,0,0,0,.76,39H0A40,40,0,0,1,1.36,28.94,39.37,39.37,0,0,1,3,24.09c.33-.79.72-1.54,1.08-2.32a21.08,21.08,0,0,1,1.2-2.25l1.33-2.18c.48-.7,1-1.37,1.51-2.05l.77-1c.28-.33.57-.64.85-1l1.72-1.88,1.88-1.72c.32-.28.63-.57,1-.85l1-.77c.69-.5,1.36-1,2.06-1.51l2.18-1.33Z"/><line class="cls-2" x1="11.64" y1="39.03" x2="11.67" y2="38.55"/><path class="cls-3" d="M11.73,37.6a26.35,26.35,0,0,1,3.79-12.41A26.91,26.91,0,0,1,24.62,16"/><line class="cls-2" x1="25.02" y1="15.7" x2="25.43" y2="15.46"/><path class="cls-1" d="M37.32,8.25v.21l0,.19a24.77,24.77,0,0,0-3.63.42,17.76,17.76,0,0,0-2.38.53l-1.18.3c-.39.11-.77.27-1.15.41l-1.72.62-1.65.79-.11-.16a.59.59,0,0,1-.1-.17A2.92,2.92,0,0,1,25.24,9,3.89,3.89,0,0,1,25.89,8,3.91,3.91,0,0,1,27,7.23a2.88,2.88,0,0,1,.38-2.37,3.55,3.55,0,0,1,.92-1,4.65,4.65,0,0,1,1.34-.58,3.28,3.28,0,0,1,4.23,2.13A3.05,3.05,0,0,1,37.32,8.25Zm-.49-.05a2.63,2.63,0,0,0-1-1.81,2.88,2.88,0,0,0-2.14-.46l-.26,0,0-.24A2.48,2.48,0,0,0,32.14,4a3.22,3.22,0,0,0-2.39-.24,2.77,2.77,0,0,0-2.19,3.51l.08.23-.25.09a2.61,2.61,0,0,0-1.62,3.53c.49-.22,1-.49,1.46-.68l1.52-.55a2.41,2.41,0,0,1,1.8-3.1,2.64,2.64,0,0,1,2,.24,2.41,2.41,0,0,1,1.08,1.57A26.78,26.78,0,0,1,36.83,8.2Z"/><path class="cls-1" d="M52.94,11.51a1,1,0,0,1-.1.17l-.12.16-1.65-.79c-.55-.25-1.14-.43-1.71-.65L48.22,10c-.39-.13-.79-.21-1.18-.32-.79-.17-1.57-.45-2.38-.55A27.52,27.52,0,0,0,41,8.67l0-.2a.67.67,0,0,1,0-.2,3,3,0,0,1,1.07-2.12,3.23,3.23,0,0,1,2.41-.67A2.89,2.89,0,0,1,46,3.6a3.9,3.9,0,0,1,2.74-.22,4.14,4.14,0,0,1,1.33.6A3.9,3.9,0,0,1,51,5a2.84,2.84,0,0,1,.36,2.36,3.11,3.11,0,0,1,1.73,1.83A2.9,2.9,0,0,1,52.94,11.51Zm-.4-.28a2.52,2.52,0,0,0,0-2.05A2.75,2.75,0,0,0,52,8.27a3.11,3.11,0,0,0-1-.59l-.25-.09.09-.22a2.43,2.43,0,0,0-.22-2.11,3.14,3.14,0,0,0-.78-.9,3.61,3.61,0,0,0-1.16-.52,3.4,3.4,0,0,0-2.4.2A2.55,2.55,0,0,0,45,5.78l0,.23-.26,0a3,3,0,0,0-2.15.45,2.57,2.57,0,0,0-1,1.8,9.67,9.67,0,0,1,1.61.17l1.6.25A2.31,2.31,0,0,1,45.8,7.08a2.72,2.72,0,0,1,2-.22,2.42,2.42,0,0,1,1.61,1.22A2.35,2.35,0,0,1,49.56,10l1.52.56Z"/><path class="cls-1" d="M45.42,3.4l-.77.25a.38.38,0,0,1-.21,0c-.63-.09-1.25-.2-1.88-.27l-1.88-.1a1.29,1.29,0,0,1,.22.78,1.31,1.31,0,0,1-.12.48l1.71.09,1.69.24-.61.29a.37.37,0,0,1-.18,0A23.13,23.13,0,0,0,40.51,5a1.73,1.73,0,0,1-1.31.51A1.74,1.74,0,0,1,37.9,5c-1,.07-1.94,0-2.9.2a.32.32,0,0,1-.17,0l-.62-.29a26,26,0,0,1,3.41-.3,1.31,1.31,0,0,1-.12-.47,1.28,1.28,0,0,1,.23-.78A26.26,26.26,0,0,0,34,3.62a.49.49,0,0,1-.21,0L33,3.34c.87-.12,1.73-.29,2.59-.37l2.61-.13a1.86,1.86,0,0,1,1-.31,2,2,0,0,1,1,.33c.87,0,1.74.08,2.6.14Zm-5.64-.14a1.19,1.19,0,0,0-.57-.17,1,1,0,0,0-.58.15.94.94,0,0,0-.49.8.9.9,0,0,0,.17.47A1,1,0,0,0,39,4.9l.21,0h.21a1,1,0,0,0,.67-.39.78.78,0,0,0,.18-.47A.89.89,0,0,0,39.78,3.26Z"/><path class="cls-1" d="M56.07,9.5a.83.83,0,0,1-.16-.12,1.06,1.06,0,0,1-.37-.71.79.79,0,0,1,.08-.5.84.84,0,0,1,.81-.42,1.1,1.1,0,0,1,.56.17l.28-.48a1.76,1.76,0,0,0-1-.28A38.4,38.4,0,0,0,51.48,5l.54.6a.34.34,0,0,0,.17.11,14,14,0,0,1,1.74.75l1.7.82a1.35,1.35,0,0,0-.59.57,1.32,1.32,0,0,0-.13.47l-1.54-.75a12.77,12.77,0,0,0-1.57-.67l.39.54a.49.49,0,0,0,.14.11L55,8.85A2,2,0,0,0,55.8,10Z"/><path class="cls-1" d="M21.8,7.16a1.74,1.74,0,0,0-1,.28l.27.48a1.14,1.14,0,0,1,.57-.17.81.81,0,0,1,.8.42.79.79,0,0,1,.09.5,1.1,1.1,0,0,1-.37.71A.66.66,0,0,1,22,9.5l.28.49a2,2,0,0,0,.85-1.15l2.62-1.25a.35.35,0,0,0,.13-.11l.4-.54a12.14,12.14,0,0,0-1.57.67l-1.55.75A1.14,1.14,0,0,0,23,7.89a1.3,1.3,0,0,0-.59-.57l1.71-.82a13.29,13.29,0,0,1,1.73-.75A.36.36,0,0,0,26,5.63L26.58,5A38.4,38.4,0,0,0,21.8,7.16Z"/><path class="cls-1" d="M54.12,12.89A12.74,12.74,0,0,0,52.37,12c-.59-.27-1.17-.59-1.78-.84a33.58,33.58,0,0,0-3.75-1.24A31.61,31.61,0,0,0,39,8.82a31.61,31.61,0,0,0-7.81,1.06,32.92,32.92,0,0,0-3.75,1.24c-.61.25-1.19.57-1.79.84a13.23,13.23,0,0,0-1.74.93l-.38-.66a13.2,13.2,0,0,1,1.78-1c.62-.29,1.21-.61,1.84-.86A32.37,32.37,0,0,1,39,8.06a32.34,32.34,0,0,1,8,1.08,33.24,33.24,0,0,1,3.84,1.28c.62.25,1.22.57,1.83.86a14,14,0,0,1,1.79,1Z"/><path class="cls-1" d="M51.44,17.51A9.79,9.79,0,0,0,50,16.75c-.49-.23-1-.49-1.47-.7a25.78,25.78,0,0,0-3.08-1A26.16,26.16,0,0,0,39,14.16,26.16,26.16,0,0,0,32.6,15a25.2,25.2,0,0,0-3.08,1c-.51.21-1,.47-1.47.7a9.9,9.9,0,0,0-1.44.76l-.38-.66a10,10,0,0,1,1.48-.79c.51-.23,1-.5,1.51-.71a27.52,27.52,0,0,1,3.18-1A26.83,26.83,0,0,1,39,13.4a26.89,26.89,0,0,1,6.63.9,27.36,27.36,0,0,1,3.17,1c.52.21,1,.48,1.52.71a11.09,11.09,0,0,1,1.48.79Z"/><path class="cls-1" d="M53.52,13.93A11.72,11.72,0,0,0,51.84,13c-.57-.27-1.13-.57-1.71-.81A29.17,29.17,0,0,0,46.53,11,30.13,30.13,0,0,0,39,10a30,30,0,0,0-7.5,1,28.62,28.62,0,0,0-3.6,1.19c-.59.24-1.14.54-1.72.81a12.17,12.17,0,0,0-1.67.89l-.12-.21a12.94,12.94,0,0,1,1.69-.89c.58-.27,1.14-.58,1.73-.82a30.84,30.84,0,0,1,3.63-1.2,30.47,30.47,0,0,1,7.56-1,30.6,30.6,0,0,1,7.56,1A31.47,31.47,0,0,1,50.22,12c.59.24,1.15.55,1.73.82a13.49,13.49,0,0,1,1.68.89Z"/><path class="cls-1" d="M58.15,5.91a17.92,17.92,0,0,0-2.21-1.17c-.75-.36-1.49-.75-2.27-1.06A39.66,39.66,0,0,0,39,.76a39.8,39.8,0,0,0-9.89,1.33,40.26,40.26,0,0,0-4.76,1.59c-.77.31-1.51.7-2.27,1.06A19.48,19.48,0,0,0,19.9,5.91l-.38-.66a21.22,21.22,0,0,1,2.26-1.2c.77-.36,1.52-.76,2.31-1.08a38.68,38.68,0,0,1,25-1.61A39.22,39.22,0,0,1,54,3c.79.32,1.55.72,2.32,1.08a20.16,20.16,0,0,1,2.25,1.2Z"/><line class="cls-2" x1="25.35" y1="15.33" x2="25.76" y2="15.08"/><path class="cls-3" d="M26.61,14.65a27.52,27.52,0,0,1,12.66-2.92A28.06,28.06,0,0,1,51.81,15"/><line class="cls-2" x1="52.23" y1="15.21" x2="52.63" y2="15.46"/><path class="cls-1" d="M64.85,22.15l-.18.1-.18.08a15.58,15.58,0,0,0-1.07-1.49c-.37-.48-.7-1-1.12-1.45l-1.64-1.8c-.58-.57-1.2-1.1-1.8-1.65a11.82,11.82,0,0,0-1.42-1.14c-.5-.37-1-.74-1.47-1.09l.08-.18a.81.81,0,0,1,.1-.18,3.09,3.09,0,0,1,4.41-.66c1.13-1.22,3.22-1.1,4.73.32s1.52,3.58.26,4.73A3.07,3.07,0,0,1,64.85,22.15Zm-.19-.45A2.69,2.69,0,0,0,65,17.83a1.66,1.66,0,0,0-.16-.21l.18-.15c1.16-.93,1.12-2.8-.11-4.13a2.83,2.83,0,0,0-4.14-.14l-.15.18-.19-.17a2.69,2.69,0,0,0-3.89.36c.85.66,1.77,1.25,2.56,2a2.52,2.52,0,1,1,3.55,3.57C63.39,20,64,20.84,64.66,21.7Z"/><path class="cls-1" d="M69.8,37.32h-.2l-.2,0A24.75,24.75,0,0,0,69,33.66a17.76,17.76,0,0,0-.53-2.38l-.3-1.18c-.12-.39-.28-.77-.41-1.15l-.63-1.72-.79-1.65.16-.11.18-.1A2.86,2.86,0,0,1,69,25.25a3.51,3.51,0,0,1,1.08.64,3.64,3.64,0,0,1,.73,1.1,2.87,2.87,0,0,1,2.37.38,3.33,3.33,0,0,1,1,.93,4.35,4.35,0,0,1,.59,1.33,3.27,3.27,0,0,1-2.14,4.23A3,3,0,0,1,69.8,37.32Zm0-.48a2.63,2.63,0,0,0,1.81-1,2.83,2.83,0,0,0,.47-2.14l0-.26.23,0a2.46,2.46,0,0,0,1.74-1.24,3.17,3.17,0,0,0,.24-2.39,2.77,2.77,0,0,0-3.51-2.19l-.22.08-.09-.25a2.62,2.62,0,0,0-3.54-1.62c.23.49.5,1,.68,1.46l.56,1.52a2.4,2.4,0,0,1,3.09,1.8,2.64,2.64,0,0,1-.23,2,2.39,2.39,0,0,1-1.58,1.08A24.83,24.83,0,0,1,69.85,36.84Z"/><path class="cls-1" d="M73.08,26.75l-.6-.54a.57.57,0,0,1-.12-.18L72,25.14l-.41-.85-.82-1.71a1.25,1.25,0,0,1-.57.59,1.32,1.32,0,0,1-.47.13l.75,1.54.36.78.3.8L70.64,26a.36.36,0,0,1-.11-.14c-.39-.89-.83-1.75-1.24-2.62a2,2,0,0,1-1.13-.87A1.67,1.67,0,0,1,68,21c-.26-.4-.49-.83-.78-1.23l-.87-1.16a.3.3,0,0,1,0-.16l0-.69a30.44,30.44,0,0,1,2,2.79,1.26,1.26,0,0,1,.35-.34,1.22,1.22,0,0,1,.79-.18,31.86,31.86,0,0,0-2.17-3.1.37.37,0,0,1-.09-.19c0-.27-.09-.54-.14-.8a40,40,0,0,1,3,4.27,1.83,1.83,0,0,1,.76.73A1.69,1.69,0,0,1,71,22,38.42,38.42,0,0,1,73.08,26.75Zm-2.68-5a1.07,1.07,0,0,0-.17-.56,1.13,1.13,0,0,0-.42-.42.88.88,0,0,0-.92,0,.89.89,0,0,0-.33.39,1,1,0,0,0,0,.79.66.66,0,0,0,.09.19l.12.17a1.17,1.17,0,0,0,.71.37.77.77,0,0,0,.49-.08A.86.86,0,0,0,70.4,21.78Z"/><path class="cls-1" d="M73.14,39a1.48,1.48,0,0,1,0-.21,1,1,0,0,1,.39-.68A.87.87,0,0,1,74,38a.88.88,0,0,1,.79.48A1.11,1.11,0,0,1,75,39h.55a1.93,1.93,0,0,0-.32-1l-.14-2.6c-.11-.87-.25-1.73-.38-2.59l-.26.76a.5.5,0,0,0,0,.21c.08.63.21,1.25.25,1.88l.1,1.88a1.27,1.27,0,0,0-.78-.22,1.21,1.21,0,0,0-.47.12l-.09-1.71c0-.57-.16-1.13-.23-1.7l-.29.62a.33.33,0,0,0,0,.17l.1.72,0,.73.08,1.45a1.62,1.62,0,0,0-.51,1.3Z"/><path class="cls-1" d="M58,8.21a1.86,1.86,0,0,0-.73-.77L57,7.92a1.13,1.13,0,0,1,.42.42.87.87,0,0,1,0,.92.81.81,0,0,1-.39.32,1,1,0,0,1-.79,0,1,1,0,0,1-.18-.1L55.8,10a1.7,1.7,0,0,0,1.4.18,20.58,20.58,0,0,1,2.38,1.65.27.27,0,0,0,.17.06l.68,0-1.37-1-.68-.51L57.65,10A1.46,1.46,0,0,0,58,9.59a1.19,1.19,0,0,0,.19-.78L59,9.3c.26.18.5.38.76.56L61.26,11a.4.4,0,0,0,.2.09c.27.05.54.09.8.16-.67-.56-1.39-1.06-2.08-1.59-.35-.25-.69-.53-1.06-.76Z"/><path class="cls-1" d="M69.23,39a31.51,31.51,0,0,0-2.3-11.56c-.24-.61-.56-1.19-.84-1.79a14.46,14.46,0,0,0-.92-1.74l-1-1.69c-.37-.54-.78-1.06-1.17-1.59l-.59-.79-.66-.74-1.33-1.46-1.47-1.33c-.24-.22-.48-.45-.73-.66l-.79-.59c-.54-.39-1-.8-1.59-1.18l-1.69-1,.38-.66,1.73,1c.56.38,1.09.8,1.63,1.2l.81.61c.26.22.5.45.76.68l1.5,1.36,1.36,1.5.68.75.6.82c.4.54.82,1.07,1.21,1.63l1,1.73a14.44,14.44,0,0,1,1,1.78c.28.62.6,1.21.86,1.84A30.29,30.29,0,0,1,68.91,31,32.22,32.22,0,0,1,70,39Z"/><path class="cls-1" d="M63.9,39A26.53,26.53,0,0,0,62,29.51c-.2-.5-.47-1-.69-1.46a11,11,0,0,0-.76-1.44l-.84-1.39c-.31-.45-.66-.87-1-1.31l-.48-.65c-.17-.21-.37-.4-.55-.61l-1.09-1.21L55.4,20.35c-.2-.18-.39-.37-.6-.55l-.66-.48c-.44-.32-.86-.66-1.3-1l-1.4-.84.39-.66,1.43.87c.46.32.9.67,1.35,1l.67.49c.22.19.42.38.62.57l1.25,1.12,1.13,1.25c.18.21.38.41.56.62l.5.68c.33.45.68.89,1,1.35l.87,1.43A9.93,9.93,0,0,1,62,27.71c.23.51.51,1,.72,1.51a29.58,29.58,0,0,1,1,3.18,27.31,27.31,0,0,1,.9,6.63Z"/><path class="cls-1" d="M68,39a30.47,30.47,0,0,0-1-7.5,32.27,32.27,0,0,0-1.19-3.6c-.24-.59-.55-1.14-.81-1.72a13.37,13.37,0,0,0-.89-1.67l-1-1.62c-.36-.52-.76-1-1.13-1.53l-.57-.76c-.2-.24-.42-.47-.64-.71l-1.27-1.4-1.41-1.28c-.23-.21-.46-.43-.7-.63L56.67,16c-.51-.37-1-.77-1.53-1.13l-1.62-1,.11-.21,1.64,1c.52.36,1,.76,1.54,1.13l.77.57.71.65,1.42,1.28L61,19.77c.21.24.44.47.64.71l.57.77c.38.51.78,1,1.14,1.54l1,1.63a11.89,11.89,0,0,1,.9,1.69c.27.58.57,1.14.81,1.73a29.1,29.1,0,0,1,1.2,3.63,30.48,30.48,0,0,1,1,7.56Z"/><path class="cls-1" d="M77.29,39A39.48,39.48,0,0,0,76,29.13a40.67,40.67,0,0,0-1.58-4.75c-.32-.77-.71-1.51-1.06-2.27a19.56,19.56,0,0,0-1.18-2.21l-1.3-2.13c-.47-.69-1-1.35-1.48-2l-.76-1c-.26-.32-.55-.62-.83-.93L66.09,12l-1.85-1.69c-.31-.27-.62-.56-.94-.83l-1-.75c-.67-.5-1.33-1-2-1.48L58.15,5.91l.38-.66,2.18,1.33c.71.49,1.38,1,2.06,1.51l1,.77.95.85,1.89,1.72,1.72,1.88c.28.32.57.63.84,1l.77,1c.51.68,1,1.35,1.51,2.05l1.33,2.18A18,18,0,0,1,74,21.77c.37.78.76,1.53,1.08,2.32a39.41,39.41,0,0,1,1.62,4.85A40.48,40.48,0,0,1,78.06,39Z"/><line class="cls-2" x1="52.7" y1="15.33" x2="53.11" y2="15.58"/><path class="cls-3" d="M53.92,16.08a27.64,27.64,0,0,1,8.86,9.51,26.86,26.86,0,0,1,3.43,12.49"/><line class="cls-2" x1="66.24" y1="38.56" x2="66.26" y2="39.03"/><path d="M17.73,37.69A22.13,22.13,0,1,0,40.59,15.56,22.16,22.16,0,0,0,17.73,37.69Z"/><path d="M39.87,60.73a22.76,22.76,0,0,1-9-1.85A23.21,23.21,0,0,1,18.6,46.55a22.16,22.16,0,0,1-1.74-8.86,22.25,22.25,0,0,1,1.74-8.83A23.1,23.1,0,0,1,39.86,14.68h.75A23,23,0,0,1,56.14,53.91a23.3,23.3,0,0,1-7.21,4.93,22.63,22.63,0,0,1-8.66,1.89Zm0-43.78a20.76,20.76,0,0,0,0,41.51h0A20.76,20.76,0,0,0,40,17Z"/><path class="cls-4" d="M17.73,37.69A22.13,22.13,0,1,1,40.26,59.86,22.12,22.12,0,0,1,17.73,37.69Zm.52,0A21.6,21.6,0,1,0,40,16.09,21.61,21.61,0,0,0,18.25,37.67Z"/><path d="M40,16.09A21.62,21.62,0,1,0,61.44,37.71,21.59,21.59,0,0,0,40,16.09Zm7.46,4.45a.62.62,0,0,1,.75-.06c.3.14.32.36.31.63,0,.66,0,1.32,0,2a3.41,3.41,0,0,1-.06.44c-.35-.2-.73-.25-.58-.73,0-.08-.06-.23-.14-.28a9.5,9.5,0,0,0-1-.49.31.31,0,0,0-.31.06c-.3.34-.56.13-.92,0,.4-.33.74-.63,1.09-.91S47.23,20.76,47.49,20.54Zm-4.82-1.6c.11-.49.47-.15.78-.14l-.16,1.06c.77-.14,1.36-1,2.33-.43l-1.48.67.8,1.65c-.42,0-.71-.05-.87-.42a3.06,3.06,0,0,0-.31-.56c-.08-.11-.26-.29-.31-.27a.94.94,0,0,0-.38.36,1.45,1.45,0,0,0-.14.43l-.62-.13C42.43,20.41,42.5,19.66,42.67,18.94Zm-3.42-.48a2.3,2.3,0,0,1,1.81.16c-.08.38-.24.44-.55.34a1.71,1.71,0,0,0-.71-.08c-.15,0-.28.15-.42.23.12.09.22.22.35.26s.53.13.79.2.59.28.59.65a.7.7,0,0,1-.57.68,2.55,2.55,0,0,1-1.84-.14c0-.39.16-.46.5-.35a3.26,3.26,0,0,0,.94.08.3.3,0,0,0,.21-.21.3.3,0,0,0-.17-.24c-.3-.1-.62-.15-.92-.24s-.63-.23-.62-.66S38.92,18.56,39.25,18.46Zm-4,.63c0-.15.68-.31.77-.21.61.65,1.15,1.37,1.75,2.12-.42.17-.7.21-.93-.13a.45.45,0,0,0-.35-.15,4.15,4.15,0,0,0-.85.18c-.12,0-.3.19-.3.29,0,.43-.31.47-.77.53C34.83,20.79,35,19.92,35.28,19.09ZM30.5,20.8l.54.84L32.3,21l-.39-.89.7-.32c.31.76.62,1.48.89,2.22,0,.05-.16.23-.28.28a.38.38,0,0,1-.35-.07,5.28,5.28,0,0,1-.36-.75c-.37.19-.72.35-1,.54-.07,0-.09.23-.06.32s.2.32.25.5a.35.35,0,0,1-.13.32c-.13.06-.39.1-.43.05-.43-.64-.83-1.31-1.25-2Zm9.39,2.52A14.4,14.4,0,1,1,25.46,37.65,14.37,14.37,0,0,1,39.89,23.32Z"/><path class="cls-4" d="M39.86,52.12a14.4,14.4,0,1,1,14.4-14.2A14.37,14.37,0,0,1,39.86,52.12Zm0-28.22A13.85,13.85,0,1,0,53.73,37.66,13.83,13.83,0,0,0,39.89,23.9Z"/><path class="cls-4" d="M32.51,21.46c-.37.19-.72.35-1,.54-.07,0-.09.23-.06.32s.2.32.25.5a.35.35,0,0,1-.13.32c-.13.06-.39.1-.43.05-.43-.64-.83-1.31-1.25-2l.66-.39.54.84L32.3,21l-.39-.89.7-.32c.31.76.62,1.48.89,2.22,0,.05-.16.23-.28.28a.38.38,0,0,1-.35-.07A5.28,5.28,0,0,1,32.51,21.46Z"/><path class="cls-4" d="M45.62,19.43l-1.48.67.8,1.65c-.42,0-.71-.05-.87-.42a3.06,3.06,0,0,0-.31-.56c-.08-.11-.26-.29-.31-.27a.94.94,0,0,0-.38.36,1.45,1.45,0,0,0-.14.43l-.62-.13c.12-.75.19-1.5.36-2.22.11-.49.47-.15.78-.14l-.16,1.06C44.06,19.72,44.65,18.86,45.62,19.43Z"/><path class="cls-4" d="M48.47,23.54c-.35-.2-.73-.25-.58-.73,0-.08-.06-.23-.14-.28a9.5,9.5,0,0,0-1-.49.31.31,0,0,0-.31.06c-.3.34-.56.13-.92,0,.4-.33.74-.63,1.09-.91s.57-.39.83-.61a.62.62,0,0,1,.75-.06c.3.14.32.36.31.63,0,.66,0,1.32,0,2A3.41,3.41,0,0,1,48.47,23.54Zm-1.4-1.9.82.4V21Z"/><path class="cls-4" d="M34.6,21.72c.23-.93.4-1.8.68-2.63,0-.15.68-.31.77-.21.61.65,1.15,1.37,1.75,2.12-.42.17-.7.21-.93-.13a.45.45,0,0,0-.35-.15,4.15,4.15,0,0,0-.85.18c-.12,0-.3.19-.3.29C35.34,21.62,35.06,21.66,34.6,21.72Zm1.83-1.45-.66-.86-.26,1.05Z"/><path class="cls-4" d="M41.06,18.62c-.08.38-.24.44-.55.34a1.71,1.71,0,0,0-.71-.08c-.15,0-.28.15-.42.23.12.09.22.22.35.26s.53.13.79.2.59.28.59.65a.7.7,0,0,1-.57.68,2.55,2.55,0,0,1-1.84-.14c0-.39.16-.46.5-.35a3.26,3.26,0,0,0,.94.08.3.3,0,0,0,.21-.21.3.3,0,0,0-.17-.24c-.3-.1-.62-.15-.92-.24s-.63-.23-.62-.66.28-.58.61-.68A2.3,2.3,0,0,1,41.06,18.62Z"/><path d="M39.89,23.9A13.85,13.85,0,1,1,26,37.69,13.81,13.81,0,0,1,39.89,23.9Zm-3.45,5.51a3.15,3.15,0,0,1,.32-.05c.3,0,.6,0,.9,0s.4-.1.39-.4c0-.87,0-1.73,0-2.59s0-.93-.89-.72a12.32,12.32,0,1,0,13.27,5.73,12,12,0,0,0-8.65-5.86c-.32-.06-.45,0-.44.36,0,1,0,1.93,0,2.89,0,.59,0,.59.62.59h1.12v.14c-.18.15-.43.26-.53.45a1.07,1.07,0,0,1-.79.6c-.21,0-.33.15-.24.4s0,.5-.33.62a.29.29,0,0,1-.05-.1c0-.48,0-.95,0-1.43,0-.95.19-.82-.9-.84-.28,0-.38.1-.37.38,0,.75,0,1.5,0,2.25a3,3,0,0,1,0,.42h-.13c0-.13,0-.26,0-.39,0-.64,0-1.27,0-1.91,0-.85.1-.71-.77-.75-.42,0-.52.13-.5.52,0,.59,0,1.19,0,1.88-.18-.11-.33-.16-.32-.2,0-.63-.35-.85-.84-1.1C36.91,30.13,36.71,29.73,36.44,29.41Zm1.67-4.18c0,.14,0,.25,0,.37,0,.93,0,1.87,0,2.81,0,.11.1.23.16.34.06-.12.18-.23.18-.35,0-.94,0-1.88,0-2.81s.16-.91-.86-.73a13,13,0,1,0,4.63,0c-.45-.09-.9-.13-1.37-.2,0,.18,0,.3-.06.41,0,1.11,0,2.22,0,3.33,0,.11.11.21.17.32a.93.93,0,0,0,.19-.35c0-.5,0-1,0-1.51V25.17a12.54,12.54,0,1,1-3.12.06Z"/><path d="M47.07,21.64l.82-.61v1Z"/><path d="M36.43,20.27l-.92.19.26-1.05Z"/><path class="cls-4" d="M36.44,29.41c.27.32.47.72.79.89.49.25.88.47.84,1.1,0,0,.14.09.32.2,0-.69,0-1.29,0-1.88,0-.39.08-.54.5-.52.87,0,.76-.1.77.75,0,.64,0,1.27,0,1.91,0,.13,0,.26,0,.39h.13a3,3,0,0,0,0-.42c0-.75,0-1.5,0-2.25,0-.28.09-.38.37-.38,1.09,0,.88-.11.9.84,0,.48,0,.95,0,1.43a.29.29,0,0,0,.05.1c.28-.12.44-.31.33-.62s0-.36.24-.4a1.07,1.07,0,0,0,.79-.6c.1-.19.35-.3.53-.45v-.14H42c-.61,0-.62,0-.62-.59,0-1,0-1.93,0-2.89,0-.35.12-.42.44-.36a12,12,0,0,1,8.65,5.86,12.24,12.24,0,1,1-13.27-5.73c.89-.21.9-.21.89.72s0,1.72,0,2.59c0,.3-.08.42-.39.4s-.6,0-.9,0A3.15,3.15,0,0,0,36.44,29.41ZM37.68,26c-1.24-.09-4,1.27-5.66,2.78a11.64,11.64,0,0,0-4,8.54,11.85,11.85,0,1,0,23.66-.48A11.71,11.71,0,0,0,41.7,26c0,.87,0,1.73,0,2.59,0,.35.09.49.46.47s1,0,1.52,0c-.06.52-.06.91-.62,1.13A4.62,4.62,0,0,0,42,31s0,.08,0,.12c-.12.26-.23.52-.36.78s-.18.41.1.43.33.22.34.46a5.49,5.49,0,0,0,.13,1.53c.68,1.79,1.43,3.55,2.16,5.32l2,4.92c.08.21.22.42-.14.55a18.49,18.49,0,0,1-5.93,1.26,21.4,21.4,0,0,1-6.34-1.17c-.39-.12-.45-.27-.31-.64.9-2.39,1.81-4.77,2.64-7.18.54-1.56,1.45-3,1.27-4.79a.31.31,0,0,1,.17-.25c.44-.07.33-.29.14-.5-.35-.37-.32-1-.93-1.18-.07,0-.09-.18-.15-.26s-.16-.2-.25-.21c-.7-.07-.55-.64-.72-1.13.52,0,1,0,1.4,0s.53-.09.5-.48,0-.81,0-1.21S37.68,26.45,37.68,26Zm2.16,6.75h-.13a1,1,0,0,0-.05.23c0,.79,0,1.59,0,2.38s.18.81-.87.83c-.3,0-.4-.1-.4-.4,0-.88,0-1.76,0-2.63,0-.15-.15-.28-.22-.42a1.59,1.59,0,0,0-.22.43c-.09.51-.1,1-.23,1.52s-.41,1.16-.63,1.75c-1,2.62-1.92,5.24-2.9,7.86-.12.31-.08.48.26.56s.55.17.83.25a16.93,16.93,0,0,0,5.19.79,18.43,18.43,0,0,0,5-1c.35-.11.45-.24.3-.61-1.26-3-2.49-6.11-3.75-9.15a4.26,4.26,0,0,1-.45-2c0-.12-.14-.25-.22-.37-.07.13-.21.26-.21.39,0,.73,0,1.47,0,2.2,0,1,.11.84-.87.88-.31,0-.41-.1-.4-.4,0-.86,0-1.73,0-2.59C39.87,33.07,39.85,32.92,39.84,32.77Zm.45,2.95c.4.16.44,0,.44-.34V31.06c0-.37,0-.75,0-1.12,0-.11-.15-.21-.23-.32-.07.12-.15.23-.22.34s0,.06,0,.08v5.27C40.27,35.45,40.28,35.59,40.29,35.72Zm-1.08-3h0c0-.9,0-1.81,0-2.71,0-.12-.12-.24-.19-.36-.07.12-.2.23-.2.35q0,2.72,0,5.43c0,.12.13.24.19.36.07-.12.2-.23.2-.35C39.22,34.51,39.21,33.61,39.21,32.7Z"/><path class="cls-4" d="M38.11,25.23a12.55,12.55,0,1,0,3.12-.06v1.72c0,.5,0,1,0,1.51a.93.93,0,0,1-.19.35c-.06-.11-.17-.21-.17-.32,0-1.11,0-2.22,0-3.33,0-.11,0-.23.06-.41.47.07.92.11,1.37.2a12.93,12.93,0,1,1-4.63,0c1-.18.85-.15.86.73s0,1.87,0,2.81c0,.12-.12.23-.18.35-.06-.11-.16-.23-.16-.34,0-.94,0-1.88,0-2.81C38.13,25.48,38.12,25.37,38.11,25.23Z"/><path d="M37.68,26c0,.43,0,.88,0,1.32s0,.81,0,1.21-.13.5-.5.48-.88,0-1.4,0c.17.49,0,1.06.72,1.13.09,0,.18.13.25.21s.08.24.15.26c.61.16.58.81.93,1.18.19.21.3.43-.14.5a.31.31,0,0,0-.17.25c.18,1.76-.73,3.23-1.27,4.79-.83,2.41-1.74,4.79-2.64,7.18-.14.37-.08.52.31.64a21.4,21.4,0,0,0,6.34,1.17,18.49,18.49,0,0,0,5.93-1.26c.36-.13.22-.34.14-.55l-2-4.92c-.73-1.77-1.48-3.53-2.16-5.32A5.49,5.49,0,0,1,42,32.75c0-.24,0-.44-.34-.46s-.2-.24-.1-.43.24-.52.36-.78c0,0,0-.1,0-.12a4.62,4.62,0,0,1,1-.81c.56-.22.56-.61.62-1.13-.53,0-1,0-1.52,0s-.47-.12-.46-.47c0-.86,0-1.72,0-2.59a11.71,11.71,0,0,1,10,10.89,11.85,11.85,0,1,1-23.66.48,11.64,11.64,0,0,1,4-8.54C33.67,27.29,36.44,25.93,37.68,26Zm-.14,1.28a10.65,10.65,0,1,0,13,9.73,10.47,10.47,0,0,0-8.63-9.79c0,.39,0,.77,0,1.15s.09.47.44.46,1,0,1.61,0a3.43,3.43,0,0,1-.37,1.24,2.58,2.58,0,0,1-.84.64c-.66.27-.55,1-1.11,1.35l.58.15c0,.28,0,.53,0,.79a4,4,0,0,0,.38,1.88c1.31,3.1,2.59,6.22,3.89,9.33.33.81.32.81-.54,1.13a15.78,15.78,0,0,1-6.76,1.13,24.48,24.48,0,0,1-5.47-1.23c-.37-.12-.4-.27-.27-.61,1.06-2.81,2.11-5.61,3.13-8.42.42-1.15,1.07-2.26.86-3.56,0-.33,0-.55.4-.57-.14-.33-.26-.63-.4-.92a.33.33,0,0,0-.18-.17c-.53-.15-.63-.9-1.27-.9,0,0-.05-.06-.06-.1-.09-.36-.17-.72-.27-1.16.57,0,1.06,0,1.54,0,.13,0,.35-.14.36-.24C37.56,28.17,37.54,27.76,37.54,27.3Z"/><path d="M39.84,32.77c0,.15,0,.3,0,.45,0,.86,0,1.73,0,2.59,0,.3.09.41.4.4,1,0,.86.14.87-.88,0-.73,0-1.47,0-2.2,0-.13.14-.26.21-.39.08.12.23.25.22.37a4.26,4.26,0,0,0,.45,2c1.26,3,2.49,6.1,3.75,9.15.15.37,0,.5-.3.61a18.43,18.43,0,0,1-5,1,16.93,16.93,0,0,1-5.19-.79c-.28-.08-.55-.18-.83-.25s-.38-.25-.26-.56c1-2.62,1.94-5.24,2.9-7.86.22-.59.47-1.16.63-1.75s.14-1,.23-1.52a1.59,1.59,0,0,1,.22-.43c.07.14.21.27.22.42,0,.87,0,1.75,0,2.63,0,.3.1.4.4.4,1,0,.85.07.87-.83s0-1.59,0-2.38a1,1,0,0,1,.05-.23Z"/><path d="M40.29,35.72c0-.13,0-.27,0-.41V30s0-.06,0-.08.15-.22.22-.34c.08.11.22.21.23.32,0,.37,0,.75,0,1.12v4.32C40.73,35.68,40.69,35.88,40.29,35.72Z"/><path d="M39.21,32.7c0,.91,0,1.81,0,2.72,0,.12-.13.23-.2.35-.06-.12-.19-.24-.19-.36q0-2.71,0-5.43c0-.12.13-.23.2-.35.07.12.19.24.19.36,0,.9,0,1.81,0,2.71Z"/><path class="cls-4" d="M37.54,27.3c0,.46,0,.87,0,1.28,0,.1-.23.24-.36.24-.48,0-1,0-1.54,0,.1.44.18.8.27,1.16,0,0,0,.1.06.1.64,0,.74.75,1.27.9a.33.33,0,0,1,.18.17c.14.29.26.59.4.92-.36,0-.45.24-.4.57.21,1.3-.44,2.41-.86,3.56-1,2.81-2.07,5.61-3.13,8.42-.13.34-.1.49.27.61a24.48,24.48,0,0,0,5.47,1.23,15.78,15.78,0,0,0,6.76-1.13c.86-.32.87-.32.54-1.13-1.3-3.11-2.58-6.23-3.89-9.33A4,4,0,0,1,42.18,33c0-.26,0-.51,0-.79l-.58-.15c.56-.35.45-1.08,1.11-1.35a2.58,2.58,0,0,0,.84-.64,3.43,3.43,0,0,0,.37-1.24c-.61,0-1.12,0-1.61,0s-.46-.13-.44-.46,0-.76,0-1.15A10.47,10.47,0,0,1,50.51,37a10.62,10.62,0,1,1-13-9.73Z"/><path class="cls-4" d="M32,55a.79.79,0,0,1-.15-.12,1,1,0,0,1-.11-.15l.18-.1a1.15,1.15,0,0,0,.14.17.64.64,0,0,0,.2.11.52.52,0,0,0,.26,0,.2.2,0,0,0,.14-.13h0a.2.2,0,0,0,0-.13.25.25,0,0,0-.08-.1.56.56,0,0,0-.14-.1h0a1.51,1.51,0,0,1-.21-.14.34.34,0,0,1-.11-.17.38.38,0,0,1,0-.25h0a.38.38,0,0,1,.14-.2.42.42,0,0,1,.22-.08.79.79,0,0,1,.29.06l.14.07.13.1a1.71,1.71,0,0,1,.11.14l-.18.11a.61.61,0,0,0-.12-.15l-.15-.09a.56.56,0,0,0-.24,0,.23.23,0,0,0-.15.14h0a.15.15,0,0,0,0,.13.35.35,0,0,0,.08.1l.15.1h0a1.57,1.57,0,0,1,.19.15.31.31,0,0,1,.09.17.41.41,0,0,1,0,.24h0a.5.5,0,0,1-.15.2.52.52,0,0,1-.23.07.83.83,0,0,1-.29-.06Z"/><path class="cls-4" d="M33.16,55.43a.35.35,0,0,1-.1-.2.51.51,0,0,1,0-.27l0-.11a.68.68,0,0,1,.13-.24.39.39,0,0,1,.2-.12.44.44,0,0,1,.25,0,.35.35,0,0,1,.2.13.42.42,0,0,1,.08.23.83.83,0,0,1,0,.3l0,.07L33.23,55l.05-.16.5.16a.4.4,0,0,0,0-.22.18.18,0,0,0-.13-.11.2.2,0,0,0-.2,0,.35.35,0,0,0-.13.19l0,.13a.29.29,0,0,0,0,.21.26.26,0,0,0,.17.13.27.27,0,0,0,.13,0l.13,0,.09.18a.54.54,0,0,1-.21,0,.44.44,0,0,1-.2,0A.52.52,0,0,1,33.16,55.43Z"/><path class="cls-4" d="M34.25,55.77a.38.38,0,0,1-.09-.18.69.69,0,0,1,0-.24l.06-.23a.64.64,0,0,1,.1-.22.36.36,0,0,1,.16-.11.34.34,0,0,1,.2,0,.38.38,0,0,1,.15.09.28.28,0,0,1,.09.17l-.07.2a.2.2,0,0,0,0-.11.13.13,0,0,0,0-.09.17.17,0,0,0-.1-.06.22.22,0,0,0-.18,0,.28.28,0,0,0-.1.16l0,.22a.24.24,0,0,0,0,.19.2.2,0,0,0,.14.11h.11a.15.15,0,0,0,.09-.06.29.29,0,0,0,.06-.11l0,.23a.27.27,0,0,1-.13.1.4.4,0,0,1-.19,0A.52.52,0,0,1,34.25,55.77Zm.82-1.31.21,0L34.9,56l-.2,0Z"/><path class="cls-4" d="M35.06,56.24l.12,0h0a.08.08,0,0,0,0-.06l.26-1.2.21,0-.26,1.19a.26.26,0,0,1-.11.19.21.21,0,0,1-.19,0l-.14,0Zm.54-1.66.21,0-.05.21-.21,0Z"/><path class="cls-4" d="M35.9,56.11a.32.32,0,0,1-.06-.26.29.29,0,0,1,.13-.22.36.36,0,0,1,.28,0l.3,0v.17l-.31-.05a.17.17,0,0,0-.13,0,.17.17,0,0,0,0,.23.3.3,0,0,0,.16.06.38.38,0,0,0,.18,0s.07,0,.07-.07v.15a.16.16,0,0,1-.08.06l-.1,0h-.12A.46.46,0,0,1,35.9,56.11Zm.65-.51a.19.19,0,0,0,0-.17.18.18,0,0,0-.14-.09.57.57,0,0,0-.13,0l-.12,0L36,55.25a.51.51,0,0,1,.18-.09.54.54,0,0,1,.22,0,.48.48,0,0,1,.22.08.31.31,0,0,1,.12.16.41.41,0,0,1,0,.22l-.11.68-.2,0Z"/><path class="cls-4" d="M37.17,54.86l.21,0-.17,1.5-.21,0Zm0,1.1.62-.6.25,0-.91.82Zm.27-.18.15-.13.38.81-.23,0Z"/><path class="cls-4" d="M38.73,56.33l.55-.68a.37.37,0,0,0,.07-.12.35.35,0,0,0,0-.12h0a.17.17,0,0,0,0-.14.25.25,0,0,0-.15,0,.2.2,0,0,0-.15,0,.22.22,0,0,0-.08.15h-.22a.73.73,0,0,1,.09-.22.37.37,0,0,1,.15-.13.36.36,0,0,1,.21,0,.52.52,0,0,1,.23.05.32.32,0,0,1,.14.14.46.46,0,0,1,0,.21h0a.35.35,0,0,1,0,.17.51.51,0,0,1-.09.16l-.46.58.57,0v.2l-.84,0Z"/><path class="cls-4" d="M40,56.44a.43.43,0,0,1-.11-.31l0-.68a.42.42,0,0,1,.11-.32.39.39,0,0,1,.31-.12.4.4,0,0,1,.32.11.39.39,0,0,1,.12.31v.68a.41.41,0,0,1-.1.32.49.49,0,0,1-.32.12A.46.46,0,0,1,40,56.44Zm.48-.15a.23.23,0,0,0,0-.17v-.69a.21.21,0,0,0-.22-.22.22.22,0,0,0-.17.06.29.29,0,0,0,0,.17l0,.68a.26.26,0,0,0,.05.17.26.26,0,0,0,.33,0Z"/><path class="cls-4" d="M41.16,56.4a.43.43,0,0,1-.14-.3L41,55.42a.43.43,0,0,1,.09-.33.43.43,0,0,1,.31-.13.43.43,0,0,1,.33.09.44.44,0,0,1,.13.3l.05.68a.43.43,0,0,1-.09.33.41.41,0,0,1-.31.13A.4.4,0,0,1,41.16,56.4Zm.47-.18a.29.29,0,0,0,0-.17l-.05-.68a.27.27,0,0,0-.07-.17.22.22,0,0,0-.17,0,.2.2,0,0,0-.16.07.29.29,0,0,0,0,.17l0,.68a.29.29,0,0,0,.07.17.22.22,0,0,0,.17,0A.2.2,0,0,0,41.63,56.22Z"/><path class="cls-4" d="M42.46,56.34a.36.36,0,0,1-.18-.12A.49.49,0,0,1,42.2,56v0a.41.41,0,0,1,0-.22.37.37,0,0,1,.13-.17.3.3,0,0,1-.14-.11.33.33,0,0,1-.07-.16v0a.36.36,0,0,1,0-.21.33.33,0,0,1,.13-.16.66.66,0,0,1,.21-.08.57.57,0,0,1,.23,0,.52.52,0,0,1,.17.12.6.6,0,0,1,.08.2v0a.29.29,0,0,1,0,.18.36.36,0,0,1-.11.14.3.3,0,0,1,.17.12.4.4,0,0,1,.09.21v0a.45.45,0,0,1,0,.23.36.36,0,0,1-.14.16.42.42,0,0,1-.23.08A.38.38,0,0,1,42.46,56.34Zm.23-.89a.16.16,0,0,0,.07-.09.23.23,0,0,0,0-.12h0a.36.36,0,0,0,0-.11.15.15,0,0,0-.09-.06.14.14,0,0,0-.11,0,.15.15,0,0,0-.11,0,.16.16,0,0,0-.06.08.22.22,0,0,0,0,.12h0a.21.21,0,0,0,0,.11.27.27,0,0,0,.08.07.25.25,0,0,0,.12,0A.15.15,0,0,0,42.69,55.45Zm.11.67a.32.32,0,0,0,.08-.09.28.28,0,0,0,0-.13h0a.24.24,0,0,0-.14-.19h-.14a.26.26,0,0,0-.12.05.16.16,0,0,0-.07.09.17.17,0,0,0,0,.12v0a.22.22,0,0,0,.05.11.14.14,0,0,0,.1.07.18.18,0,0,0,.13,0A.21.21,0,0,0,42.8,56.12Z"/><path class="cls-4" d="M44.63,55.35l0,.2-.68.14,0-.19Z"/><path class="cls-4" d="M45.61,55.57l.3-.82a.35.35,0,0,0,0-.14.24.24,0,0,0,0-.12h0a.19.19,0,0,0-.09-.12.27.27,0,0,0-.16,0,.18.18,0,0,0-.12.1.23.23,0,0,0,0,.17h0l-.2.06h0a.59.59,0,0,1,0-.23.42.42,0,0,1,.11-.18.54.54,0,0,1,.18-.11.69.69,0,0,1,.24,0,.28.28,0,0,1,.17.09.36.36,0,0,1,.11.19h0a.44.44,0,0,1,0,.17,1.16,1.16,0,0,1,0,.18l-.25.69.55-.16,0,.19-.81.25Z"/><path class="cls-4" d="M46.85,55.27a.38.38,0,0,1-.21-.25l-.24-.65a.47.47,0,0,1,0-.33.38.38,0,0,1,.26-.21.45.45,0,0,1,.34,0,.47.47,0,0,1,.21.26l.23.64a.45.45,0,0,1,0,.34.46.46,0,0,1-.27.21A.38.38,0,0,1,46.85,55.27Zm.4-.3a.2.2,0,0,0,0-.17L47,54.15a.26.26,0,0,0-.1-.14.28.28,0,0,0-.18,0,.24.24,0,0,0-.14.12.26.26,0,0,0,0,.17l.23.64a.27.27,0,0,0,.11.14.19.19,0,0,0,.18,0A.18.18,0,0,0,47.25,55Z"/><path class="cls-4" d="M48.24,54.84l-.19.08-.49-1.18-.15.21-.08-.2.14-.22.2-.08Z"/><path class="cls-4" d="M48.74,54.59a.36.36,0,0,1-.2-.06.45.45,0,0,1-.16-.15l.2-.1a.15.15,0,0,0,.08.08.12.12,0,0,0,.1,0l.11,0a.2.2,0,0,0,.12-.12.18.18,0,0,0,0-.16l0,0a.24.24,0,0,0-.12-.14.2.2,0,0,0-.17,0l-.1.05-.08-.18.1-.05a.18.18,0,0,0,.1-.11.21.21,0,0,0,0-.15l0,0a.2.2,0,0,0-.11-.11.28.28,0,0,0-.15,0l-.08.06a.25.25,0,0,0,0,.09.45.45,0,0,0,0,.11l-.19.09a.42.42,0,0,1,0-.22.36.36,0,0,1,.07-.18.37.37,0,0,1,.17-.13.39.39,0,0,1,.31,0,.43.43,0,0,1,.22.22v0a.39.39,0,0,1,0,.21.32.32,0,0,1-.11.18.3.3,0,0,1,.23,0,.38.38,0,0,1,.16.19v0a.37.37,0,0,1,0,.22.32.32,0,0,1-.07.19.58.58,0,0,1-.19.15A.63.63,0,0,1,48.74,54.59Z"/></g></g></svg>