<svg xmlns="http://www.w3.org/2000/svg" viewBox="0 0 65.42 92.83"><defs><style>.cls-1{fill:#474747;}.cls-2{font-size:9.66px;font-family:LemonDessertItalic, Lemon Dessert;letter-spacing:0.02em;}.cls-2,.cls-3{fill:#454545;}.cls-3{font-size:3.98px;letter-spacing:0.05em;}.cls-3,.cls-8{font-family:Montserrat-SemiBold, Montserrat;font-weight:600;}.cls-4{letter-spacing:0.03em;}.cls-5{letter-spacing:0.05em;}.cls-6{letter-spacing:0.05em;}.cls-7{letter-spacing:0.04em;}.cls-8{font-size:6.63px;fill:#9c9c9d;}</style></defs><g id="Layer_2" data-name="Layer 2"><g id="OBJECTS"><path class="cls-1" d="M50.48,53.6c-.72-2.34-4.44-4-9.08-4.83l.12,4.52c3.67.74,6.2,1.91,7.16,3.07l0,.06c-1.36,1.18-3.87,2.17-7.07,2.81l-.85.15L40.51,47a.88.88,0,0,0,0-.16h.81a1.15,1.15,0,0,0,1.15-1.14V33.13a.42.42,0,0,0-.43-.42h-.29a.42.42,0,0,0-.43.42v7.76a.42.42,0,0,1-.42.42h0a.42.42,0,0,1-.42-.42V33.13a.42.42,0,0,0-.43-.42h-.29a.42.42,0,0,0-.43.42v7.76a.42.42,0,0,1-.42.42h0a.42.42,0,0,1-.42-.42V33.13a.42.42,0,0,0-.43-.42h-.29a.42.42,0,0,0-.42.42v7.76a.43.43,0,0,1-.85,0V33.13a.42.42,0,0,0-.42-.42h-.3a.42.42,0,0,0-.42.42V45.67a1.14,1.14,0,0,0,1.14,1.14h.87a.88.88,0,0,0,0,.16L37,59.86l-.85.06c-1,.06-2,.1-3.09.1-.65,0-1.3,0-1.94,0l-.85,0L30,46.69a3.16,3.16,0,0,1,1-2.35,7.76,7.76,0,0,0,2.06-5.55c0-3.68-2.05-6.65-4.58-6.65s-4.59,3-4.59,6.65a7.79,7.79,0,0,0,2,5.52,3.17,3.17,0,0,1,1,2.34l-.33,12.93-.85-.13c-3.78-.62-6.77-1.7-8.3-3l.05-.06c1.06-1.29,4.07-2.59,8.42-3.3L26,48.55c-5.2.8-9.55,2.5-10.33,5a2.76,2.76,0,0,0,0,1.61,3.21,3.21,0,0,0,.65,1.16l.2.25a16.49,16.49,0,0,0,.5,2.42,16.69,16.69,0,0,0,32.07,0,17.91,17.91,0,0,0,.5-2.42l.2-.25a3.37,3.37,0,0,0,.65-1.16,2.72,2.72,0,0,0,.12-.8A2.63,2.63,0,0,0,50.48,53.6Z"/><path class="cls-1" d="M31,52.56c.68,0,1.38-.05,2.1-.05,1.14,0,2.22,0,3.26.11l.1-4.47c-1.11-.08-2.24-.12-3.36-.12-.72,0-1.46,0-2.19,0Z"/><text class="cls-2" transform="translate(14.76 84.79)">IBU UPEH</text><text class="cls-3" transform="translate(20.3 91.77)">SE<tspan class="cls-4" x="5.56" y="0">J</tspan><tspan class="cls-5" x="7.8" y="0">AK </tspan><tspan class="cls-6" x="15.37" y="0">2</tspan><tspan class="cls-7" x="17.87" y="0">0</tspan><tspan class="cls-6" x="20.72" y="0">2</tspan><tspan class="cls-5" x="23.22" y="0">0</tspan></text><text class="cls-8" transform="matrix(0.58, -0.82, 0.82, 0.58, 5.48, 36.8)">K</text><text class="cls-8" transform="matrix(0.72, -0.7, 0.7, 0.72, 8.97, 32)">E</text><text class="cls-8" transform="matrix(0.83, -0.56, 0.56, 0.83, 12.98, 28.14)">D</text><text class="cls-8" transform="matrix(0.92, -0.39, 0.39, 0.92, 18.43, 24.63)">A</text><text class="cls-8" transform="matrix(0.97, -0.25, 0.25, 0.97, 24.16, 22.44)">I</text><text class="cls-8" transform="matrix(0.99, -0.15, 0.15, 0.99, 27.4, 21.69)"> </text><text class="cls-8" transform="matrix(1, -0.06, 0.06, 1, 30.4, 21.3)"> </text><text class="cls-8" transform="matrix(0.99, 0.11, -0.11, 0.99, 33.35, 21.04)">M</text><text class="cls-8" transform="matrix(0.95, 0.31, -0.31, 0.95, 40.71, 22.01)">A</text><text class="cls-8" transform="matrix(0.88, 0.48, -0.48, 0.88, 46.44, 24)">K</text><text class="cls-8" transform="matrix(0.77, 0.63, -0.63, 0.77, 51.43, 26.84)">A</text><text class="cls-8" transform="matrix(0.64, 0.77, -0.77, 0.64, 56.08, 30.75)">N</text></g></g></svg>