<svg xmlns="http://www.w3.org/2000/svg" viewBox="0 0 96.61 80.39"><defs><style>.cls-1{fill:#2d4922;}.cls-2{fill:#2b4721;}</style></defs><g id="Layer_2" data-name="Layer 2"><g id="Layer_1-2" data-name="Layer 1"><path class="cls-1" d="M51.19.07V0H49.54V.07C36,1.66,25.41,13.88,25.41,28.68a30.76,30.76,0,0,0,.43,5.12,29.51,29.51,0,0,0,2.88,8.64A22,22,0,0,1,27,35.28l.72,0c-.12-.48-.22-1-.31-1.47a28.52,28.52,0,0,1-.47-5.18C26.93,16,35.14,5.27,46.21,2.26,36.59,6.69,29.85,16.87,29.85,28.68a29.84,29.84,0,0,0,.51,5.55c.09.51.2,1,.32,1.53.54.11,1.1.24,1.67.4-.14-.52-.27-1-.38-1.59a29.27,29.27,0,0,1-.6-5.89C31.37,16.4,39,6,49.54,2.59v.3a29,29,0,0,0-15.42,26,30.5,30.5,0,0,0,.72,6.61c.13.59.28,1.17.44,1.74.62.26,1.25.56,1.88.9-.21-.63-.41-1.27-.58-1.92a28.93,28.93,0,0,1-.94-7.33A27.52,27.52,0,0,1,49.54,4.61V5.77A29.34,29.34,0,0,0,38.39,29a30.38,30.38,0,0,0,1.33,8.9c.26.83.55,1.65.87,2.44A21.36,21.36,0,0,1,44,43.82a27.46,27.46,0,0,1-2.14-4.31,28.47,28.47,0,0,1-2-10.5A27.91,27.91,0,0,1,49.54,7.73v2.54a30.08,30.08,0,0,0,0,37.8v2.22L49,49.78a26.24,26.24,0,0,1-3.31-3.59,22.07,22.07,0,0,1,2,4.47c.6.55,1.23,1.08,1.87,1.58v.83c-.48-.26-.95-.54-1.41-.83.19.73.32,1.41.43,2l.79.43-.77-.27q.14.8.18,1.44a24.9,24.9,0,0,1-12.84-4.46,26.25,26.25,0,0,0,13.62,5.87v.07h1.65v-.06a26.29,26.29,0,0,0,13.87-6.06A24.84,24.84,0,0,1,52,55.87c0-.42.1-.9.18-1.43l-.73.26c.26-.13.51-.27.76-.41.1-.62.24-1.3.42-2-.46.29-.93.57-1.4.83v-.82c.64-.5,1.26-1,1.85-1.57A23.08,23.08,0,0,1,55,46.35a25.86,25.86,0,0,1-3.22,3.47l-.56.49V48.1a30.06,30.06,0,0,0,0-37.86V7.7A27.9,27.9,0,0,1,60.84,29a28.79,28.79,0,0,1-2,10.47,27.82,27.82,0,0,1-2.05,4.17,21.54,21.54,0,0,1,3.35-3.33c.32-.8.61-1.61.87-2.44A30.5,30.5,0,0,0,62.37,29,29.35,29.35,0,0,0,51.19,5.74V4.59A27.54,27.54,0,0,1,65.12,28.84a28.85,28.85,0,0,1-.94,7.32c-.17.64-.36,1.28-.57,1.91.63-.34,1.25-.64,1.87-.9.17-.57.31-1.15.44-1.73a30.48,30.48,0,0,0,.72-6.6,29,29,0,0,0-15.45-26V2.58C61.71,6,69.39,16.39,69.39,28.68a29.27,29.27,0,0,1-.6,5.89c-.11.53-.24,1.06-.38,1.58.57-.15,1.13-.29,1.67-.4q.18-.75.33-1.53a30.52,30.52,0,0,0,.5-5.54c0-11.81-6.74-22-16.36-26.42C65.62,5.27,73.83,16,73.83,28.68a28.52,28.52,0,0,1-.47,5.18q-.14.75-.3,1.47l.68,0a22,22,0,0,1-1.88,7.5,29.8,29.8,0,0,0,3.06-9,30.76,30.76,0,0,0,.43-5.12C75.35,13.87,64.76,1.65,51.19.07Zm-6.81,29.1a28.24,28.24,0,0,1,5.16-16.39V45.56A28.24,28.24,0,0,1,44.38,29.17Zm12,0a28.27,28.27,0,0,1-5.19,16.44V12.73A28.27,28.27,0,0,1,56.38,29.17Z"/><path class="cls-1" d="M74.12,36.09,74,35.2l-.53-.35-.36.16,0,0-.44.4-6,5.42-.07-.31-.72-3.31,0-.15-.14-.65-.15-.69c-.45.15-.91.31-1.37.49l-.08,0,0,.13.29,1.32v.05l.86,4,.07.3-3.49,3.15-.07-.3-1.07-4.92,0-.23-.09-.42-.17-.8h0c-.52.39-1.14.88-1.44,1.09h0l0,0,.42,1.06.08.37,1.09,5,0,.34-3.49,3.14-.07-.3-1-4.44-.18-.83L55.6,42.8c-.43.54-.83,1.09-1.2,1.64l.22,1,.24,1.1.82,3.78.06.32L52.26,53.8l-1.77,1.59-.85.77.73.79.3.33,1.59-1.43,4.51-4.08,4.86,1.55.19.07,1.29.41a16.35,16.35,0,0,1,1.68-1.06l-1.25-.4-.08,0-5.38-1.72,3.53-3.2,5.64,1.81.12,0,1.47.47q.57-.63,1-1.26L68.52,48,68.35,48l-5.43-1.74,3.44-3.11,4.32,1.38.27.09,1.2.38c.25-.46.47-.92.68-1.38l-1.16-.37-.3-.09-3.7-1.19,5.94-5.37Z"/><path class="cls-1" d="M26.51,35.92l.1-.9.53-.35.36.17,0,0,.44.39,6,5.42.07-.3L34.75,37l0-.15.14-.66.14-.68c.46.15.91.31,1.38.49l.07,0,0,.13-.28,1.32v.05l-.86,3.95-.08.3,3.5,3.16.06-.31,1.07-4.91,0-.24.09-.41.18-.8h0c.53.39,1.15.88,1.45,1.09h0l0,0-.42,1.06-.07.36-1.09,5,0,.33,3.48,3.15.07-.31,1-4.44.17-.82.24-1.1q.66.83,1.2,1.65l-.22,1-.24,1.1-.82,3.78,0,.32,3.48,3.14,1.77,1.6L51,56l-.73.8-.3.32-1.58-1.43-4.51-4.08L39,53.15l-.19.06-1.29.41a18.1,18.1,0,0,0-1.67-1.06l1.24-.4.09,0,5.38-1.73L39,47.22,33.38,49l-.13,0-1.47.47q-.55-.62-1.05-1.26l1.37-.44.18,0L37.71,46l-3.45-3.11L30,44.31l-.28.09-1.19.38c-.25-.47-.48-.93-.68-1.38L29,43l.29-.1L33,41.75,27,36.37Z"/><path class="cls-1" d="M75.31,33.8h-.39c-.41,0-.94,0-1.56.06a25.75,25.75,0,0,0-3,.36c-.52.09-1.06.21-1.62.35a24.91,24.91,0,0,0-2.87.87q-.86.31-1.74.72a23.13,23.13,0,0,0-3.13,1.72l-.66.44c-.39.28-.77.56-1.16.87l-.18.14-.17.15A22.78,22.78,0,0,0,55.6,42.8c-.43.54-.83,1.09-1.2,1.64a24.07,24.07,0,0,0-2.65,5.38,25.1,25.1,0,0,0-1.26,5.57c-.07.66-.1,1.2-.12,1.56,0,.17,0,.3,0,.4h.83A26.91,26.91,0,0,0,63.58,54c.56-.32,1.12-.67,1.68-1.06A22.3,22.3,0,0,0,68.67,50,23.27,23.27,0,0,0,75.31,33.8Zm-3.45,9-.19.42c-.22.46-.46.91-.72,1.37A21.07,21.07,0,0,1,68.52,48c-.3.35-.61.69-1,1-.06.07-.13.13-.2.2a22.19,22.19,0,0,1-2.31,2c-.53.39-1.07.75-1.6,1.08a20.8,20.8,0,0,1-1.83,1,25.66,25.66,0,0,1-9.37,2.53l-.3,0c0-.42.1-.9.18-1.43l0-.15a4.21,4.21,0,0,1,.09-.49c.08-.49.19-1,.33-1.54s.28-1,.45-1.56h0a22.78,22.78,0,0,1,1.82-4.15,2,2,0,0,0,.11-.2c.33-.56.68-1.1,1.05-1.63.26-.37.52-.72.8-1.07h0A20.41,20.41,0,0,1,59.41,41c.25-.23.51-.44.77-.65l0,0,.53-.41a22.21,22.21,0,0,1,2.88-1.82l.81-.42c.35-.17.71-.33,1.06-.48l.36-.15a25.14,25.14,0,0,1,2.57-.87c.57-.15,1.13-.29,1.67-.4.92-.18,1.78-.3,2.57-.38l.41,0,.34,0,.34,0c0,.12,0,.25,0,.37,0,.28,0,.59-.1.9A21.74,21.74,0,0,1,71.86,42.78Zm-10.81-4.9c-.14.46-.3.91-.46,1.36s-.27.72-.41,1.08l0,0,.53-.41a22.21,22.21,0,0,1,2.88-1.82c.19-.57.37-1.15.52-1.74,0,0,0-.1.05-.16h0A23.13,23.13,0,0,0,61.05,37.88Zm4.87-2.44c-.07.31-.14.62-.22.93s-.14.53-.22.8l.36-.15a25.14,25.14,0,0,1,2.57-.87c.14-.52.27-1,.38-1.58A24.91,24.91,0,0,0,65.92,35.44Zm4.49-1.22q-.15.78-.33,1.53c.92-.18,1.78-.3,2.57-.38l.41,0c0-.1,0-.21.07-.32.09-.38.16-.76.23-1.15A25.75,25.75,0,0,0,70.41,34.22Z"/><path class="cls-1" d="M49,49.78A23.28,23.28,0,0,0,41.9,39.51l-.4-.32c-.59-.47-1.18-.89-1.78-1.28a24,24,0,0,0-3.14-1.74q-.88-.41-1.74-.72A25,25,0,0,0,32,34.57c-.56-.14-1.1-.25-1.61-.34a28.66,28.66,0,0,0-3-.37c-.62,0-1.15,0-1.56-.06h-.42A23.29,23.29,0,0,0,32.05,50a25.74,25.74,0,0,0,17.49,7.32h.82A24.21,24.21,0,0,0,49,49.78ZM33.16,49a21.29,21.29,0,0,1-4.44-6.6A22,22,0,0,1,27,35.28l.72,0a26.58,26.58,0,0,1,3,.43c.54.11,1.1.24,1.67.4a23.94,23.94,0,0,1,2.93,1c.62.26,1.25.56,1.88.9a22.12,22.12,0,0,1,3.37,2.21l.06.05a21.26,21.26,0,0,1,5.07,5.84,22.07,22.07,0,0,1,2,4.47l0,0c.17.53.32,1,.44,1.54.19.73.32,1.41.43,2,0,0,0,.11,0,.16q.14.8.18,1.44a24.9,24.9,0,0,1-12.84-4.46A22.14,22.14,0,0,1,33.16,49Z"/><path class="cls-2" d="M11,69.67a3.4,3.4,0,0,0-.43-1.09,2.05,2.05,0,0,0-.82-.75,2.66,2.66,0,0,0-1.28-.28A2.9,2.9,0,0,0,6,69a3.11,3.11,0,0,0-1-1,2.48,2.48,0,0,0-1.33-.37,2.3,2.3,0,0,0-1.21.35,2.93,2.93,0,0,0-.92.9h0v-1H0v8H1.54V71.87a8.78,8.78,0,0,1,.06-1.06,4,4,0,0,1,.23-.92,1.45,1.45,0,0,1,.54-.7,1.57,1.57,0,0,1,.95-.27,1.24,1.24,0,0,1,.81.25,1.55,1.55,0,0,1,.45.64,3.25,3.25,0,0,1,.18.82c0,.27,0,.59,0,.93V75.8H6.33V71.87a8.72,8.72,0,0,1,.06-1.07,3.11,3.11,0,0,1,.23-.92,1.55,1.55,0,0,1,.54-.69,1.52,1.52,0,0,1,.94-.27,1.3,1.3,0,0,1,.77.21,1.27,1.27,0,0,1,.46.54,2.61,2.61,0,0,1,.2.74,5.71,5.71,0,0,1,.06.86V75.8h1.54V71A6.84,6.84,0,0,0,11,69.67Z"/><path class="cls-2" d="M13.52,67.79v8h1.54v-8Z"/><path class="cls-2" d="M24.23,69.63a3.13,3.13,0,0,0-.45-1.09,2.07,2.07,0,0,0-.89-.73,3.25,3.25,0,0,0-1.37-.26,3.13,3.13,0,0,0-1.42.34,2.42,2.42,0,0,0-1,1h0V67.79H17.53v8h1.54V72.12c0-.5,0-.92,0-1.25a3.46,3.46,0,0,1,.22-1,1.5,1.5,0,0,1,.6-.72,2,2,0,0,1,1.13-.28,1.54,1.54,0,0,1,1.42.56,3.4,3.4,0,0,1,.34,1.74V75.8h1.54V71A6.67,6.67,0,0,0,24.23,69.63Z"/><path class="cls-2" d="M33.18,69.63a3,3,0,0,0-.45-1.09,2.1,2.1,0,0,0-.88-.73,3.3,3.3,0,0,0-1.38-.26,3.12,3.12,0,0,0-1.41.34,2.39,2.39,0,0,0-1,1h0V65.6H26.48V75.8H28V72.12c0-.5,0-.92,0-1.25a3.47,3.47,0,0,1,.23-1,1.5,1.5,0,0,1,.6-.72A2,2,0,0,1,30,68.92a1.56,1.56,0,0,1,1.43.56,3.52,3.52,0,0,1,.33,1.74V75.8h1.54V71A6.67,6.67,0,0,0,33.18,69.63Z"/><path class="cls-2" d="M42.47,71.81a4.75,4.75,0,0,0-1-3.07,3.38,3.38,0,0,0-2.79-1.19,3.55,3.55,0,0,0-2.89,1.2,4.65,4.65,0,0,0-1,3.12,5,5,0,0,0,.27,1.66,4,4,0,0,0,.79,1.34,3.48,3.48,0,0,0,1.24.89,4.05,4.05,0,0,0,1.63.32,4.18,4.18,0,0,0,2.17-.59,4.11,4.11,0,0,0,1.55-1.6l-1.3-.74a3.88,3.88,0,0,1-1,1.17,2.3,2.3,0,0,1-1.38.39A2.18,2.18,0,0,1,37,73.92a2.9,2.9,0,0,1-.68-1.87h6.11Zm-6-.92a2.38,2.38,0,0,1,.77-1.44,2.19,2.19,0,0,1,1.51-.56,2.12,2.12,0,0,1,1.49.54,2.37,2.37,0,0,1,.72,1.46Z"/><path class="cls-2" d="M47.67,67.55a2.22,2.22,0,0,0-1.32.41,2.54,2.54,0,0,0-.87,1.13h0v-1.3H43.89v8h1.54V71.87a7.07,7.07,0,0,1,.07-1.06,2.87,2.87,0,0,1,.26-.89,1.59,1.59,0,0,1,.56-.65,1.8,1.8,0,0,1,1-.25,1.38,1.38,0,0,1,.94.33l.7-1.4A2.27,2.27,0,0,0,47.67,67.55Z"/><path class="cls-2" d="M55.77,67.79v1.34h0A3.53,3.53,0,0,0,54.55,68,3.1,3.1,0,0,0,53,67.55a3.5,3.5,0,0,0-1.56.34,3.56,3.56,0,0,0-1.19.92,4.2,4.2,0,0,0-.77,1.35,5.14,5.14,0,0,0,0,3.23,4.39,4.39,0,0,0,.75,1.4,3.39,3.39,0,0,0,1.21.94,3.69,3.69,0,0,0,1.61.35,3,3,0,0,0,1.54-.41,3.6,3.6,0,0,0,1.18-1.12h0V75.8h1.54v-8Zm-.61,6.08a2.34,2.34,0,0,1-1.91.84,2.26,2.26,0,0,1-1.85-.86,3.2,3.2,0,0,1-.68-2,3.1,3.1,0,0,1,.69-2,2.26,2.26,0,0,1,1.84-.85,2.36,2.36,0,0,1,1.9.83,3.07,3.07,0,0,1,.7,2A3.15,3.15,0,0,1,55.16,73.87Z"/><path class="cls-2" d="M59.38,65.6V75.8h1.54V65.6Z"/><path class="cls-2" d="M71.33,71.11l3.42-3.32h-2l-3,3V65.6H68.16V75.8H69.7V72.69l.53-.53,2.86,3.64h2Z"/><path class="cls-2" d="M83.48,70.15a4.11,4.11,0,0,0-.91-1.37,4.35,4.35,0,0,0-1.37-.9,4.37,4.37,0,0,0-3.33,0,4.17,4.17,0,0,0-1.38.9,4.29,4.29,0,0,0-.92,1.37,4.49,4.49,0,0,0,0,3.33,4.14,4.14,0,0,0,.92,1.36,4.35,4.35,0,0,0,3,1.24,4.25,4.25,0,0,0,1.67-.33,4.37,4.37,0,0,0,1.37-.91,4,4,0,0,0,.91-1.36,4.37,4.37,0,0,0,0-3.33Zm-1.43,2.73a2.87,2.87,0,0,1-.59.9,2.94,2.94,0,0,1-.87.6,2.66,2.66,0,0,1-2.12,0,3.12,3.12,0,0,1-.88-.6,3.05,3.05,0,0,1-.59-.9,2.83,2.83,0,0,1-.21-1.07A2.71,2.71,0,0,1,77,70.75a3.05,3.05,0,0,1,.59-.9,2.57,2.57,0,0,1,.89-.61,2.64,2.64,0,0,1,2.11,0,2.63,2.63,0,0,1,.88.61,2.56,2.56,0,0,1,.59.9,2.71,2.71,0,0,1,.21,1.06A2.66,2.66,0,0,1,82.05,72.88Z"/><path class="cls-2" d="M93,70.16a4.32,4.32,0,0,0-.76-1.34,3.66,3.66,0,0,0-1.2-.93,3.58,3.58,0,0,0-1.54-.34,3.1,3.1,0,0,0-1.59.42,3.78,3.78,0,0,0-1.2,1.16h0V67.79H85.09v12.6h1.54V74.55h0a3.64,3.64,0,0,0,1.19,1.12,3,3,0,0,0,1.53.41A3.77,3.77,0,0,0,91,75.73a3.3,3.3,0,0,0,1.21-.94A4.19,4.19,0,0,0,93,73.41a5.38,5.38,0,0,0,.25-1.66A5,5,0,0,0,93,70.16Zm-2,3.71a2.34,2.34,0,0,1-1.91.84,2.26,2.26,0,0,1-1.85-.86,3.2,3.2,0,0,1-.68-2,3.1,3.1,0,0,1,.69-2,2.25,2.25,0,0,1,1.84-.85,2.37,2.37,0,0,1,1.9.83,3.07,3.07,0,0,1,.7,2A3.15,3.15,0,0,1,91,73.87Z"/><path class="cls-2" d="M95.07,67.79v8h1.54v-8Z"/><rect class="cls-2" x="13.53" y="65.69" width="1.46" height="1.46"/><rect class="cls-2" x="95.04" y="65.69" width="1.46" height="1.46"/></g></g></svg>