<svg xmlns="http://www.w3.org/2000/svg" xmlns:xlink="http://www.w3.org/1999/xlink" viewBox="0 0 60 63.91"><defs><style>.cls-1{fill:#4d8dcb;}.cls-2{fill:#4a93cf;}.cls-3{fill:#4f98d2;}.cls-4{fill:#61a3d8;}.cls-5{fill:#72b0e0;}.cls-6{fill:#8dc8ed;}.cls-7{fill:url(#radial-gradient);}.cls-8{fill:url(#linear-gradient);}.cls-9{fill:url(#radial-gradient-2);}.cls-10{fill:url(#radial-gradient-3);}.cls-11{fill:url(#linear-gradient-2);}.cls-12{fill:url(#radial-gradient-4);}.cls-13{fill:url(#radial-gradient-5);}.cls-14{fill:#603a16;}</style><radialGradient id="radial-gradient" cx="17.96" cy="32.25" r="14.54" gradientUnits="userSpaceOnUse"><stop offset="0" stop-color="#fdf9ce"/><stop offset="0.11" stop-color="#f9f0bd"/><stop offset="0.33" stop-color="#f0da90"/><stop offset="0.37" stop-color="#eed688"/><stop offset="0.69" stop-color="#eabb1f"/><stop offset="1" stop-color="#c2912e"/></radialGradient><linearGradient id="linear-gradient" x1="4.15" y1="22.3" x2="35.81" y2="22.3" gradientUnits="userSpaceOnUse"><stop offset="0.01" stop-color="#fbca28"/><stop offset="0.25" stop-color="#fdf9ce"/><stop offset="0.3" stop-color="#f7eebd"/><stop offset="0.41" stop-color="#e6d190"/><stop offset="0.55" stop-color="#cca248"/><stop offset="0.6" stop-color="#c2912e"/><stop offset="0.87" stop-color="#eed688"/><stop offset="1" stop-color="#fdf9ce"/></linearGradient><radialGradient id="radial-gradient-2" cx="10.07" cy="22.24" r="13.26" xlink:href="#radial-gradient"/><radialGradient id="radial-gradient-3" cx="42.04" cy="32.25" r="14.54" xlink:href="#radial-gradient"/><linearGradient id="linear-gradient-2" x1="28.22" y1="22.3" x2="59.88" y2="22.3" xlink:href="#linear-gradient"/><radialGradient id="radial-gradient-4" cx="34.14" cy="22.24" r="13.26" xlink:href="#radial-gradient"/><radialGradient id="radial-gradient-5" cx="-1788.47" cy="-1742.92" r="19.32" gradientTransform="translate(1485.61 1450.58) scale(0.82 0.82)" xlink:href="#radial-gradient"/><symbol id="logoLF" data-name="logoLF" viewBox="0 0 60 63.91"><polygon class="cls-1" points="46.22 2.08 42.05 6.28 44.13 2.09 46.22 2.08"/><polygon class="cls-2" points="46.22 2.08 44.13 2.09 44.12 0 46.22 2.08"/><polygon class="cls-3" points="44.12 0 44.13 2.09 42.03 0.01 44.12 0"/><polygon class="cls-3" points="44.13 2.09 42.05 6.28 39.95 2.1 44.13 2.09"/><polygon class="cls-4" points="44.13 2.09 39.95 2.1 42.03 0.01 44.13 2.09"/><polygon class="cls-5" points="42.03 0.01 39.95 2.1 39.94 0.01 42.03 0.01"/><polygon class="cls-5" points="39.95 2.1 42.05 6.28 37.85 2.11 39.95 2.1"/><polygon class="cls-6" points="39.94 0.01 39.95 2.1 37.85 2.11 39.94 0.01"/><path class="cls-7" d="M35.81,22.25a19.8,19.8,0,0,1,.12,2.05A18,18,0,0,1,20,42.14a17.66,17.66,0,0,1-4.11,0A18,18,0,0,1,0,24.3a17.36,17.36,0,0,1,.12-2.05A18,18,0,0,0,17.25,38.14h1.43A18,18,0,0,0,35.81,22.25Z"/><path class="cls-8" d="M35.81,22.25A18,18,0,0,1,18.68,38.14,13.87,13.87,0,0,0,31.8,25c0-.23,0-.47,0-.71s0-.47,0-.71,0-.23,0-.34a13.86,13.86,0,0,0-27.63,0A18,18,0,0,1,18,6.81,15.39,15.39,0,0,1,20,6.46,18,18,0,0,1,35.81,22.25Z"/><path class="cls-9" d="M18,6.34A17.36,17.36,0,0,1,20,6.46,15.39,15.39,0,0,0,18,6.81,18,18,0,0,0,4.15,23.25c0,.11,0,.23,0,.34s0,.47,0,.71,0,.48,0,.71A13.87,13.87,0,0,0,17.25,38.14,18,18,0,0,1,.12,22.25,18,18,0,0,1,15.91,6.46,17.41,17.41,0,0,1,18,6.34Z"/><path class="cls-10" d="M59.88,22.25A17.36,17.36,0,0,1,60,24.3,18,18,0,0,1,44.09,42.14a17.66,17.66,0,0,1-4.11,0A18,18,0,0,1,24.07,24.3a19.8,19.8,0,0,1,.12-2.05A18,18,0,0,0,41.33,38.14h1.42A18,18,0,0,0,59.88,22.25Z"/><path class="cls-11" d="M59.88,22.25A18,18,0,0,1,42.75,38.14,13.87,13.87,0,0,0,55.87,25c0-.23,0-.47,0-.71s0-.47,0-.71,0-.23,0-.34a13.86,13.86,0,0,0-27.63,0A18,18,0,0,1,42,6.81a15.67,15.67,0,0,1,2.05-.35A18,18,0,0,1,59.88,22.25Z"/><path class="cls-12" d="M42,6.34a17.36,17.36,0,0,1,2.05.12A15.67,15.67,0,0,0,42,6.81,18,18,0,0,0,28.22,23.25c0,.11,0,.23,0,.34s0,.47,0,.71,0,.48,0,.71A13.87,13.87,0,0,0,41.33,38.14,18,18,0,0,1,24.19,22.25,18,18,0,0,1,40,6.46,17.53,17.53,0,0,1,42,6.34Z"/><path class="cls-13" d="M31.78,23.25c0,.11,0,.23,0,.34s0,.47,0,.71,0,.48,0,.71a13.09,13.09,0,0,1-1.8,6.1c.22.39.35.54.47.79s.32.47.52.77a17.69,17.69,0,0,0,4.82-10.42A18,18,0,0,0,20,6.46,15.39,15.39,0,0,0,18,6.81,18,18,0,0,0,4.15,23.25a13.86,13.86,0,0,1,27.63,0Z"/><path class="cls-14" d="M5.34,49.62a.47.47,0,0,0-.27.28,2.15,2.15,0,0,0-.07.66v6a2,2,0,0,0,.07.65.41.41,0,0,0,.27.27,1.88,1.88,0,0,0,.63.08h.88A2.46,2.46,0,0,0,8,57.32a1.18,1.18,0,0,0,.56-.67,5.56,5.56,0,0,0,.27-1.37h.28a8.86,8.86,0,0,0,0,1c0,.46,0,1,.08,1.54q-.81,0-2.76,0c-1.54,0-2.7,0-3.49,0v-.24a2.25,2.25,0,0,0,.64-.09.46.46,0,0,0,.27-.29,2.38,2.38,0,0,0,.07-.65v-6a2.52,2.52,0,0,0-.07-.66.47.47,0,0,0-.27-.28,2.25,2.25,0,0,0-.64-.09v-.24c.34,0,.85,0,1.54,0s1.16,0,1.53,0v.24A2.11,2.11,0,0,0,5.34,49.62Z"/><path class="cls-14" d="M12.72,49.62a.47.47,0,0,0-.27.28,2.15,2.15,0,0,0-.07.66v6a2,2,0,0,0,.07.65.46.46,0,0,0,.27.29,2.11,2.11,0,0,0,.63.09v.24q-.55,0-1.53,0c-.69,0-1.2,0-1.54,0v-.24a2.11,2.11,0,0,0,.63-.09.41.41,0,0,0,.27-.29,2,2,0,0,0,.08-.65v-6a2.09,2.09,0,0,0-.08-.66.42.42,0,0,0-.27-.28,2.11,2.11,0,0,0-.63-.09v-.24c.34,0,.85,0,1.54,0s1.16,0,1.53,0v.24A2.11,2.11,0,0,0,12.72,49.62Z"/><path class="cls-14" d="M18.15,49.32q1.77,0,2.52,0c-.05.57-.08,1.08-.08,1.54s0,.73,0,1h-.27a7.53,7.53,0,0,0-.24-1.39,1.15,1.15,0,0,0-.51-.66,2.27,2.27,0,0,0-1.11-.21h-.76a2.27,2.27,0,0,0-.63.07.44.44,0,0,0-.27.28,2,2,0,0,0-.07.65v3h.88a.82.82,0,0,0,.8-.37,1.87,1.87,0,0,0,.25-.73c0-.25,0-.42.06-.49H19c0,.39,0,.77,0,1.13v.57c0,.43,0,1,.07,1.71h-.28c0-.05,0-.24-.07-.58A1.19,1.19,0,0,0,18.4,54a1.07,1.07,0,0,0-.76-.25h-.88v2.77a1.69,1.69,0,0,0,.09.65.52.52,0,0,0,.34.29,3.32,3.32,0,0,0,.78.09v.24q-.62,0-1.77,0c-.69,0-1.2,0-1.54,0v-.24a2.25,2.25,0,0,0,.64-.09.46.46,0,0,0,.27-.29,2.38,2.38,0,0,0,.07-.65v-6a2.52,2.52,0,0,0-.07-.66.47.47,0,0,0-.27-.28,2.25,2.25,0,0,0-.64-.09v-.24C15.45,49.31,16.61,49.32,18.15,49.32Z"/><path class="cls-14" d="M28,56.27c0,.46,0,1,.08,1.54q-.81,0-2.76,0c-1.54,0-2.7,0-3.49,0v-.24a2.11,2.11,0,0,0,.63-.09.45.45,0,0,0,.28-.29,2.38,2.38,0,0,0,.07-.65v-6a2.52,2.52,0,0,0-.07-.66.46.46,0,0,0-.28-.28,2.11,2.11,0,0,0-.63-.09v-.24c.79,0,2,0,3.49,0q1.77,0,2.52,0c-.05.52-.08,1-.08,1.42a7.48,7.48,0,0,0,0,.75H27.5a6.82,6.82,0,0,0-.22-1.17,1,1,0,0,0-.45-.55,2,2,0,0,0-.95-.18h-1a2.27,2.27,0,0,0-.63.07.44.44,0,0,0-.27.28,2,2,0,0,0-.07.65V53.4h.79a.84.84,0,0,0,.81-.36,2.09,2.09,0,0,0,.25-.74q0-.37.06-.48h.28c0,.39,0,.77,0,1.13v.58c0,.4,0,1,.07,1.71h-.27c0-.06,0-.25-.07-.59a1.19,1.19,0,0,0-.33-.75,1.06,1.06,0,0,0-.76-.26h-.79v2.9a2,2,0,0,0,.07.65.41.41,0,0,0,.27.27,1.88,1.88,0,0,0,.63.08h.88a2.51,2.51,0,0,0,1.15-.21,1.15,1.15,0,0,0,.56-.64,4.9,4.9,0,0,0,.27-1.29H28Q28,55.73,28,56.27Z"/><path class="cls-14" d="M29.37,50.83c0-.47,0-1-.08-1.54q1,0,3.39,0c1.59,0,2.72,0,3.38,0-.05.57-.08,1.08-.08,1.54a9.09,9.09,0,0,0,0,1h-.28a6.76,6.76,0,0,0-.24-1.39,1.1,1.1,0,0,0-.5-.66,2.27,2.27,0,0,0-1.11-.21h-.65v6.85a2.16,2.16,0,0,0,.09.73.52.52,0,0,0,.34.32,2.71,2.71,0,0,0,.78.11v.24q-.63,0-1.77,0c-.8,0-1.39,0-1.78,0v-.24a2.6,2.6,0,0,0,.78-.11.5.5,0,0,0,.34-.32,1.89,1.89,0,0,0,.1-.73V49.56h-.65a2.27,2.27,0,0,0-1.11.21,1.15,1.15,0,0,0-.51.66,8.5,8.5,0,0,0-.24,1.39h-.27Q29.37,51.43,29.37,50.83Z"/><path class="cls-14" d="M39.66,49.62a.47.47,0,0,0-.27.28,2.15,2.15,0,0,0-.07.66v6a2,2,0,0,0,.07.65.46.46,0,0,0,.27.29,2.11,2.11,0,0,0,.63.09v.24q-.55,0-1.53,0c-.69,0-1.2,0-1.54,0v-.24a2.25,2.25,0,0,0,.64-.09.46.46,0,0,0,.27-.29,2,2,0,0,0,.07-.65v-6a2.15,2.15,0,0,0-.07-.66.47.47,0,0,0-.27-.28,2.25,2.25,0,0,0-.64-.09v-.24c.34,0,.85,0,1.54,0s1.16,0,1.53,0v.24A2.11,2.11,0,0,0,39.66,49.62Z"/><path class="cls-14" d="M50.45,49.62a.47.47,0,0,0-.27.28,2.09,2.09,0,0,0-.08.66v6a2,2,0,0,0,.08.65.46.46,0,0,0,.27.29,2.11,2.11,0,0,0,.63.09v.24c-.38,0-.88,0-1.53,0s-1.2,0-1.54,0v-.24a2.11,2.11,0,0,0,.63-.09.46.46,0,0,0,.27-.29,2,2,0,0,0,.07-.65V50.09l-2.9,7.78h-.19l-3-7.81v6.35a2.12,2.12,0,0,0,.08.7.55.55,0,0,0,.31.34,1.88,1.88,0,0,0,.7.12v.24q-.44,0-1.23,0c-.48,0-.85,0-1.12,0v-.24a1.5,1.5,0,0,0,.62-.12.53.53,0,0,0,.28-.34,2.12,2.12,0,0,0,.08-.7V50.56a2.15,2.15,0,0,0-.07-.66.47.47,0,0,0-.27-.28,2.25,2.25,0,0,0-.64-.09v-.24c.27,0,.64,0,1.12,0s.77,0,1,0l2.65,7,2.58-7h.57c.65,0,1.15,0,1.53,0v.24A2.11,2.11,0,0,0,50.45,49.62Z"/><path class="cls-14" d="M58.56,56.27c0,.46,0,1,.08,1.54q-.81,0-2.76,0c-1.54,0-2.7,0-3.49,0v-.24a2.11,2.11,0,0,0,.63-.09.45.45,0,0,0,.28-.29,2.38,2.38,0,0,0,.07-.65v-6a2.52,2.52,0,0,0-.07-.66.46.46,0,0,0-.28-.28,2.11,2.11,0,0,0-.63-.09v-.24c.79,0,2,0,3.49,0q1.77,0,2.52,0c0,.52-.08,1-.08,1.42a7.48,7.48,0,0,0,0,.75h-.27a6.82,6.82,0,0,0-.22-1.17,1,1,0,0,0-.45-.55,2,2,0,0,0-.95-.18h-1a2.27,2.27,0,0,0-.63.07.44.44,0,0,0-.27.28,2,2,0,0,0-.07.65V53.4h.79a.84.84,0,0,0,.81-.36,2.09,2.09,0,0,0,.25-.74q0-.37.06-.48h.28c0,.39,0,.77,0,1.13v.58c0,.4,0,1,.07,1.71h-.27c0-.06,0-.25-.07-.59A1.19,1.19,0,0,0,56,53.9a1.06,1.06,0,0,0-.76-.26h-.79v2.9a2,2,0,0,0,.07.65.41.41,0,0,0,.27.27,1.88,1.88,0,0,0,.63.08h.88a2.48,2.48,0,0,0,1.15-.21,1.15,1.15,0,0,0,.56-.64,4.9,4.9,0,0,0,.27-1.29h.28A6.85,6.85,0,0,0,58.56,56.27Z"/><path class="cls-14" d="M3.72,60.34h.42l.36,1.41c0,.24.1.45.14.68h0c.06-.23.11-.45.17-.68l.38-1.41h.4L6,61.75c.06.24.11.45.17.68h0c.05-.23.1-.44.15-.68l.36-1.41h.39l-.65,2.44H5.92l-.35-1.31c-.06-.23-.1-.45-.16-.7h0c-.06.25-.11.48-.17.71l-.34,1.3H4.39Z"/><path class="cls-14" d="M8.41,61.57a1.18,1.18,0,0,1,1.1-1.29c.62,0,1,.45,1,1.15a1.4,1.4,0,0,1,0,.23H8.82a.81.81,0,0,0,.81.86,1.08,1.08,0,0,0,.61-.2l.14.27a1.41,1.41,0,0,1-.8.25A1.16,1.16,0,0,1,8.41,61.57Zm1.71-.2c0-.49-.22-.76-.61-.76s-.64.28-.7.76Z"/><path class="cls-14" d="M11.91,61.57A1.16,1.16,0,0,1,13,60.28a1,1,0,0,1,.68.29l0-.42v-.94H14v3.57H13.7l0-.28h0a1.05,1.05,0,0,1-.74.34C12.3,62.84,11.91,62.38,11.91,61.57Zm1.72.59V60.88a.87.87,0,0,0-.59-.25c-.39,0-.7.38-.7.93s.24.94.67.94A.82.82,0,0,0,13.63,62.16Z"/><path class="cls-14" d="M15.7,61.57a1.16,1.16,0,0,1,1.05-1.29,1,1,0,0,1,.69.29l0-.42v-.94h.41v3.57h-.34l0-.28h0a1.07,1.07,0,0,1-.74.34C16.09,62.84,15.7,62.38,15.7,61.57Zm1.72.59V60.88a.89.89,0,0,0-.6-.25c-.39,0-.7.38-.7.93s.25.94.67.94A.82.82,0,0,0,17.42,62.16Z"/><path class="cls-14" d="M19.58,59.58a.27.27,0,0,1,.29-.27.26.26,0,0,1,.28.27.26.26,0,0,1-.28.26A.27.27,0,0,1,19.58,59.58Zm.08.76h.41v2.44h-.41Z"/><path class="cls-14" d="M21.9,60.34h.34l0,.36h0a1.16,1.16,0,0,1,.81-.42c.52,0,.75.34.75,1v1.54h-.41V61.29c0-.45-.14-.65-.46-.65a.92.92,0,0,0-.67.38v1.76H21.9Z"/><path class="cls-14" d="M25.46,63.25a.68.68,0,0,1,.36-.55v0a.45.45,0,0,1-.22-.4.58.58,0,0,1,.27-.45v0a.84.84,0,0,1-.32-.66.87.87,0,0,1,.92-.87,1.09,1.09,0,0,1,.34.06h.85v.32h-.5a.74.74,0,0,1,.2.5.83.83,0,0,1-.89.85,1,1,0,0,1-.37-.08.34.34,0,0,0-.15.29c0,.15.1.26.42.26h.48c.57,0,.85.18.85.58s-.48.85-1.23.85C25.87,63.91,25.46,63.67,25.46,63.25Zm1.84-.13c0-.22-.17-.3-.49-.3h-.43l-.31,0a.48.48,0,0,0-.25.41c0,.26.26.42.71.42S27.3,63.38,27.3,63.12Zm-.32-2a.52.52,0,1,0-.51.58A.52.52,0,0,0,27,61.15Z"/><path class="cls-14" d="M31,61.57a1.14,1.14,0,1,1,1.13,1.27A1.17,1.17,0,0,1,31,61.57Zm1.83,0c0-.56-.28-.94-.7-.94s-.7.38-.7.94.28.93.7.93S32.83,62.13,32.83,61.57Z"/><path class="cls-14" d="M34.9,60.34h.34l0,.45h0a.85.85,0,0,1,.7-.51.67.67,0,0,1,.26,0l-.08.37a.61.61,0,0,0-.24,0c-.2,0-.45.14-.61.56v1.56H34.9Z"/><path class="cls-14" d="M37.41,63.25a.7.7,0,0,1,.36-.55v0a.45.45,0,0,1-.22-.4.58.58,0,0,1,.27-.45v0a.86.86,0,0,1,.6-1.53,1,1,0,0,1,.34.06h.85v.32h-.5a.69.69,0,0,1,.2.5.83.83,0,0,1-.89.85.9.9,0,0,1-.36-.08.35.35,0,0,0-.16.29c0,.15.1.26.43.26h.47c.57,0,.86.18.86.58s-.48.85-1.24.85C37.82,63.91,37.41,63.67,37.41,63.25Zm1.84-.13c0-.22-.17-.3-.49-.3h-.42l-.32,0a.5.5,0,0,0-.25.41c0,.26.27.42.71.42S39.25,63.38,39.25,63.12Zm-.31-2a.52.52,0,0,0-.52-.57.52.52,0,0,0-.52.57.52.52,0,1,0,1,0Z"/><path class="cls-14" d="M40.9,62.15c0-.53.46-.8,1.5-.91,0-.31-.11-.62-.51-.62a1.31,1.31,0,0,0-.72.27L41,60.6a1.8,1.8,0,0,1,1-.32c.6,0,.85.4.85,1v1.49h-.34l0-.29h0a1.25,1.25,0,0,1-.81.35A.66.66,0,0,1,40.9,62.15Zm1.5,0v-.68c-.82.1-1.1.3-1.1.61s.19.39.43.39A1,1,0,0,0,42.4,62.19Z"/><path class="cls-14" d="M44.58,60.34h.34l0,.36h0a1.16,1.16,0,0,1,.82-.42c.51,0,.74.34.74,1v1.54h-.41V61.29c0-.45-.14-.65-.46-.65s-.42.13-.67.38v1.76h-.41Z"/><path class="cls-14" d="M48.25,59.58a.27.27,0,0,1,.29-.27.26.26,0,0,1,.28.27.26.26,0,0,1-.28.26A.27.27,0,0,1,48.25,59.58Zm.08.76h.41v2.44h-.41Z"/><path class="cls-14" d="M50.31,62.56l1.28-1.88H50.45v-.34h1.67v.22l-1.29,1.89h1.33v.33H50.31Z"/><path class="cls-14" d="M53.47,61.57a1.18,1.18,0,0,1,1.09-1.29c.63,0,1,.45,1,1.15a1.4,1.4,0,0,1,0,.23H53.88a.81.81,0,0,0,.81.86,1.05,1.05,0,0,0,.6-.2l.15.27a1.41,1.41,0,0,1-.8.25A1.16,1.16,0,0,1,53.47,61.57Zm1.7-.2c0-.49-.22-.76-.6-.76a.76.76,0,0,0-.7.76Z"/><path class="cls-14" d="M57.14,60.34h.34l0,.45h0a.85.85,0,0,1,.69-.51.72.72,0,0,1,.27,0l-.08.37a.64.64,0,0,0-.24,0c-.2,0-.45.14-.62.56v1.56h-.41Z"/></symbol></defs><g id="Layer_2" data-name="Layer 2"><g id="Layer_4" data-name="Layer 4"><use width="60" height="63.91" xlink:href="#logoLF"/></g></g></svg>