<svg xmlns="http://www.w3.org/2000/svg" viewBox="0 0 66.41 79.12"><defs><style>.cls-1,.cls-6{fill:#fff200;}.cls-2{fill:#3a479d;}.cls-3{fill:#ee223e;}.cls-4{fill:#fff8aa;}.cls-5{fill:#231f20;}.cls-6{stroke:#231f20;stroke-miterlimit:10;stroke-width:0.36px;}</style></defs><g id="Layer_2" data-name="Layer 2"><g id="Layer_1-2" data-name="Layer 1"><path class="cls-1" d="M33.18,0h0l.86.83A56.36,56.36,0,0,0,49.35,11a56.16,56.16,0,0,0,12.34,3.94c.94.18,1.89.35,2.84.48.14,0,.22.07.24.21s.1.41.15.62a56,56,0,0,1,1.32,8.64,57.85,57.85,0,0,1,.1,7.33,55.05,55.05,0,0,1-1.07,8.49A52.64,52.64,0,0,1,49.06,69.06a55.65,55.65,0,0,1-15.65,10,.44.44,0,0,1-.39,0c-1.16-.5-2.3-1-3.42-1.6a54.94,54.94,0,0,1-17-13.35A52.06,52.06,0,0,1,5.09,52.47,53.57,53.57,0,0,1,0,31V27.67q.06-2.27.3-4.53a54.48,54.48,0,0,1,1.31-7.5.29.29,0,0,1,.29-.25,52.36,52.36,0,0,0,6-1.19,55.67,55.67,0,0,0,12-4.56A56.69,56.69,0,0,0,32,1.14,14,14,0,0,0,33.18,0Z"/><path class="cls-2" d="M33.22,77.18c-1-.46-1.95-.89-2.79-1.32A53.53,53.53,0,0,1,14,63,50.33,50.33,0,0,1,6.73,51.7,52.26,52.26,0,0,1,1.86,30.93V27.69c0-1.45.14-2.92.29-4.36a53.07,53.07,0,0,1,1-6.28c1.69-.27,3.42-.63,5.17-1.08A58.12,58.12,0,0,0,20.7,11.25,58,58,0,0,0,33.21,2.5,58.26,58.26,0,0,0,48.6,12.64a57.86,57.86,0,0,0,12.74,4.07c.7.13,1.32.25,1.9.34a54.66,54.66,0,0,1,1.19,8,56.1,56.1,0,0,1,.09,7.1,54.36,54.36,0,0,1-1,8.21,50.62,50.62,0,0,1-4.72,13.26A51,51,0,0,1,47.83,67.71,54.18,54.18,0,0,1,33.22,77.18Z"/><path class="cls-3" d="M62.61,25.15a54.45,54.45,0,0,0-.89-6.52L61,18.49A59.18,59.18,0,0,1,47.85,14.3,60,60,0,0,1,33.23,5V75.18a52.71,52.71,0,0,0,13.38-8.82A49.1,49.1,0,0,0,57.14,52.74,48.76,48.76,0,0,0,61.7,40a51.94,51.94,0,0,0,1-7.93A56.28,56.28,0,0,0,62.61,25.15Z"/><path class="cls-4" d="M0,27.67H0V31H0Z"/><polygon class="cls-1" points="34.93 13.54 33.71 12.84 32.43 13.45 32.72 12.07 31.75 11.05 33.15 10.9 33.82 9.65 34.4 10.94 35.79 11.2 34.74 12.14 34.93 13.54"/><polygon class="cls-1" points="29.26 21.45 28.03 20.75 26.76 21.36 27.05 19.98 26.07 18.96 27.48 18.81 28.14 17.57 28.72 18.85 30.11 19.11 29.07 20.05 29.26 21.45"/><polygon class="cls-1" points="40.84 21.45 39.62 20.75 38.35 21.36 38.63 19.98 37.66 18.96 39.06 18.81 39.73 17.57 40.31 18.85 41.7 19.11 40.66 20.05 40.84 21.45"/><path class="cls-5" d="M23.61,64.08a1.64,1.64,0,0,1-1.15-.47l-.13-.12.53-.62L23,63a1,1,0,0,0,.62.27c.15,0,.32,0,.32-.18s-.05-.13-.32-.25l-.41-.18a1,1,0,0,1-.68-.92,1.05,1.05,0,0,1,1.14-1,1.41,1.41,0,0,1,1,.42l.12.12-.49.59-.14-.12a.73.73,0,0,0-.5-.2c-.08,0-.27,0-.27.15s.08.13.33.23l.4.17a1,1,0,0,1,.69.94A1.09,1.09,0,0,1,23.61,64.08Z"/><path class="cls-1" d="M22.58,63.48l.3-.35a1.09,1.09,0,0,0,.74.33c.33,0,.5-.15.5-.37s-.18-.31-.44-.42l-.39-.17a.83.83,0,0,1-.58-.76.87.87,0,0,1,1-.81,1.24,1.24,0,0,1,.88.37l-.26.32a.9.9,0,0,0-.62-.25c-.27,0-.45.13-.45.34s.22.31.46.4l.38.17a.79.79,0,0,1,.58.77.91.91,0,0,1-1,.85A1.47,1.47,0,0,1,22.58,63.48Z"/><polygon class="cls-5" points="24.98 64.03 24.98 60.8 27.07 60.8 27.07 61.59 25.85 61.59 25.85 61.96 26.88 61.96 26.88 62.75 25.85 62.75 25.85 63.24 27.11 63.24 27.11 64.03 24.98 64.03"/><path class="cls-1" d="M25.16,61h1.72v.42H25.67v.73h1v.43h-1v.85h1.26v.43H25.16Z"/><path class="cls-5" d="M28.35,64.08a1.66,1.66,0,0,1-1.16-.47l-.12-.12.53-.62.14.13a.94.94,0,0,0,.62.27c.14,0,.32,0,.32-.18s-.05-.13-.33-.25l-.4-.18a1,1,0,0,1-.69-.92,1.05,1.05,0,0,1,1.14-1,1.45,1.45,0,0,1,1,.42l.11.12-.48.59-.14-.12a.75.75,0,0,0-.51-.2c-.08,0-.26,0-.26.15s.08.13.32.23l.41.17a1,1,0,0,1,.69.94A1.09,1.09,0,0,1,28.35,64.08Z"/><path class="cls-1" d="M27.32,63.48l.29-.35a1.12,1.12,0,0,0,.75.33c.32,0,.5-.15.5-.37s-.19-.31-.45-.42L28,62.5a.83.83,0,0,1-.58-.76.87.87,0,0,1,1-.81,1.26,1.26,0,0,1,.89.37l-.26.32a.93.93,0,0,0-.63-.25c-.27,0-.44.13-.44.34s.21.31.45.4l.39.17a.79.79,0,0,1,.58.77.92.92,0,0,1-1,.85A1.45,1.45,0,0,1,27.32,63.48Z"/><polygon class="cls-5" points="29.71 64.03 29.71 60.8 30.59 60.8 30.59 63.24 31.77 63.24 31.77 64.03 29.71 64.03"/><path class="cls-1" d="M29.9,61h.5v2.43h1.19v.43H29.9Z"/><path class="cls-5" d="M33.5,64l-.23-.78h-.68l-.22.78h-.91l1-3.23h.86L34.42,64Zm-.44-1.54,0-.12-.09-.31-.09.32,0,.11Z"/><path class="cls-1" d="M32.64,61h.6l.93,2.86h-.54l-.43-1.53c-.09-.3-.18-.63-.26-.94h0c-.08.32-.16.64-.25.94l-.44,1.53h-.52Zm-.38,1.68h1.35v.4H32.26Z"/><path class="cls-5" d="M36,64l-.85-1.54V64h-.85V60.8h.82L36,62.34V60.8h.85V64Z"/><path class="cls-1" d="M34.5,61H35l.89,1.6.29.61h0c0-.29-.06-.65-.06-1V61h.48v2.86h-.52l-.89-1.62-.3-.6h0c0,.3.06.64.06,1v1.26H34.5Z"/><path class="cls-5" d="M37.18,64V60.8h1a1.45,1.45,0,0,1,1.57,1.6A1.46,1.46,0,0,1,38.15,64Zm.91-.78c.32,0,.73-.09.73-.85,0-.57-.22-.82-.73-.82h0v1.67Z"/><path class="cls-1" d="M37.37,61h.76a1.26,1.26,0,0,1,1.39,1.41,1.28,1.28,0,0,1-1.37,1.45h-.78Zm.72,2.44c.58,0,.91-.32.91-1s-.33-1-.91-1h-.22v2Z"/><polygon class="cls-5" points="40.79 64.03 40.79 60.8 42.88 60.8 42.88 61.59 41.66 61.59 41.66 62.04 42.7 62.04 42.7 62.83 41.66 62.83 41.66 64.03 40.79 64.03"/><path class="cls-1" d="M41,61H42.7v.42H41.48v.81h1v.43h-1v1.2H41Z"/><path class="cls-5" d="M44.3,64.08a1.49,1.49,0,0,1-1.47-1.66,1.52,1.52,0,0,1,1.49-1.67,1.31,1.31,0,0,1,1,.42l.12.12-.51.6-.14-.14a.56.56,0,0,0-.41-.19c-.38,0-.62.33-.62.85s.23.86.61.86a.59.59,0,0,0,.47-.23l.14-.15.51.59-.1.12A1.33,1.33,0,0,1,44.3,64.08Z"/><path class="cls-1" d="M43,62.42a1.34,1.34,0,0,1,1.31-1.49,1.13,1.13,0,0,1,.82.36l-.27.33a.78.78,0,0,0-.54-.25c-.47,0-.8.4-.8,1s.31,1.05.79,1.05a.8.8,0,0,0,.61-.3l.27.32a1.14,1.14,0,0,1-.9.42A1.31,1.31,0,0,1,43,62.42Z"/><path class="cls-5" d="M29.36,69.27v-.55l.06,0c.64-.63,1.2-1.17,1.2-1.53s-.16-.3-.28-.3a.58.58,0,0,0-.4.25l-.13.14-.54-.54.12-.13a1.31,1.31,0,0,1,1-.49,1,1,0,0,1,1.06,1,2.23,2.23,0,0,1-.75,1.37h.89v.79Z"/><path class="cls-1" d="M29.55,68.8c.77-.75,1.25-1.24,1.25-1.66a.43.43,0,0,0-.46-.48.78.78,0,0,0-.54.3l-.28-.27a1.13,1.13,0,0,1,.89-.43.81.81,0,0,1,.88.85c0,.5-.46,1-1,1.58l.46,0h.68v.42H29.55Z"/><path class="cls-5" d="M32.74,69.33c-.7,0-1.12-.62-1.12-1.64s.42-1.62,1.12-1.62,1.13.61,1.13,1.62S33.45,69.33,32.74,69.33Zm0-2.5c-.24,0-.28.54-.28.86s0,.88.28.88S33,68,33,67.69,33,66.83,32.74,66.83Z"/><path class="cls-1" d="M31.8,67.69c0-.94.37-1.43.94-1.43s.95.49.95,1.43-.37,1.45-.95,1.45S31.8,68.63,31.8,67.69Zm1.41,0c0-.79-.2-1-.47-1s-.46.25-.46,1,.19,1.06.46,1.06S33.21,68.48,33.21,67.69Z"/><path class="cls-5" d="M33.85,69.27v-.55l.06,0c.64-.63,1.2-1.17,1.2-1.53s-.16-.3-.28-.3a.58.58,0,0,0-.41.25l-.12.14-.55-.54.12-.13a1.33,1.33,0,0,1,1-.49,1,1,0,0,1,1.06,1,2.23,2.23,0,0,1-.75,1.37h.88v.79Z"/><path class="cls-1" d="M34,68.8c.77-.75,1.26-1.24,1.26-1.66a.43.43,0,0,0-.46-.48.76.76,0,0,0-.54.3L34,66.69a1.11,1.11,0,0,1,.89-.43.81.81,0,0,1,.88.85c0,.5-.46,1-1,1.58l.47,0h.68v.42H34Z"/><path class="cls-5" d="M37.23,69.33c-.71,0-1.13-.62-1.13-1.64s.42-1.62,1.13-1.62,1.13.61,1.13,1.62S37.93,69.33,37.23,69.33Zm0-2.5c-.25,0-.28.54-.28.86s0,.88.28.88.28-.62.28-.88S37.47,66.83,37.23,66.83Z"/><path class="cls-1" d="M36.28,67.69c0-.94.37-1.43.95-1.43s.94.49.94,1.43-.36,1.45-.94,1.45S36.28,68.63,36.28,67.69Zm1.41,0c0-.79-.19-1-.46-1s-.47.25-.47,1,.2,1.06.47,1.06S37.69,68.48,37.69,67.69Z"/><path class="cls-6" d="M50.41,36a15.93,15.93,0,0,0-.5-2.6.27.27,0,0,0-.52.1,18.3,18.3,0,0,1,.17,2.47c0,.12,0,.25,0,.37a.25.25,0,0,1-.17.24c-2.22.85-5.48-.18-8-2.71A12,12,0,0,1,40,32.21a.26.26,0,0,0-.48.18c0,.23,0,.47,0,.71a8.43,8.43,0,0,1-.08,1.24,8.93,8.93,0,0,1-1.91,4.46,8.46,8.46,0,0,1-13.51-.28l0,0a7,7,0,0,1-1.1-3.78c0-4.19,3.7-7.59,8.28-7.59a7.56,7.56,0,0,1,2.09.19h0l1,.28h.2A2.22,2.22,0,0,0,36,27.18a3.81,3.81,0,0,1-1,.12,3.77,3.77,0,0,1-.69-.06h0a5.61,5.61,0,0,1-1-.46,2.48,2.48,0,0,1-.42-.36l0,0h0a1.4,1.4,0,0,1-.28-.54h0a1.12,1.12,0,0,1,0-.27,1.5,1.5,0,0,1,.21-.76.86.86,0,0,1,.1-.16l0,0h0c-1.15.8-3.55,1.36-6.33,1.36-.28,0-.56,0-.84,0a15.72,15.72,0,0,1-3.21-.42.26.26,0,0,0-.33.3,25.56,25.56,0,0,1-.35,8,26.76,26.76,0,0,1-2.34,7.24.27.27,0,0,1-.5,0,17.69,17.69,0,0,1-.76-5.18c0-5.42,2.06-7.1,3.07-8.92a15.28,15.28,0,0,0-4,10.81,16.65,16.65,0,0,0,.86,5.31h0A15.88,15.88,0,0,0,19.39,46a16.62,16.62,0,0,0,13.78,8.42h.7A16.63,16.63,0,0,0,50.52,37.82,16.3,16.3,0,0,0,50.41,36ZM33.23,52.67a15.59,15.59,0,0,1-13-8.48.27.27,0,0,1,0-.29,3.33,3.33,0,0,1,.25-.28c2.08-2.08,6.46-1.1,9.76,2.21a10.48,10.48,0,0,1,3.29,6.55A.27.27,0,0,1,33.23,52.67ZM48,42.07a8.86,8.86,0,0,1-1.4,3.66h0a12.79,12.79,0,0,1-2.07,2.49l-.07.06c-.28.27-.59.53-.9.78a12.57,12.57,0,0,1-6,2.68l-.4,0a.26.26,0,0,1-.25-.13A8.9,8.9,0,0,1,37.56,42a9.1,9.1,0,0,1,5.16-3.38,3.12,3.12,0,0,1,.75-.15l.41,0A4.15,4.15,0,0,1,48,42Z"/></g></g></svg>