<svg xmlns="http://www.w3.org/2000/svg" xmlns:xlink="http://www.w3.org/1999/xlink" viewBox="0 0 48.08 69.5"><defs><style>.cls-1{fill:#fff;}.cls-1,.cls-2,.cls-3,.cls-6{fill-rule:evenodd;}.cls-2,.cls-4{fill:#231f20;}.cls-3,.cls-5{fill:#1a7065;}.cls-10,.cls-6{fill:#fbdf9a;}.cls-7{fill:#b3533f;}.cls-8{fill:url(#linear-gradient);}.cls-9{fill:#b6cb99;}</style><linearGradient id="linear-gradient" y1="29.88" x2="48.08" y2="29.88" gradientUnits="userSpaceOnUse"><stop offset="0"/><stop offset="1" stop-color="#062b26"/></linearGradient></defs><g id="Layer_2" data-name="Layer 2"><g id="Isolation_Mode" data-name="Isolation Mode"><path class="cls-1" d="M33.63,62.17a16.65,16.65,0,0,0,3.38.61s2.14.11,2.14-1.53l1.84,1-1.83-3.85L42.69,57s-3.59-2.23-6.53-2.23c0,0-2.48-.17-2.59,1.4a3.51,3.51,0,0,0,.33,1.4,2.15,2.15,0,0,1-1.1-1.44Z"/><path class="cls-2" d="M42.76,56.9c-.15-.09-3.66-2.25-6.6-2.25a3.71,3.71,0,0,0-2.26.57,1.33,1.33,0,0,0-.46,1,3.92,3.92,0,0,0,.16,1v.06a1.62,1.62,0,0,1-.68-1.1h0A.12.12,0,0,0,32.8,56h0a.11.11,0,0,0-.09.05.08.08,0,0,0,0,0v0h0L33.47,62h0l0,.14v0a.15.15,0,0,0,.06.09l0,0h0a17,17,0,0,0,3.41.62h0a3,3,0,0,0,1.66-.45l.14-.12,0,0h0l0,0h0l0,0,.1-.15h0a1.64,1.64,0,0,0,.2-.55h0s0-.07,0-.1h0l1.68.94a.12.12,0,0,0,.15,0,.13.13,0,0,0,0-.1.11.11,0,0,0,0-.05l-1.77-3.73,3.4-1.36a.15.15,0,0,0,.08-.11h0A.13.13,0,0,0,42.76,56.9Zm-3.65,1.4a.12.12,0,0,0-.07.07.09.09,0,0,0,0,.05.13.13,0,0,0,0,.06L40.7,62l-1.42-.79h0l0,0a.11.11,0,0,0-.08,0l-.05,0a.11.11,0,0,0-.06.11,1.21,1.21,0,0,1-.35.89h0l-.13.1a2.72,2.72,0,0,1-1.52.4h-.09l-.24,0h-.19l-.2,0h-.08l-.85-.15h-.1L35,62.37l-.11,0-.22-.05-.11,0-.84-.21h0c0-.22-.51-3.72-.69-5a3.13,3.13,0,0,0,.68.59l.1.06h0a.15.15,0,0,0,.14,0h0a.14.14,0,0,0,0-.14h0l0,0a3.31,3.31,0,0,1-.3-1.3,1.11,1.11,0,0,1,.37-.76,3.5,3.5,0,0,1,2.08-.51c2.46,0,5.42,1.61,6.24,2.08Z"/><path class="cls-3" d="M23.94,66.67A23.09,23.09,0,0,1,32.34,68c3.75,1.5,5.22,1.34,5.22,1.34,2.16,0,1.83-2.46,1.83-2.46,0-1-.36-4.67-.36-4.67l3.7,1.92-2.33-5.3,4.25-1.71c-5.88-3.63-8.49-3.31-8.49-3.31C32.79,53.83,32.8,56,32.8,56c0,1.73,3.78,2.8,3.78,2.8,2.68.82,2.55,2.17,2.55,2.17A1.76,1.76,0,0,1,37,62.78a16.65,16.65,0,0,1-3.38-.61c-1-.25-1.69-.47-1.69-.47a31.57,31.57,0,0,0-8-1Z"/><path class="cls-4" d="M39,62.1a.13.13,0,0,0-.12.14s.36,3.73.36,4.66a2.71,2.71,0,0,1-.44,1.84,1.62,1.62,0,0,1-1.26.49s-1.51.14-5.17-1.33a23.27,23.27,0,0,0-8.45-1.36.13.13,0,0,0-.13.13.13.13,0,0,0,.13.14,23.09,23.09,0,0,1,8.34,1.33c3.75,1.5,5.23,1.36,5.3,1.35A1.85,1.85,0,0,0,39,68.91a2.81,2.81,0,0,0,.51-2c0-.93-.34-4.52-.36-4.67A.13.13,0,0,0,39,62.1Z"/><path class="cls-5" d="M44.6,57l-4.25,1.7a.14.14,0,0,0-.07.08.07.07,0,0,0,0,.05.43.43,0,0,1,0,0l2.18,5-3.37-1.76a.13.13,0,0,0-.17.06.13.13,0,0,0,0,.18l3.7,1.92a.14.14,0,0,0,.15,0,.13.13,0,0,0,0-.1.09.09,0,0,0,0-.05l-2.27-5.18,4.12-1.66a.13.13,0,0,0,.08-.12.11.11,0,0,0,0,0A.13.13,0,0,0,44.6,57Z"/><path class="cls-4" d="M36.14,53.7a3.85,3.85,0,0,0-2.83.92A2.15,2.15,0,0,0,32.67,56c0,1.81,3.72,2.88,3.88,2.93,2.52.77,2.45,2,2.45,2a1.64,1.64,0,0,1-.5,1.32,2,2,0,0,1-1.47.37A16.41,16.41,0,0,1,33.66,62L32,61.57a32,32,0,0,0-8-1,.13.13,0,0,0,0,.26,31.67,31.67,0,0,1,8,1l1.7.47a17,17,0,0,0,3.41.62,2.27,2.27,0,0,0,1.66-.43,1.87,1.87,0,0,0,.59-1.5s.11-1.45-2.64-2.29c0,0-3.68-1.07-3.68-2.68,0-.09,0-2,3.22-2,0,0,2.67-.27,8.42,3.28a.13.13,0,1,0,.14-.22C38.87,53.41,36.25,53.69,36.14,53.7Z"/><path class="cls-6" d="M33.63,62.17a16.65,16.65,0,0,0,3.38.61s2.14.11,2.14-1.53l1.84,1-1.83-3.85L42.69,57s-3.59-2.23-6.53-2.23c0,0-2.48-.17-2.59,1.4a3.51,3.51,0,0,0,.33,1.4,2.15,2.15,0,0,1-1.1-1.44Z"/><path class="cls-3" d="M42.76,56.9c-.15-.09-3.66-2.25-6.6-2.25a3.71,3.71,0,0,0-2.26.57,1.33,1.33,0,0,0-.46,1,3.92,3.92,0,0,0,.16,1v.06a1.62,1.62,0,0,1-.68-1.1h0A.12.12,0,0,0,32.8,56h0a.11.11,0,0,0-.09.05.08.08,0,0,0,0,0v0h0L33.47,62h0l0,.14v0a.15.15,0,0,0,.06.09l0,0h0a17,17,0,0,0,3.41.62h0a3,3,0,0,0,1.66-.45l.14-.12,0,0h0l0,0h0l0,0,.1-.15h0a1.64,1.64,0,0,0,.2-.55h0s0-.07,0-.1h0l1.68.94a.12.12,0,0,0,.15,0,.13.13,0,0,0,0-.1.11.11,0,0,0,0-.05l-1.77-3.73,3.4-1.36a.15.15,0,0,0,.08-.11h0A.13.13,0,0,0,42.76,56.9Zm-3.65,1.4a.12.12,0,0,0-.07.07.09.09,0,0,0,0,.05.13.13,0,0,0,0,.06L40.7,62l-1.42-.79h0l0,0a.11.11,0,0,0-.08,0l-.05,0a.11.11,0,0,0-.06.11,1.21,1.21,0,0,1-.35.89h0l-.13.1a2.72,2.72,0,0,1-1.52.4h-.09l-.24,0h-.19l-.2,0h-.08l-.85-.15h-.1L35,62.37l-.11,0-.22-.05-.11,0-.84-.21h0c0-.22-.51-3.72-.69-5a3.13,3.13,0,0,0,.68.59l.1.06h0a.15.15,0,0,0,.14,0h0a.14.14,0,0,0,0-.14h0l0,0a3.31,3.31,0,0,1-.3-1.3,1.11,1.11,0,0,1,.37-.76,3.5,3.5,0,0,1,2.08-.51c2.46,0,5.42,1.61,6.24,2.08Z"/><path class="cls-5" d="M39,62.1a.12.12,0,0,0-.11.14s.36,3.73.36,4.66a2.68,2.68,0,0,1-.45,1.84,1.61,1.61,0,0,1-1.25.49s-1.51.14-5.18-1.33A23.24,23.24,0,0,0,24,66.54a.13.13,0,0,0-.13.13.13.13,0,0,0,.13.14,23.09,23.09,0,0,1,8.34,1.33c3.75,1.5,5.23,1.36,5.29,1.35A1.85,1.85,0,0,0,39,68.91a2.92,2.92,0,0,0,.51-2c0-.93-.35-4.52-.36-4.67A.14.14,0,0,0,39,62.1Z"/><path class="cls-5" d="M36.17,53.7a3.89,3.89,0,0,0-2.84.92A2.11,2.11,0,0,0,32.7,56c0,1.81,3.71,2.88,3.87,2.93,2.52.77,2.46,2,2.45,2a1.64,1.64,0,0,1-.49,1.32,2.07,2.07,0,0,1-1.48.37A16.33,16.33,0,0,1,33.69,62L32,61.57a32,32,0,0,0-8-1,.13.13,0,0,0,0,.26,31.67,31.67,0,0,1,8,1l1.69.47a17,17,0,0,0,3.41.62,2.29,2.29,0,0,0,1.67-.43,1.87,1.87,0,0,0,.59-1.5s.1-1.45-2.64-2.29c0,0-3.69-1.07-3.69-2.68,0-.09,0-2,3.22-2,0,0,2.67-.27,8.42,3.28a.13.13,0,0,0,.18,0,.13.13,0,0,0,0-.18C38.89,53.41,36.28,53.69,36.17,53.7Z"/><path class="cls-1" d="M14.24,62.17a16.65,16.65,0,0,1-3.38.61s-2.14.11-2.14-1.53l-1.84,1,1.83-3.85L5.18,57s3.59-2.23,6.53-2.23c0,0,2.49-.17,2.59,1.4a3.51,3.51,0,0,1-.33,1.4,2.15,2.15,0,0,0,1.1-1.44Z"/><path class="cls-2" d="M15.2,56.14a0,0,0,0,0,0,0,.08.08,0,0,0,0,0,.11.11,0,0,0-.09-.05h0a.13.13,0,0,0-.13.11h0a1.62,1.62,0,0,1-.68,1.1v-.06a3.93,3.93,0,0,0,.16-1,1.34,1.34,0,0,0-.46-1,3.72,3.72,0,0,0-2.27-.57h0c-2.93,0-6.44,2.16-6.59,2.25a.13.13,0,0,0-.06.11h0a.15.15,0,0,0,.08.11l3.4,1.36L6.76,62.22a.11.11,0,0,0,0,.05.13.13,0,0,0,0,.1.12.12,0,0,0,.15,0l1.68-.94h0s0,.07,0,.11a1.59,1.59,0,0,0,.2.54h0l.1.15,0,0H9l0,0H9l0,0,.14.11h0a2.94,2.94,0,0,0,1.67.46h0l.35,0h.1l.19,0h.31l.25,0h.13l.11,0,.29-.06.14,0h0l.09,0h0l.09,0,.12,0,.1,0,.07,0h.06l.18,0,.1,0,.38-.09.09,0h0l.09,0,0,0h0l0,0a.15.15,0,0,0,.06-.09v0l0-.14h0l.8-5.82h0Zm-1.08,5.92h0l-.84.21-.11,0-.33.08-.11,0-.11,0-.38.08h0l-.1,0H12l-.11,0h-.1l-.13,0-.25,0h0l-.28,0h-.28a2.75,2.75,0,0,1-1.49-.39h0l-.13-.11h0a1.21,1.21,0,0,1-.35-.89.11.11,0,0,0-.06-.11l0,0a.14.14,0,0,0-.09,0l0,0h0L7.17,62l1.66-3.48a.13.13,0,0,0,0-.06.09.09,0,0,0,0-.05.12.12,0,0,0-.07-.07L5.48,57c.82-.47,3.78-2.08,6.23-2.08a3.52,3.52,0,0,1,2.09.51,1.11,1.11,0,0,1,.37.77,3.28,3.28,0,0,1-.3,1.29l0,0h0a.13.13,0,0,0,0,.06.19.19,0,0,0,0,.08h0a.15.15,0,0,0,.14,0h0l.1-.06a2.65,2.65,0,0,0,.68-.59C14.63,58.34,14.15,61.84,14.12,62.06Z"/><path class="cls-3" d="M23.93,66.67A23.09,23.09,0,0,0,15.53,68c-3.75,1.5-5.22,1.34-5.22,1.34-2.16,0-1.83-2.46-1.83-2.46,0-1,.36-4.67.36-4.67l-3.7,1.92,2.33-5.3L3.22,57.14c5.88-3.63,8.49-3.31,8.49-3.31,3.37,0,3.36,2.18,3.36,2.18,0,1.73-3.78,2.8-3.78,2.8C8.61,59.63,8.74,61,8.74,61a1.76,1.76,0,0,0,2.12,1.8,16.65,16.65,0,0,0,3.38-.61c.95-.25,1.69-.47,1.69-.47a31.57,31.57,0,0,1,8-1Z"/><path class="cls-4" d="M8.71,62.22c0,.15-.36,3.74-.36,4.68a2.79,2.79,0,0,0,.51,2,1.86,1.86,0,0,0,1.45.58s1.53.15,5.27-1.35a23.24,23.24,0,0,1,8.35-1.33.13.13,0,0,0,.13-.14.13.13,0,0,0-.13-.13,23.27,23.27,0,0,0-8.45,1.36c-3.66,1.47-5.14,1.33-5.16,1.33a1.63,1.63,0,0,1-1.27-.49,2.67,2.67,0,0,1-.44-1.82c0-1,.36-4.64.36-4.68a.13.13,0,1,0-.26,0Z"/><path class="cls-5" d="M3.1,57.09a.43.43,0,0,1,0,0,.13.13,0,0,0,.08.12l4.12,1.66L5,64.1a.09.09,0,0,0,0,.05.13.13,0,0,0,0,.1.14.14,0,0,0,.15,0l3.7-1.92a.13.13,0,0,0-.12-.24L5.41,63.87l2.18-5a.11.11,0,0,0,0,0,.07.07,0,0,0,0-.05.14.14,0,0,0-.07-.08L3.27,57A.13.13,0,0,0,3.1,57.09Z"/><path class="cls-4" d="M3.15,57a.13.13,0,0,0,.14.22C9,53.7,11.67,54,11.7,54c3.2,0,3.24,2,3.24,2,0,1.61-3.65,2.67-3.69,2.68-2.75.84-2.64,2.24-2.64,2.3a1.86,1.86,0,0,0,.59,1.49,2.3,2.3,0,0,0,1.68.43,16.9,16.9,0,0,0,3.39-.62L16,61.82a31.77,31.77,0,0,1,8-1,.13.13,0,1,0,0-.26,32.1,32.1,0,0,0-8,1L14.21,62a16.48,16.48,0,0,1-3.35.61,2.09,2.09,0,0,1-1.49-.37,1.62,1.62,0,0,1-.5-1.3s-.07-1.27,2.46-2c.15,0,3.87-1.12,3.87-2.93a2.15,2.15,0,0,0-.64-1.39,3.87,3.87,0,0,0-2.85-.92C11.62,53.69,9,53.41,3.15,57Z"/><path class="cls-6" d="M14.24,62.17a16.65,16.65,0,0,1-3.38.61s-2.14.11-2.14-1.53l-1.84,1,1.83-3.85L5.18,57s3.59-2.23,6.53-2.23c0,0,2.49-.17,2.59,1.4a3.51,3.51,0,0,1-.33,1.4,2.15,2.15,0,0,0,1.1-1.44Z"/><path class="cls-3" d="M15.2,56.14a0,0,0,0,0,0,0,.08.08,0,0,0,0,0,.11.11,0,0,0-.09-.05h0a.13.13,0,0,0-.13.11h0a1.62,1.62,0,0,1-.68,1.1v-.06a3.93,3.93,0,0,0,.16-1,1.34,1.34,0,0,0-.46-1,3.72,3.72,0,0,0-2.27-.57h0c-2.93,0-6.44,2.16-6.59,2.25a.13.13,0,0,0-.06.11h0a.15.15,0,0,0,.08.11l3.4,1.36L6.76,62.22a.11.11,0,0,0,0,.05.13.13,0,0,0,0,.1.12.12,0,0,0,.15,0l1.68-.94h0s0,.07,0,.11a1.59,1.59,0,0,0,.2.54h0l.1.15,0,0H9l0,0H9l0,0,.14.11h0a2.94,2.94,0,0,0,1.67.46h0l.35,0h.1l.19,0h.31l.25,0h.13l.11,0,.29-.06.14,0h0l.09,0h0l.09,0,.12,0,.1,0,.07,0h.06l.18,0,.1,0,.38-.09.09,0h0l.09,0,0,0h0l0,0a.15.15,0,0,0,.06-.09v0l0-.14h0l.8-5.82h0Zm-1.08,5.92h0l-.84.21-.11,0-.33.08-.11,0-.11,0-.38.08h0l-.1,0H12l-.11,0h-.1l-.13,0-.25,0h0l-.28,0h-.28a2.75,2.75,0,0,1-1.49-.39h0l-.13-.11h0a1.21,1.21,0,0,1-.35-.89.11.11,0,0,0-.06-.11l0,0a.14.14,0,0,0-.09,0l0,0h0L7.17,62l1.66-3.48a.13.13,0,0,0,0-.06.09.09,0,0,0,0-.05.12.12,0,0,0-.07-.07L5.48,57c.82-.47,3.78-2.08,6.23-2.08a3.52,3.52,0,0,1,2.09.51,1.11,1.11,0,0,1,.37.77,3.28,3.28,0,0,1-.3,1.29l0,0h0a.13.13,0,0,0,0,.06.19.19,0,0,0,0,.08h0a.15.15,0,0,0,.14,0h0l.1-.06a2.65,2.65,0,0,0,.68-.59C14.63,58.34,14.15,61.84,14.12,62.06Z"/><path class="cls-5" d="M8.68,62.22c0,.15-.36,3.74-.36,4.68a2.9,2.9,0,0,0,.51,2,1.86,1.86,0,0,0,1.45.58c.05,0,1.53.15,5.28-1.35a23.09,23.09,0,0,1,8.34-1.33.13.13,0,0,0,.13-.14.13.13,0,0,0-.13-.13,23.24,23.24,0,0,0-8.44,1.36c-3.67,1.47-5.15,1.33-5.16,1.33A1.63,1.63,0,0,1,9,68.74a2.64,2.64,0,0,1-.45-1.82c0-1,.36-4.64.36-4.68a.12.12,0,0,0-.11-.14A.14.14,0,0,0,8.68,62.22Z"/><path class="cls-5" d="M3.13,57a.13.13,0,0,0,0,.18.13.13,0,0,0,.18,0C9,53.7,11.65,54,11.67,54c3.2,0,3.24,2,3.24,2,0,1.61-3.65,2.67-3.68,2.68-2.75.84-2.65,2.24-2.64,2.3a1.83,1.83,0,0,0,.59,1.49,2.3,2.3,0,0,0,1.68.43,17,17,0,0,0,3.39-.62l1.69-.47a31.67,31.67,0,0,1,8-1,.13.13,0,0,0,0-.26,32,32,0,0,0-8,1L14.18,62a16.4,16.4,0,0,1-3.34.61,2.1,2.1,0,0,1-1.5-.37A1.62,1.62,0,0,1,8.85,61s-.07-1.27,2.45-2c.16,0,3.87-1.12,3.87-2.93a2.11,2.11,0,0,0-.63-1.39,3.9,3.9,0,0,0-2.85-.92C11.6,53.69,9,53.41,3.13,57Z"/><path class="cls-6" d="M23.93,65.64A25,25,0,0,0,15,67.15c-6.27,2.64-5.66,0-5.66,0l.19-3.61c1.61.61,5.92-.74,5.92-.74a28.61,28.61,0,0,1,8.45-1.2h0a28.61,28.61,0,0,1,8.45,1.2s4.31,1.35,5.92.74l.2,3.61s.6,2.64-5.67,0a25,25,0,0,0-8.9-1.51Z"/><path class="cls-3" d="M38.62,67.12l-.19-3.59a.11.11,0,0,0-.06-.1.13.13,0,0,0-.12,0c-1.55.59-5.79-.73-5.83-.75a28.75,28.75,0,0,0-8.48-1.2h0a28.41,28.41,0,0,0-8.49,1.2s-4.28,1.34-5.83.75a.13.13,0,0,0-.12,0,.13.13,0,0,0-.06.1l-.19,3.61a1,1,0,0,0,.34,1c.77.66,2.62.37,5.5-.84a25.33,25.33,0,0,1,8.85-1.5h0a25.24,25.24,0,0,1,8.84,1.5c2.88,1.21,4.73,1.5,5.51.84A1,1,0,0,0,38.62,67.12Zm-.51.8c-.39.32-1.59.64-5.23-.89a25.27,25.27,0,0,0-8.94-1.52h0A25.29,25.29,0,0,0,15,67c-3.64,1.53-4.84,1.21-5.23.89a.75.75,0,0,1-.27-.59,1,1,0,0,1,0-.15s.18-3.19.19-3.48c1.73.5,5.67-.72,5.84-.78a28.81,28.81,0,0,1,8.41-1.19h0a28,28,0,0,1,8.4,1.19c.17.06,4.11,1.28,5.84.78,0,.29.19,3.46.19,3.46a1.48,1.48,0,0,1,0,.16A.74.74,0,0,1,38.11,67.92Z"/><path class="cls-7" d="M16,65.41c.13-.21.26-.43.36-.62a1.35,1.35,0,0,0,.29-1,.4.4,0,0,0-.53-.33,1,1,0,0,0-.34.16l.17-.17c0,.1,0,.2,0,.31s0,.25-.14.27a.21.21,0,0,1-.21-.06c-.05-.35.22-.59.58-.68s.72.07.79.4,0,.54-.45,1.15c-.08.13-.2.32-.33.51l-.05-.05c.4-.11.82-.21,1.23-.3l.06.27c-.46.1-.91.21-1.36.33Z"/><path class="cls-7" d="M18.92,63.9c.13.81-.17,1.16-.52,1.23s-.76-.15-.94-1S17.6,63,18,62.91,18.79,63.07,18.92,63.9ZM18.37,65c.21,0,.36-.27.23-1s-.37-.93-.59-.89-.38.27-.23,1S18.17,65,18.37,65Z"/><path class="cls-7" d="M20.67,63.66c.08.83-.24,1.15-.59,1.2s-.75-.19-.88-1,.2-1.18.59-1.23S20.58,62.83,20.67,63.66Zm-.61,1c.2,0,.37-.25.28-1s-.31-1-.53-.93-.4.25-.29,1S19.85,64.74,20.06,64.71Z"/><path class="cls-7" d="M21.52,63.57l.15,0c-.26.17-.39.31-.37.56a.42.42,0,0,0,.47.38.4.4,0,0,0,.37-.43c0-.19-.14-.31-.57-.46s-.56-.34-.58-.6.24-.58.62-.61.64.17.65.48-.09.39-.47.61l-.14,0c.27-.21.36-.34.35-.55a.35.35,0,0,0-.39-.35.34.34,0,0,0-.35.36c0,.19.13.35.55.49s.61.32.62.63-.27.59-.66.62-.72-.13-.75-.48S21.17,63.76,21.52,63.57Z"/><path class="cls-7" d="M23.53,63.62h.81v.22q-.4,0-.81,0Z"/><path class="cls-7" d="M25.43,64.38l.54-.47a1.39,1.39,0,0,0,.57-.85.4.4,0,0,0-.39-.48,1.13,1.13,0,0,0-.38.05l.22-.11c0,.1-.07.2-.11.29s-.12.23-.22.22a.18.18,0,0,1-.17-.12c.05-.35.39-.5.76-.47s.65.29.62.62-.21.5-.78,1l-.47.38,0-.07,1.26.1,0,.27-1.39-.1A1.55,1.55,0,0,0,25.43,64.38Z"/><path class="cls-7" d="M28.66,63.85c-.12.82-.52,1.06-.87,1s-.67-.38-.59-1.2.49-1.09.88-1S28.79,63,28.66,63.85Zm-.85.86c.2,0,.42-.14.53-.91s-.06-1-.28-1-.45.14-.54.93S27.6,64.68,27.81,64.71Z"/><path class="cls-7" d="M30.15,65.1l0,.11L28.89,65l0-.12h.49l.29.06C29.84,65,30,65,30.15,65.1ZM30,63l0,0c0,.15-.07.31-.1.46-.06.32-.13.64-.19,1l-.12.7-.31-.06c0-.23.1-.46.14-.69.08-.4.15-.8.22-1.19l-.48,0,0-.14Z"/><path class="cls-7" d="M31.3,64.22a.45.45,0,0,0,.61-.31c.06-.23-.06-.41-.34-.48a1.24,1.24,0,0,0-.31,0l.18,0-.12.21c-.08.13-.14.19-.26.16a.17.17,0,0,1-.15-.16.6.6,0,0,1,.76-.26c.42.1.62.38.54.68a.65.65,0,0,1-.73.41v-.06c.44.15.59.42.51.72a.7.7,0,0,1-.91.43.61.61,0,0,1-.54-.62.23.23,0,0,1,.2-.07c.11,0,.14.11.14.28a2.44,2.44,0,0,1,0,.27l-.1-.15a.86.86,0,0,0,.28.13.45.45,0,0,0,.61-.34c.08-.28-.05-.5-.4-.59l-.17,0,0-.16Z"/><path class="cls-5" d="M45.14,6.05a17,17,0,0,1-4,2,17,17,0,0,1-5.45.9,17.14,17.14,0,0,1-6.54-1.3A17.36,17.36,0,0,1,24,4.31a17.11,17.11,0,0,1-5.12,3.3,17.09,17.09,0,0,1-6.53,1.3A17,17,0,0,1,6.93,8a17,17,0,0,1-4-2c0,.54,0,1.06-.06,1.59,0,.88,0,1.77,0,2.66A69.37,69.37,0,0,0,9,37.28,52.34,52.34,0,0,0,24,56.74,52.47,52.47,0,0,0,39.12,37.28a69.36,69.36,0,0,0,6.08-27c0-.89,0-1.78,0-2.66C45.19,7.11,45.17,6.59,45.14,6.05Z"/><path class="cls-8" d="M47.51,1.57c0-.32-.1-.64-.16-1A15.24,15.24,0,0,1,36,5.7,15.27,15.27,0,0,1,24,0,15.25,15.25,0,0,1,12.13,5.7,15.24,15.24,0,0,1,.73.61c0,.32-.11.64-.15,1A52,52,0,0,0,0,9.31C0,28.8,7.46,48.57,24,59.76c16.58-11.19,24-31,24-50.45A52,52,0,0,0,47.51,1.57Zm-1.12,8.76A70.46,70.46,0,0,1,40.2,37.78,53.39,53.39,0,0,1,24.41,58l-.37.29L23.68,58A53.5,53.5,0,0,1,7.88,37.78,70.46,70.46,0,0,1,1.69,10.33c0-.91,0-1.82,0-2.72s.07-1.83.14-2.71L1.9,3.8l.88.67A15.89,15.89,0,0,0,7.31,6.88a15.77,15.77,0,0,0,5.08.83A15.73,15.73,0,0,0,18.46,6.5a15.64,15.64,0,0,0,5.16-3.45L24,2.63l.43.42A15.7,15.7,0,0,0,29.62,6.5,15.74,15.74,0,0,0,35.7,7.71a15.76,15.76,0,0,0,5.07-.83,16.08,16.08,0,0,0,4.54-2.41l.87-.67.09,1.1c.06.88.11,1.78.13,2.71S46.42,9.42,46.39,10.33Z"/><path class="cls-9" d="M46.27,4.9l-.09-1.1-.87.67a16.08,16.08,0,0,1-4.54,2.41,15.76,15.76,0,0,1-5.07.83A15.74,15.74,0,0,1,29.62,6.5a15.7,15.7,0,0,1-5.15-3.45L24,2.63l-.42.42A15.64,15.64,0,0,1,18.46,6.5a15.73,15.73,0,0,1-6.07,1.21,15.77,15.77,0,0,1-5.08-.83A15.89,15.89,0,0,1,2.78,4.47L1.9,3.8,1.82,4.9c-.07.88-.11,1.78-.14,2.71s0,1.81,0,2.72A70.46,70.46,0,0,0,7.88,37.78,53.5,53.5,0,0,0,23.68,58l.36.29.37-.29A53.39,53.39,0,0,0,40.2,37.78a70.46,70.46,0,0,0,6.19-27.45c0-.91,0-1.82,0-2.72S46.33,5.78,46.27,4.9ZM45.2,10.3a69.36,69.36,0,0,1-6.08,27A52.47,52.47,0,0,1,24,56.74,52.34,52.34,0,0,1,9,37.28a69.37,69.37,0,0,1-6.09-27c0-.89,0-1.78,0-2.66,0-.53,0-1,.06-1.59a17,17,0,0,0,4,2,17,17,0,0,0,5.46.9,17.09,17.09,0,0,0,6.53-1.3A17.11,17.11,0,0,0,24,4.31a17.36,17.36,0,0,0,5.12,3.3,17.14,17.14,0,0,0,6.54,1.3A17,17,0,0,0,41.15,8a17,17,0,0,0,4-2c0,.54,0,1.06.07,1.59C45.23,8.52,45.22,9.41,45.2,10.3Z"/><path class="cls-6" d="M35.87,18.55c0-.19,0-.38-.08-.56a7.28,7.28,0,0,1-5.74,3,7.37,7.37,0,0,1-6-3.33A7.36,7.36,0,0,1,18,21a7.28,7.28,0,0,1-5.74-3c0,.19,0,.37-.08.56a35.5,35.5,0,0,0-.29,4.52c0,11.4,3.76,23,12.12,29.49C32.4,46,36.16,34.47,36.16,23.07A35.5,35.5,0,0,0,35.87,18.55Zm-.56,5.12a46.83,46.83,0,0,1-3.12,16,31.13,31.13,0,0,1-8,11.81l-.19.16-.18-.16a31.15,31.15,0,0,1-8-11.81,46.83,46.83,0,0,1-3.12-16q0-.8,0-1.59c0-.54,0-1.07.07-1.59l0-.64.44.39a7.58,7.58,0,0,0,2.29,1.41,6.86,6.86,0,0,0,2.56.49,7,7,0,0,0,3.06-.71,8.13,8.13,0,0,0,2.6-2l.21-.25.22.25a8,8,0,0,0,2.59,2,7,7,0,0,0,5.63.22,7.42,7.42,0,0,0,2.28-1.41l.44-.39,0,.64q0,.78.06,1.59T35.31,23.67Z"/><path class="cls-3" d="M34.68,21.17a8,8,0,0,1-2,1.14,7.48,7.48,0,0,1-6.05-.23A8.6,8.6,0,0,1,24,20.15a8.6,8.6,0,0,1-2.58,1.93,7.56,7.56,0,0,1-3.29.76,7.48,7.48,0,0,1-2.75-.53,8.07,8.07,0,0,1-2-1.14l0,.93c0,.51,0,1,0,1.55a46,46,0,0,0,3.07,15.77A30.51,30.51,0,0,0,24,50.8a30.51,30.51,0,0,0,7.6-11.38,46,46,0,0,0,3.07-15.77c0-.52,0-1,0-1.55Q34.71,21.64,34.68,21.17Z"/><path class="cls-9" d="M35.25,20.49l0-.64-.44.39a7.42,7.42,0,0,1-2.28,1.41,7,7,0,0,1-5.63-.22,8,8,0,0,1-2.59-2L24,19.17l-.21.25a8.13,8.13,0,0,1-2.6,2,7,7,0,0,1-3.06.71,6.86,6.86,0,0,1-2.56-.49,7.58,7.58,0,0,1-2.29-1.41l-.44-.39,0,.64c0,.52-.06,1.05-.07,1.59s0,1.06,0,1.59a46.83,46.83,0,0,0,3.12,16,31.15,31.15,0,0,0,8,11.81l.18.16.19-.16a31.13,31.13,0,0,0,8-11.81,46.83,46.83,0,0,0,3.12-16q0-.8,0-1.59T35.25,20.49Zm-.54,3.16a46,46,0,0,1-3.07,15.77A30.51,30.51,0,0,1,24,50.8a30.51,30.51,0,0,1-7.6-11.38,46,46,0,0,1-3.07-15.77c0-.52,0-1,0-1.55l0-.93a8.07,8.07,0,0,0,2,1.14,7.48,7.48,0,0,0,2.75.53,7.56,7.56,0,0,0,3.29-.76A8.6,8.6,0,0,0,24,20.15a8.6,8.6,0,0,0,2.58,1.93,7.48,7.48,0,0,0,6.05.23,8,8,0,0,0,2-1.14q0,.46,0,.93C34.72,22.61,34.72,23.13,34.71,23.65Z"/><path class="cls-10" d="M11.6,17.69H10L9.18,16c-1,0-2-.11-3-.2-.14.64-.27,1.27-.39,1.92l-1.58,0A39.63,39.63,0,0,1,6.57,9.36c.55.17,1.1.32,1.67.45C9.21,12.5,10.37,15.11,11.6,17.69Zm-3-3.08c-.42-1-.82-2.07-1.2-3.12q-.48,1.42-.87,2.88Q7.56,14.51,8.59,14.61Z"/><path class="cls-10" d="M12.42,17.69c-.14-2.46-.19-4.92-.09-7.38.55,0,1.09,0,1.63-.09-.11,2.07-.13,4.14-.09,6.21q1.88,0,3.75-.15c0,.46,0,.93,0,1.39Z"/><path class="cls-10" d="M19,8.93c.5-.21,1-.43,1.48-.68-.08,1.7-.15,3.41-.21,5.11a7.9,7.9,0,0,0,0,1.54,1.48,1.48,0,0,0,.44.91,1.37,1.37,0,0,0,1,.26,1.57,1.57,0,0,0,.84-.36,1.8,1.8,0,0,0,.44-.84,12.17,12.17,0,0,0,.14-2.18q0-3.06.07-6.14c.59-.47.64-.61,1.26-.11l.06,5.89a18.36,18.36,0,0,1-.16,3.23,3.08,3.08,0,0,1-.86,1.63,2.57,2.57,0,0,1-1.78.62,3.42,3.42,0,0,1-1.78-.42A2.27,2.27,0,0,1,19,16.27a7.21,7.21,0,0,1-.22-2.67C18.81,12,18.88,10.49,19,8.93Z"/><path class="cls-10" d="M26,17.64c-.06-3.41-.14-6.81-.25-10.22a20.13,20.13,0,0,0,2.14,1.16q.79,3.21,1.61,6.4c.37-1.79.75-3.59,1.12-5.39a21.84,21.84,0,0,0,2.38.49c.15,2.53.17,5.07.11,7.61H31.76q0-3.09-.12-6.2c-.44,2.07-.89,4.13-1.34,6.2H28.87c-.58-2.49-1.15-5-1.69-7.48q.15,3.74.23,7.47Z"/><path class="cls-10" d="M34.62,17.69c.12-2.49.15-5,0-7.46q.8,0,1.59,0a44.68,44.68,0,0,1,3.09,4.85c.13-1.76.2-3.52.17-5.28.5-.12,1-.25,1.46-.4a62,62,0,0,1-.5,8.28H39a44.42,44.42,0,0,0-2.76-4.84c0,1.62-.08,3.23-.2,4.85Z"/><path class="cls-10" d="M42,17.67a65.52,65.52,0,0,0,.55-8.85c.5-.21,1-.44,1.47-.7a70.55,70.55,0,0,1-.54,9.53Z"/><path class="cls-10" d="M29.09,24c.06-.05.11-.11.13-.11s.14.08.17.14a.71.71,0,0,0,.29.37c.14.1.11.26.12.4s0,.52,0,.78a1,1,0,0,0,0,.25c.05.19.09.38.15.56s.12.27.15.41c.08.36.15.72.2,1.09s.05.53.07.79-.07.23-.24.24a3.18,3.18,0,0,1-1.84-.53,1.9,1.9,0,0,1-.21-.19s-.09-.11-.13-.1-.2-.08-.24-.19a1.32,1.32,0,0,0-.8-.7,2,2,0,0,1-.92-.62s0,0,0,0H26c0,.05,0,.09.05.12a1.2,1.2,0,0,0,.5.42l.37.16a.57.57,0,0,1,.38.71,3.45,3.45,0,0,1-.14.42l-.3.76-.74.11a.13.13,0,0,1-.12-.05,2.71,2.71,0,0,0-1.06-1l-.06,0a.38.38,0,0,1-.22-.43.94.94,0,0,0-.13-.62c0,.2,0,.38,0,.56a1.16,1.16,0,0,1-.15.62,1.22,1.22,0,0,0-.09,1,1.87,1.87,0,0,0,.2.51.23.23,0,0,1-.1.35c-.08-.12-.15-.25-.24-.37a2.69,2.69,0,0,0-.3-.37c-.14-.13-.2-.09-.27.08a5.14,5.14,0,0,1-.27.58,4.88,4.88,0,0,1-.89,1.08c-.08.09-.18.17-.26.26a.29.29,0,0,1-.31.09,11.83,11.83,0,0,1-2.19-.6l-1-.35c-.23-.08-.47-.15-.71-.21s-.23-.26-.27-.43,0-.09,0-.13-.06-.15,0-.21,0-.1.06-.14l.33-.08a.6.6,0,0,1,.54.2l.14.15a1.26,1.26,0,0,0,.91.55,9.83,9.83,0,0,0,1.79.21.46.46,0,0,0,.44-.23c.13-.19.25-.38.39-.57a2.33,2.33,0,0,0,.4-.84,1.77,1.77,0,0,1,.54-1,.8.8,0,0,1,.19-.13.2.2,0,0,0,.09-.29,5.1,5.1,0,0,1-.3-.73,1.16,1.16,0,0,0-.38-.49.52.52,0,0,1-.2-.48c0-.14,0-.29,0-.44a1,1,0,0,1,.3-.81c.08-.06.2-.05.31-.08a.49.49,0,0,0,.18-.08c.1-.08.17-.18.27-.26a.48.48,0,0,1,.23-.1,3.11,3.11,0,0,1,.44-.06.42.42,0,0,1,.15,0,2.59,2.59,0,0,1,.72.56c.37.4.8.76,1.14,1.19a5.08,5.08,0,0,0,.92.7,5.18,5.18,0,0,0,.58.28,1.49,1.49,0,0,1,.35.27,3.4,3.4,0,0,0,.92.67c.07,0,.14.1.22.14s.15,0,.14-.09c0-.41,0-.81-.08-1.21,0-.21-.09-.41-.14-.62a1.24,1.24,0,0,0-.43-.67.58.58,0,0,1-.11-.58c.05-.09.11-.16.15-.24a.58.58,0,0,0,0-.19C28.94,24,29,24,29.09,24Z"/><path class="cls-10" d="M21.46,42c-.09,0-.2,0-.25-.05a.38.38,0,0,1,0-.42,3.69,3.69,0,0,0,.3-.67,1,1,0,0,0,0-.42c0-.1,0-.2-.05-.3a.24.24,0,0,1,.19-.25,1.08,1.08,0,0,1,.36,0,.89.89,0,0,0,.73-.08c.54-.29,1.08-.6,1.63-.87a4.06,4.06,0,0,1,.72-.24c.13,0,.18-.08.14-.23a13.63,13.63,0,0,0-.67-2.08,6.26,6.26,0,0,1-.23-1L24.21,35a2.27,2.27,0,0,1,0-1.24c.07-.2.12-.41.18-.62a.2.2,0,0,1,.08-.12s.07.05.12.07.1.06.15.05a2.83,2.83,0,0,0,.36-.07A2.36,2.36,0,0,1,26.32,35a.54.54,0,0,0,.52-.19c.27-.36.57-.7.85-1l.23-.24c0,.22,0,.39,0,.56a2.51,2.51,0,0,0,0,.27,2,2,0,0,1,0,.24c0,.16,0,.32,0,.48s-.06.5-.05.75a5.66,5.66,0,0,1-.14,1.36,8,8,0,0,1-.55,1.65.94.94,0,0,0-.1.28.56.56,0,0,1-.41.45.33.33,0,0,0-.18.17c-.08.32-.15.65-.22,1s-.11.46-.14.69,0,.43,0,.64,0,.53,0,.79a5.12,5.12,0,0,0,.08.87,2.52,2.52,0,0,1,0,.48,4.06,4.06,0,0,0,.08.69,2.34,2.34,0,0,0,0,.26l.09.29a.8.8,0,0,1,0,.15l0,.34c0,.1,0,.22-.14.23s0,.05-.07.07-.12.09-.17.08a1.23,1.23,0,0,1-.44-.1.49.49,0,0,1-.2-.32,3.13,3.13,0,0,1,.05-1.36,1.48,1.48,0,0,0,0-.47c0-.22,0-.43,0-.64s-.1-.49-.14-.74-.09-.45-.14-.68-.05-.27-.08-.41a4.57,4.57,0,0,1,0-1.43c0-.15,0-.2-.17-.19a.57.57,0,0,0-.38.09.27.27,0,0,1-.16,0,1.57,1.57,0,0,0-.64.11,5.16,5.16,0,0,1-.79.24,1.07,1.07,0,0,0-.66.4c-.1.15-.28.26-.38.41a5.59,5.59,0,0,0-.32.65Z"/><path class="cls-10" d="M25.26,33a1,1,0,0,0,.17,0c.1,0,.18,0,.18-.17a.15.15,0,0,0-.18-.14,1.72,1.72,0,0,0-.39,0,.19.19,0,0,1-.23-.21c0-.06.05-.13.07-.2a1.43,1.43,0,0,0,0-1.26c-.11-.24-.26-.46-.38-.69a.25.25,0,0,1,0-.19.5.5,0,0,1,.22-.16c.37-.18.75-.37,1.14-.53a2.59,2.59,0,0,1,1.46-.16c.25.05.25,0,.26.3s0,.24,0,.37c0,.32,0,.64,0,1a11.32,11.32,0,0,0,.14,1.17,4.41,4.41,0,0,1,.07,1.2.55.55,0,0,1-.29.35,1.33,1.33,0,0,1-1.13.17,2.17,2.17,0,0,1-.91-.54c-.1-.1-.22-.18-.33-.27Z"/><path class="cls-10" d="M25.07,32.82l.41,0v.06l-.41,0Z"/><path class="cls-10" d="M24.72,32.68l.08.1-.22.15,0,0Z"/><path class="cls-10" d="M19.85,37.86v-.18l0-.2a1.5,1.5,0,0,1,.46-.81,1.48,1.48,0,0,1,.82-.38l.13,0h.16a1.5,1.5,0,0,1,1.4,1.3s0,.08,0,.12v.17s0,.08,0,.12a1.49,1.49,0,0,1-.42.86,1.62,1.62,0,0,1-.84.43h-.34a1.41,1.41,0,0,1-.74-.26,1.48,1.48,0,0,1-.65-1S19.85,37.91,19.85,37.86Zm2.53-.51h0l0-.08-.06-.08a1.27,1.27,0,0,0-.31-.3.14.14,0,0,0-.11,0,1.58,1.58,0,0,0-.37.11.09.09,0,0,0-.06.06,2.49,2.49,0,0,0-.09.46,0,0,0,0,0,0,.06,2.38,2.38,0,0,1,.36.35.07.07,0,0,0,.06,0,2.44,2.44,0,0,0,.46-.14s0,0,0,0A1.8,1.8,0,0,0,22.38,37.35Zm-1.94,0a.14.14,0,0,0,0,.12,2.13,2.13,0,0,0,.31.29h.06a1.83,1.83,0,0,1,.39-.21.14.14,0,0,0,.09-.12,1.65,1.65,0,0,1,.09-.43s0,0,0-.05a1.75,1.75,0,0,0-.35-.2s-.06,0-.08,0a1.26,1.26,0,0,0-.42.16.12.12,0,0,0-.05.07A1.5,1.5,0,0,0,20.44,37.37Zm2.07.87v0a2,2,0,0,0-.18-.36s0,0,0,0a4.19,4.19,0,0,1-.47.14s0,0,0,0l0,.1-.17.33a.06.06,0,0,0,0,.08.16.16,0,0,1,0,.07l.12.22a.07.07,0,0,0,.05,0,2.17,2.17,0,0,0,.35-.07.37.37,0,0,0,.12-.07,1.57,1.57,0,0,0,.28-.44Zm-2.44-.42a2.57,2.57,0,0,0,.12.55s0,0,0,0a1.15,1.15,0,0,0,.33.21.1.1,0,0,0,.09,0l.22-.17a.06.06,0,0,0,0-.07,3.41,3.41,0,0,1-.09-.48.06.06,0,0,0,0-.06,1.88,1.88,0,0,1-.32-.31s0,0-.05,0a1.9,1.9,0,0,0-.29.28Zm1.22,1.34.07,0a1.7,1.7,0,0,0,.3-.23,0,0,0,0,0,0-.06l-.16-.29a.07.07,0,0,0-.07,0,2.65,2.65,0,0,1-.48-.07.08.08,0,0,0-.08,0l-.22.17s0,0,0,.07l.13.2c.11.15.08.13.27.19Zm.55-2.65v0a1.12,1.12,0,0,1,.11.25.1.1,0,0,0,0,0,1.39,1.39,0,0,1,.4.4.16.16,0,0,0,.08.06.48.48,0,0,1,.21.09h0s0-.1-.05-.14a1.42,1.42,0,0,0-.67-.72A.36.36,0,0,0,21.84,36.51Zm-.68-.07a.13.13,0,0,0-.12,0,1.39,1.39,0,0,0-.75.45l0,.05h.21l0,0a1.21,1.21,0,0,1,.44-.18.12.12,0,0,0,.07,0,1,1,0,0,1,.14-.21S21.16,36.45,21.16,36.44Zm1,2.46h0a1.43,1.43,0,0,0,.51-.8h0l-.11.11a.18.18,0,0,0-.05.07,1.35,1.35,0,0,1-.3.47.05.05,0,0,0,0,0S22.21,38.87,22.2,38.9Zm-2.05-.41a.49.49,0,0,0,0-.12,1.9,1.9,0,0,1-.1-.46A.29.29,0,0,0,20,37.7,1.35,1.35,0,0,0,20.15,38.49Zm1.66-2h0a1.24,1.24,0,0,0-.63-.06h.06a2.32,2.32,0,0,1,.46,0Zm-1,2.61v0l.19,0h0Z"/></g></g></svg>